<?xml version="1.0" encoding="UTF-8"?>
<svg width="110px" height="110px" viewBox="0 0 110 110" version="1.1" xmlns="http://www.w3.org/2000/svg" xmlns:xlink="http://www.w3.org/1999/xlink">
    <!-- Generator: Sketch 64 (93537) - https://sketch.com -->
    <title>Artboard</title>
    <desc>Created with Sketch.</desc>
    <g id="Artboard" stroke="none" stroke-width="1" fill="none" fill-rule="evenodd">
        <path d="M81.8664795,74.4802556 C79.7639045,74.4892331 77.6653003,75.731115 76.0789381,73.2732861 C75.5518053,73.2752811 76.5891948,68.3416682 76.0541202,65.8758593 C75.5250019,65.8778543 74.4677581,65.8818443 73.9386398,65.8838393 C73.3916526,62.1921084 74.4349984,58.4923975 73.8870185,54.7956791 C73.871135,54.6919396 73.850288,54.6101449 73.8324191,54.5163804 L81.8664795,54.380721 C79.179194,54.380721 76.4919085,54.3777285 73.8056157,54.3757335 C73.1583641,51.3164147 71.1957621,53.473 70.6716074,51.1129257 C69.0514929,48.6570917 71.7139605,47.4142123 73.3181915,47.4072298 C72.7721971,44.9444134 74.387348,47.4032398 74.3764281,44.9384284 C74.3535956,40.0098031 74.3377121,35.0781852 72.1606833,31.3924393 C71.6136961,30.1605323 72.1318945,26.4628164 72.1189891,24 C65.6276112,24.0289274 58.5535083,24.0458848 52.172322,29.0193974 C46.89603,32.796913 40.3401255,27.5949738 35.1263746,31.7445552 C34.3381571,32.3729774 33.2521245,31.464259 32.2455092,31.1709953 C31.7283036,31.0243634 31.3153332,31.0333409 30.8755595,31.464259 C30.4407493,31.8961745 30.0476333,32.7510282 29.7835705,34.2981437 L31.4672189,34.2652264 C29.9870776,37.9938646 27.973847,34.3160986 25.6915901,35.7105974 C25.8692865,38.1714188 25.9427476,39.3983383 25.316343,40.6871025 C26.7895354,40.5544356 28.7372466,39.2497115 29.9235437,40.460671 L30.0079246,44.1524019 C29.4500175,44.7838166 28.7104432,44.4955404 27.914284,44.2232241 C27.1240811,43.9499103 26.2614098,43.695549 25.6280562,44.3668635 C25.7322916,45.5967754 25.9407622,48.0536069 26.0449975,49.2815239 C26.1442692,50.5084434 25.5526097,50.5583181 24.9450668,50.6301378 C25.5565806,50.5523332 26.7478413,50.4525836 27.32461,50.4226588 C27.3901293,51.5378587 27.5162044,53.6585342 27.5936363,54.9612634 C26.3755723,55.0340805 25.1714063,55.14979 24,55.3572691 L27.6134907,55.2964219 C27.6144834,55.3093893 27.6154761,55.3273442 27.6164688,55.3413091 C27.6869518,56.5752111 27.1766951,56.605136 26.6684239,56.6480283 C26.8550547,59.1038622 26.6565113,61.597601 27.187615,62.7856182 C27.6105125,62.7507058 28.0483008,62.720781 28.5049507,62.6988361 C27.6164688,63.3611731 27.1528699,65.2614021 27.0724598,67.4399323 C26.9831152,69.61946 27.2382436,72.073299 27.4794739,73.9056982 C27.5261316,72.6568338 27.9440655,76.3306098 28.0006504,75.0837404 C27.9301675,76.0213862 27.9629271,77.0258642 28.0185193,78.0293447 C28.0701406,79.0318277 28.1713978,80.0313182 28.2954874,80.9460216 C28.3758975,81.4008795 28.3897956,81.84676 28.4354605,82.2587257 C28.4860891,82.6696938 28.5684847,83.0467471 28.686618,83.3779156 C28.7432029,83.6841468 28.8246057,84.1180573 28.9685497,84.8911163 C28.837511,85.3559493 30.048626,85.5913582 32.5175138,85.7778899 C34.924853,85.9524516 37.2130662,86.0212788 39.5707696,85.9943464 C44.2544095,85.9424766 48.9479765,85.524526 53.6395581,84.9140587 C62.9045879,83.7948688 72.1716032,81.9155872 81.3443103,80.6447779 C82.3926197,79.406886 81.8704504,76.947062 81.8664795,74.4802556" id="Fill-4" fill="#FFC107"></path>
        <path d="M16.9308198,54.3318338 C17.1008181,54.4431695 17.2708163,54.5545052 17.4408145,54.6101731 C18.7421106,55.2771932 19.7621001,56.1678788 20.8377438,57.0565762 C22.3657042,58.3916105 23.4413478,60.1153257 24.0069968,62.2287158 C24.3469933,63.6750858 24.1203289,65.2874653 23.1590293,66.9555126 C22.874687,67.5121911 22.5357024,68.1235434 22.0823738,68.624554 C21.9133874,68.8462313 21.630057,69.1802384 21.3467266,69.4029098 C20.2710829,70.403937 19.0821071,71.0709571 17.780811,71.5719678 C17.1574841,71.9049808 16.478503,71.9616427 15.8551761,71.9049808 C15.3461933,71.9049808 14.8938765,71.9616427 14.3838818,72.2389879 C13.9305532,72.4616593 13.5349025,72.5720009 13.0249077,72.7399985 C11.8369438,73.0173437 10.8169543,73.0730116 9.79797676,72.906008 C8.27001634,72.6833366 6.798722,72.2389879 5.83539861,71.2379607 C4.98641928,70.3482692 4.75975495,69.1802384 5.26974969,67.6235268 C5.66540036,66.6781674 6.1753951,65.7328081 6.91205416,64.7864546 C7.53436917,63.8967631 8.27001634,63.0070716 9.17566175,62.2287158 C9.34566,62.1173801 9.45899216,61.8957028 9.57232433,61.7277052 C10.0246411,60.8936815 10.2513054,60.726678 11.1002847,60.8390077 C11.4402812,60.726678 11.6669456,60.2266614 12.1192623,60.3936649 C11.8936099,60.5050006 11.7225998,60.6163363 11.3836152,60.7833399 C11.6669456,60.8390077 11.8369438,60.8936815 11.950276,60.8936815 C11.950276,61.1720207 11.950276,61.3946921 12.0059302,61.6730314 C12.0625962,61.8400349 12.0059302,62.0060444 11.8369438,62.2287158 C11.4969473,62.6740586 11.2136169,63.1184073 10.8169543,63.619418 C10.2513054,64.3421059 9.85565474,65.009126 9.74232257,65.8441438 C9.62899041,66.3441603 9.62899041,66.7895031 9.57232433,67.3451875 C9.51565824,67.7348625 9.6846446,68.0132017 10.0813072,68.1235434 C10.5346358,68.2905469 11.1002847,68.3452207 11.6669456,68.2348791 C12.6849112,68.0678755 13.7605549,67.8452041 14.7805444,67.4008554 C15.799522,66.9555126 16.8751656,66.5658377 17.8931313,66.0658211 C18.6297904,65.7328081 19.4221036,65.2874653 20.1010847,64.676113 C20.6110794,64.2864381 20.7800658,63.8420893 20.6110794,63.5080823 C20.2144169,62.2287158 19.7044221,61.117347 18.6297904,60.2823292 C16.8751656,58.8916271 14.8361986,57.6679285 12.7992553,56.5008918 C11.5536134,55.7782038 10.4213037,54.999848 9.34566,54.1091624 C8.10001809,53.1647971 7.19437268,51.9410985 6.51539159,50.6617321 C5.2130836,48.548342 6.40205943,45.656596 8.21335026,43.4875381 C9.85565474,41.4854836 12.0625962,40.1514434 14.3272157,38.9277448 C15.0072087,38.6494056 15.6861898,38.482402 16.3085048,38.2050568 C19.7621001,36.9813582 22.9880192,36.8700225 26.101618,37.0916999 C27.0639295,37.2030356 27.9705868,37.3710332 28.9328983,37.4813748 C29.950864,37.5927105 30.9141874,37.8153819 31.6498346,38.3720604 C31.9321531,38.5937377 32.1021513,38.8164091 31.9321531,39.2607578 C31.8764989,39.3720935 31.8764989,39.5390971 31.8764989,39.6504328 C31.8198328,39.928772 31.8198328,40.2061172 31.7065006,40.4844564 C31.253172,41.4298158 30.9141874,42.3751751 30.8575213,43.3205345 C30.8008552,43.7102095 30.5175248,44.2658939 30.2341944,44.7112367 C30.008542,45.1555854 29.6685455,45.4895925 29.4418812,45.8792674 C29.2152168,46.2689424 28.9328983,46.5462875 28.5362357,46.7689589 C27.9129088,47.0472982 27.403926,47.3246433 26.781611,47.4916469 C26.4416145,47.6586504 26.101618,47.6586504 25.8759656,47.4916469 C25.0259743,47.1586339 24.1203289,46.9906363 23.2146835,46.8802946 C21.4033927,46.6576232 19.5921019,46.379284 17.6108128,46.4349518 C17.044152,46.4906197 16.421837,46.5462875 15.8551761,46.7132911 C15.1761951,46.8246268 14.5538801,46.9906363 13.9305532,47.101972 C9.85565474,48.1039932 12.2325945,50.9947451 14.2705496,52.4411151 C15.1761951,52.9967995 16.0818405,53.6648137 16.9308198,54.3318338" id="Fill-5" fill="#000000"></path>
        <path d="M37.0474903,60.6381464 C36.9919205,60.5820503 36.8252108,60.5820503 36.769641,60.7533985 C36.7140711,60.7533985 36.7140711,60.8094946 36.7140711,60.8666107 C36.4917916,61.4377714 36.2149345,61.7804678 35.7148056,61.6652158 C35.4379485,61.9507961 35.3258164,62.2363765 35.1045292,62.4638208 C34.8822497,62.5790729 34.6044003,62.8075372 34.5488304,63.2063297 C34.5488304,63.3205619 34.4932606,63.377678 34.4376907,63.4919101 C34.1598413,63.8907027 33.8829842,64.176283 33.6607047,64.5189795 C33.4384252,65.0901402 33.0504284,65.4318167 32.6614392,65.7745131 C32.4947296,66.0019574 32.2168802,66.1743256 32.0511629,66.5731182 C32.0511629,66.6292143 31.9400231,66.8005625 31.7733135,66.8005625 C31.4954641,66.8586985 31.218607,67.0861429 30.9407576,67.3146071 C30.3294889,67.6573036 29.7192126,67.941864 29.0533664,68 C28.4420977,68 27.8873912,67.941864 27.3326848,67.6573036 C26.444559,67.1432589 26.1111398,66.1743256 26,64.9187919 C26,64.6332116 26,64.3476312 26.1111398,64.0620509 C26.2212872,62.2934925 26.5547065,60.5249342 26.9992655,58.7553559 C27.2761226,57.7864226 27.6095418,56.9296815 27.9429611,56.0739604 C28.6643772,54.5338663 29.2756459,52.8795401 29.997062,51.3384261 C29.997062,51.1670779 30.0526319,51.1099618 30.1082017,50.9386136 C30.4406287,49.6269838 31.1064749,48.3714502 31.7733135,47.1730326 C31.995593,46.8303362 32.1067327,46.4876398 32.3280199,46.0317312 C32.6058693,45.9746151 32.8837187,45.9746151 33.1050059,46.2030794 C33.7162746,46.6028919 34.3265509,47.0588005 34.9933895,47.458613 C35.1045292,47.5157291 35.2712389,47.6289413 35.2712389,47.7431734 C35.6592357,48.5988946 36.1593646,49.3974996 36.3806518,50.3684728 C36.4917916,50.9386136 36.5473614,51.4526583 36.6585012,52.022799 C36.769641,52.6510758 36.7140711,53.3354487 36.4362217,53.9055895 C36.2149345,54.3625181 36.1037947,54.8755428 35.8815152,55.3324714 C35.8259453,55.6180517 35.7148056,55.9026122 35.6592357,56.1881925 C35.3258164,57.329494 34.9933895,58.4697756 34.4932606,59.612097 C34.4932606,59.612097 34.4376907,59.6692131 34.4376907,59.7253092 C34.4376907,59.7253092 34.4376907,59.7834452 34.3265509,59.8976773 C34.2709811,60.2964699 34.1598413,60.7533985 33.9385541,61.2093071 C34.0496939,61.152191 34.1598413,61.152191 34.2164035,61.095075 C34.77111,60.4678181 35.3813863,59.7253092 35.9370851,59.0409363 C36.9353583,57.8996348 37.8244763,56.7593532 38.7681719,55.6180517 C39.1571611,55.1611232 39.4895881,54.8184267 39.8230073,54.305402 C40.8778427,52.8214041 42.0438178,51.5087544 43.209793,50.1971246 C43.4310802,49.9686603 43.6533597,49.7973121 43.8200693,49.7401961 C44.3192059,49.5127517 44.8193348,49.4556356 45.2073316,49.5127517 C45.4296112,49.6269838 45.5963208,49.68308 45.7074606,49.7973121 C46.1510273,50.2542407 46.5400164,50.7682853 46.9845754,51.1670779 C47.2624248,51.3955422 47.4281422,51.7372187 47.5948518,52.1941473 C47.7059915,52.5939597 47.8171313,52.9356362 47.8727012,53.3925648 C47.9838409,53.9637255 47.9838409,54.5338663 47.8171313,55.1611232 C47.4281422,56.4727529 47.0947229,57.6721904 46.5955863,58.8695881 C46.4844465,59.3836327 46.262167,59.8976773 46.1510273,60.5249342 C46.3187292,60.4678181 46.4844465,60.353586 46.5400164,60.2964699 C47.6504217,59.6692131 48.6496872,58.7553559 49.5933828,57.7282866 C50.4815085,56.8725654 51.4252041,56.0739604 52.4244696,55.5038196 C52.5911793,55.4467035 52.702319,55.3324714 52.8690287,55.1611232 C53.2014556,54.8755428 53.479305,54.9336788 53.7015845,55.1611232 C53.9794339,55.3885675 54.0905737,55.78838 54.4785705,55.9607482 C54.7564199,56.0739604 54.9221372,56.3595407 55.1444167,56.6441011 C55.0898392,57.1581458 55.0898392,57.6150744 55.1444167,58.070983 C55.1444167,58.4697756 55.0342693,58.8695881 54.8675597,59.3265166 C54.5341404,59.4978648 54.7564199,59.9537735 54.5341404,60.2393538 C54.4785705,60.9247467 54.3674308,61.6091196 54.256291,62.2363765 C54.2007211,62.8646532 54.2007211,63.434794 54.256291,64.0620509 C54.256291,64.4618634 54.3674308,64.6332116 54.6452801,64.7464238 C55.477836,64.9187919 58.3644927,62.8075372 58.9201915,62.0650283 C59.919457,60.9247467 60.7510206,59.612097 61.5289989,58.2423312 C61.5845687,57.9567509 61.6957085,57.6721904 61.8624181,57.4998223 C61.9725656,57.6721904 62.0291278,57.6721904 61.9725656,57.7282866 C61.8058559,58.5850276 62.0846977,58.070983 61.9725656,59.0409363 C61.9725656,58.812472 61.6957085,60.0108896 61.5289989,59.8976773 C61.4178591,59.8976773 61.4178591,60.0680056 61.3067194,60.1822378 C60.9742924,60.8094946 60.6408731,61.3806553 60.3630237,62.0650283 C60.3630237,62.2934925 60.1963141,62.4638208 60.1407442,62.5790729 C59.6416076,62.9207494 59.3081884,63.3205619 58.9201915,63.7193545 C58.9201915,63.8907027 58.7534819,63.9478187 58.6423421,64.0049348 C58.3644927,64.6332116 56.0335348,66.3446539 55.4222661,66.3446539 C55.1444167,66.3446539 53.8127243,66.2304217 53.5348749,66.0019574 C52.9801684,65.4889327 52.0910504,64.8616759 51.7586234,64.0620509 C51.480774,63.377678 51.480774,62.5219568 51.7030535,61.6652158 C51.9809029,60.2393538 52.3133299,58.8695881 52.8134588,57.4998223 C52.8690287,57.329494 52.9245985,57.1010297 52.9245985,56.9296815 C52.9801684,56.8154494 52.9245985,56.7593532 52.9245985,56.588005 C52.5911793,56.6441011 52.3688998,57.0439136 52.0910504,57.1010297 C51.8141933,57.2152619 51.5363439,57.329494 51.3140644,57.4998223 C51.2594868,58.070983 51.2594868,58.070983 50.9260676,58.5850276 C50.703788,58.812472 50.5926483,59.0990723 50.3703688,59.3836327 C50.0935117,59.2122845 49.8156623,59.3836327 49.5378129,59.612097 C49.0932539,60.0108896 48.705257,60.353586 48.2051281,60.7533985 C48.0939884,60.8666107 47.9272787,60.9247467 47.8171313,61.152191 C47.3170024,61.7804678 46.706726,62.2363765 46.0408798,62.7504211 C45.9853099,62.8646532 45.8741702,62.8646532 45.7630304,63.0360015 C45.4296112,63.7193545 44.7637649,64.0620509 44.263636,64.6332116 C44.0979187,64.8616759 43.9312091,65.0901402 43.7089296,65.3175845 C42.8208038,66.0590735 41.8215383,66.3446539 40.8778427,66.2304217 C40.4332837,66.1743256 40.0452868,65.8887452 39.7118676,65.4889327 C39.3228784,65.0901402 39.1571611,64.5760955 39.2117387,63.7764705 C39.2117387,63.1492137 39.3228784,62.5790729 39.5451579,61.9507961 C40.4332837,59.0990723 41.7659684,56.588005 43.3755103,54.1911699 C43.7644994,53.4496809 44.263636,52.764288 44.6526252,51.965683 C44.8749047,51.7372187 45.040622,51.4526583 44.9304746,51.1099618 C44.7637649,50.9386136 44.5414854,50.9386136 44.3192059,51.1670779 C44.2090585,51.3384261 44.0423488,51.4526583 43.8200693,51.6240065 C43.2643705,52.1941473 42.7096641,52.764288 42.1549576,53.2212166 C41.8215383,53.6210291 41.5436889,53.9637255 41.3214094,54.4767502 C41.0445523,55.1611232 40.7111331,55.7322839 40.266574,56.2453086 C39.7674374,56.7593532 39.3228784,57.2152619 38.9904515,57.7864226 C38.6570322,58.2423312 38.4347527,58.7553559 38.1569033,59.2122845 C38.0457635,59.4978648 37.8244763,59.8976773 37.6577667,60.1822378 C37.5466269,60.353586 37.3799173,60.5820503 37.2687775,60.7533985 C37.2142,60.7533985 37.1030602,60.6381464 37.0474903,60.6381464" id="Fill-6" fill="#000000"></path>
        <path d="M66.6724082,47.5353897 C66.5632109,47.7015114 66.4549886,47.8122592 66.40039,48.032766 C66.40039,48.0891287 66.40039,48.1998765 66.2911927,48.3096355 C66.1273968,48.4757572 65.9636009,48.6972528 65.7461813,48.9731335 C65.6369841,49.140244 65.200195,49.3617396 64.9272018,49.4161247 C64.8180045,49.3617396 64.6542086,49.4714986 64.5459864,49.5832352 C64.2183945,49.803742 64.000975,49.7483681 63.7816055,49.6376203 C63.6178096,49.5268725 63.5095873,49.5268725 63.3457914,49.5268725 C63.1273968,49.5268725 62.9636009,49.5268725 62.7452064,49.4714986 C62.80078,49.4161247 62.8544036,49.3063657 62.9090023,49.250003 C62.9090023,49.0848701 63.0181995,48.9187484 63.0727982,48.6972528 C63.1819955,48.4203833 63.2911927,48.2542616 63.4549886,47.9783809 C63.4549886,47.8676331 63.6178096,47.7568853 63.6178096,47.7015114 C63.6178096,47.369268 63.8908027,47.0933873 64.0545986,46.7611439 C64.1637959,46.5950222 64.2729932,46.4289005 64.3821904,46.2627788 C64.4913877,46.1530198 64.59961,46.042272 64.7097823,46.042272 C64.8180045,45.9859093 64.9272018,45.9859093 64.9818005,46.042272 C64.9818005,46.1530198 65.0909977,46.1530198 65.200195,46.0976459 C65.3093923,46.042272 65.3630159,45.9859093 65.4185895,46.042272 C65.6369841,46.1530198 65.9090023,46.2083937 66.1273968,46.2627788 C66.5095873,46.4289005 66.7825804,46.70577 67,47.0933873 C66.8362041,47.2585202 66.7825804,47.4256307 66.6724082,47.5353897 Z M61.6551836,53.5652119 C61.6551836,53.5652119 61.6551836,53.5652119 61.7088073,53.509838 C61.8726032,53.2883424 61.9818005,53.2329685 62.1455964,53.1232095 C62.7452064,53.0114729 64.1091973,52.0167203 64.6542086,52.3479749 C64.8180045,52.5694705 65.3630159,52.84634 65.5823854,53.0678356 C65.799805,53.3437163 65.8544036,53.7313336 65.6906077,54.2840838 C65.3630159,55.0039445 64.9818005,55.6674425 64.5459864,56.5524361 C64.4367891,56.8836906 64.3275918,57.161549 64.2729932,57.3820557 C64.0545986,57.879432 63.8362041,58.5439188 63.5641859,59.0422839 C63.3457914,59.7057819 64.3275918,57.6035514 64.2183945,58.1572904 C64.2183945,58.3224232 64.1091973,58.4885449 64.0545986,58.5992927 C63.6178096,59.7057819 63.6178096,59.4842863 63.5641859,60.4800277 C63.5641859,61.0337667 63.3457914,63.8548692 63.40039,64.3522454 C63.4549886,64.7398627 63.6733832,64.9603695 63.8362041,65.1818651 C64.0545986,65.2926129 64.3275918,65.5141085 64.6542086,65.6248563 C64.9272018,65.8463519 65.200195,65.7356041 65.5268118,65.6792414 C70.0545986,64.0209909 68.4185895,63.411878 71.0363991,60.5907755 C71.5268118,59.8709148 72.1273968,59.2074168 72.40039,58.3224232 C72.40039,58.2670493 72.40039,58.2670493 72.5632109,57.9911687 C72.8362041,58.5439188 72.2365941,59.3181646 73,59.4842863 C71.8544036,61.5865169 71.0363991,64.6291149 69.1819955,65.7356041 C68.6360091,66.454476 64.9272018,69.7739436 62.5277868,68.8335761 C61.7643809,69.1104456 61.0545986,68.335211 60.2365941,68.0029676 C59.6915827,67.7824608 59.1455964,67.3394696 58.6551836,66.7867194 C58.3821904,66.0678475 58.1091973,65.2926129 58.1091973,64.573741 C58,64.2414976 58,63.8548692 58,63.5779997 C58.1637959,62.9145017 58.0545986,61.6418908 58.2729932,61.1998884 C58.3275918,60.9220301 58.4367891,60.6461494 58.4367891,60.313906 C58.5459864,60.2585321 58.4367891,59.9826514 58.8189795,59.9272775 C58.8726032,59.9272775 58.9272018,59.7057819 58.9818005,59.650408 C59.2547936,59.2637795 59.3093923,58.9315361 59.5823854,58.5439188 C59.5823854,58.5439188 58.4367891,59.7057819 59.0909977,58.5992927 C59.5277868,57.4928035 60.5095873,56.2755666 60.8362041,55.5013208 C60.8362041,55.3915618 60.9454014,55.2254401 60.9454014,55.2254401 C61.1091973,54.8931967 61.2729932,54.6717011 61.1637959,54.2840838 C61.1091973,54.0625882 61.1637959,53.8420814 61.3275918,53.509838 C61.4367891,53.5652119 61.4913877,53.6205858 61.6551836,53.5652119 L61.6551836,53.5652119 Z" id="Fill-7" fill="#000000"></path>
        <path d="M79.2684101,50.2738737 C81.044471,47.4231215 81.3222906,46.9754744 82.932652,43.9008986 C83.5428628,42.7268244 84.0419459,41.5537493 84.6531489,40.379675 C84.9299763,39.541336 85.096668,38.702997 85.2077959,37.8636588 C85.3189237,37.5848786 85.3189237,37.417011 85.0411041,37.5289228 C84.7632845,37.5848786 84.597585,37.6957912 84.4308933,37.807703 C83.7085624,38.0874824 83.0427876,38.646042 82.5437045,39.4284251 C82.1547571,39.8760721 81.8779298,40.379675 81.4334184,40.8263229 C80.9333432,41.4418375 80.6565158,42.056353 80.4342602,42.7837795 C80.1564406,43.3423391 79.878621,44.0128104 79.6017936,44.5723692 C79.2128462,45.7454443 78.6572071,46.9195185 78.1025601,48.0935928 C77.8803044,48.6531516 77.7146049,49.2676671 77.4923492,49.8262267 C76.8265745,51.7267282 77.1034018,50.7764774 76.493191,52.676979 C76.3264992,53.124626 76.4376271,54.410612 77.1589657,53.6272297 C77.9924245,52.3971996 78.5470714,51.5598598 79.2684101,50.2738737 Z M88.1497068,60.3359401 C87.8728794,60.8944997 86.9282929,62.1245298 86.9282929,62.7400445 C86.8727289,62.7950012 86.7070294,62.9628688 86.5949094,63.0188247 C86.4292098,63.1866923 86.2625181,63.4095167 86.1513902,63.6892961 C86.0402624,63.9690755 85.8735707,64.0809872 85.763435,64.3048107 C84.9855402,65.7017093 84.485465,66.4850917 83.2094793,67.7151218 C82.8760958,67.993902 79.9341849,70.8446543 79.7129215,71.1244337 C78.1025601,72.4663756 75.9375518,71.8508609 74.3281827,71.9068168 C73.8836713,71.9068168 73.4401522,71.8508609 73.1623326,71.6839925 C72.6622574,71.4042131 71.5529635,70.956566 71.21958,70.4539623 C70.720497,69.2239322 69.4435191,68.3855932 69.3323913,66.6519601 C69.2768274,66.2053122 69.0545717,65.9255328 69,65.4778858 C69.0545717,63.6892961 69.3323913,61.9007063 69.5546469,60.0561607 C69.8880304,58.7701746 70.1648578,57.3732761 70.3871135,56.08729 C70.9417604,53.6831856 71.1094444,53.4044054 72.1631744,51.2241245 C72.7188135,49.7702708 73.2178966,49.6583591 73.7735357,48.2055046 C74.1614909,47.4231215 74.60501,46.6407384 75.0495214,45.9692678 C75.3829049,45.1309288 75.9375518,44.3485457 76.4376271,43.5092075 C77.4923492,41.6646619 78.6572071,40.0439397 79.878621,38.702997 C80.7110875,37.8636588 81.6001102,36.969364 82.4325767,36.2429367 C82.932652,35.8512456 83.431735,35.4045977 83.930818,35.2367301 C84.0975098,35.1248183 84.2642015,35.0688625 84.4308933,35.0129066 C85.2077959,34.9569507 85.9301268,35.0688625 86.4847737,35.6284213 C87.0394207,36.1320242 87.2061124,36.9144073 87.0394207,37.9755706 C86.9282929,38.646042 86.8727289,39.3175125 86.7070294,39.932028 C86.6514655,40.4346317 86.4292098,40.8822787 86.1513902,41.4418375 C85.763435,42.3920883 85.3189237,43.2863832 84.7087128,44.180678 C84.3197654,44.9071053 83.8752541,45.6345317 83.4872989,46.360959 C82.8205319,47.3661664 82.265885,48.4293281 81.6001102,49.3785796 C80.4342602,50.9443451 79.4351019,52.6210231 78.3803797,54.1867885 C76.6588905,57.1494525 76.8265745,57.6530555 76.2153714,60.6147203 C75.9931157,61.7887945 76.1042436,62.4602651 76.0496719,63.6333402 C76.1042436,63.9690755 76.2709353,66.1493564 76.3264992,66.3731799 C76.493191,67.155563 76.6588905,67.4353424 76.992274,68.1617696 C77.1034018,68.3855932 77.8803044,68.5524616 78.158124,68.6653726 C78.5470714,68.9441528 81.4889824,66.9317395 81.8779298,66.6519601 C82.7659602,66.1493564 83.4872989,65.3110174 84.2642015,64.5286343 C85.096668,63.7452519 85.4856155,62.8509571 86.2069542,61.7887945 C87.2061124,60.4478518 87.5394959,59.3287342 88.5942181,57.8758798 C89.3711207,57.763968 88.9266094,58.9380423 88.1497068,60.3359401 L88.1497068,60.3359401 Z" id="Fill-8" fill="#000000"></path>
        <path d="M92.8472176,54.7815705 C92.7365822,54.9507587 92.5716167,55.1776937 92.4599934,55.4046287 C92.2397102,55.8017649 92.295028,56.0844206 92.5716167,56.2546218 C92.7365822,56.3680893 92.9578531,56.4805437 93.0684886,56.650745 C93.4003951,57.0478812 93.8419493,56.9911475 94.2844913,56.9344137 C94.6717155,56.8209462 94.9483042,56.4248231 95.1685874,56.0276868 C95.5558117,55.0642262 95.7760948,54.8940249 96.1080013,53.9305643 C96.9920975,51.7767079 95.2239052,52.2873117 94.3951268,52.9671036 C93.7876194,53.4199605 93.3450774,54.1574993 92.8472176,54.7815705 Z M89.807705,60.7325357 C89.807705,60.7882564 89.807705,60.7882564 89.807705,60.8460032 C89.807705,60.7882564 89.807705,60.7882564 89.807705,60.7325357 Z M85.8840961,59.315205 C85.6084952,60.221932 85.663813,61.0719251 85.7734607,61.9219183 C85.7734607,61.978652 85.8297662,61.978652 85.8840961,62.0353858 C85.9394139,61.4123276 85.9957195,60.8460032 86.0500494,60.2786657 C86.1053671,59.8815294 86.1606849,59.4854063 85.9957195,59.1450038 C85.9394139,59.2017375 85.8840961,59.2584713 85.8840961,59.315205 Z M85.8840961,62.9421127 C85.9394139,63.1123139 85.9957195,63.2257814 86.0500494,63.3959827 C86.0500494,63.5651708 86.2160026,63.6786383 86.1053671,63.9055733 C86.0500494,63.8488396 85.9957195,63.8488396 85.9957195,63.7921058 C85.7191307,63.2257814 85.6084952,62.4892558 85.4978597,61.751717 C85.442542,61.6949833 85.4978597,61.6392626 85.4978597,61.5825289 C85.4978597,60.7325357 85.4978597,59.9382632 85.7191307,59.08827 C85.7734607,58.9190819 85.8297662,58.7488806 85.8297662,58.5776663 C85.8297662,58.4652119 85.8297662,58.4084781 85.8297662,58.1815431 C85.663813,58.5219456 85.5531775,58.7488806 85.4978597,58.9748025 C85.442542,59.2584713 85.3872242,59.4854063 85.3319065,59.7680619 C85.1106355,61.2421264 85.1659532,62.6027233 85.7734607,63.7921058 C85.8840961,64.0190408 86.0500494,64.1892421 86.2160026,64.4161771 C86.3266381,64.5286315 86.4372736,64.5853652 86.6032269,64.6431121 C86.6032269,64.6998458 86.6575568,64.6431121 86.7681923,64.6431121 C86.6032269,64.3594433 86.4372736,64.1325083 86.3266381,63.8488396 C86.1606849,63.5084371 86.1606849,63.1690477 85.9957195,62.8853789 C85.9394139,62.8853789 85.8840961,62.9421127 85.8840961,62.9421127 Z M91.1343431,57.8411406 C91.1343431,57.9546081 91.0237076,58.0680756 90.9140599,58.1237963 C90.8577544,58.1815431 90.7481067,58.2382769 90.7481067,58.4084781 C90.6918011,58.6344 90.6374712,58.6911338 90.4715179,58.7488806 C90.3608824,58.8046013 90.3608824,58.861335 90.3055647,59.2017375 C90.4162002,59.2017375 90.4715179,59.2017375 90.5268357,59.2584713 C90.5268357,59.2584713 90.5268357,59.2584713 90.5268357,59.315205 C90.4162002,59.315205 90.3055647,59.315205 90.1396115,59.315205 C90.1949292,59.1450038 90.1949292,58.9748025 90.1949292,58.861335 C90.1396115,58.861335 90.0842937,58.861335 90.0842937,58.861335 C90.0299638,59.2584713 89.9736582,59.6545944 89.9183405,60.0517307 C90.0299638,60.1084645 90.0842937,60.1651982 90.1396115,60.1651982 C90.1949292,60.5623345 90.1949292,60.9017239 90.1949292,61.2988601 C90.1949292,61.6949833 90.3055647,62.0353858 90.4162002,62.3190545 C90.5821534,62.5459895 91.0237076,63.7921058 91.1896608,64.0190408 C91.9631215,64.8123002 92.9025354,65.8324946 93.7876194,65.8892284 C94.0632203,65.9469752 95.6664472,65.6633065 95.9420481,65.6055596 C97.2686862,65.2094365 98.5390188,64.4729108 99.7550214,63.5084371 C100.694435,62.7719114 101.578531,61.9219183 102.518933,61.1286589 C102.573263,61.0719251 102.628581,61.0151914 102.683899,60.9584576 C103.015805,60.5623345 103.346724,60.221932 103.67863,59.8247957 C104.287125,59.2017375 104.839315,58.5776663 105.337175,57.8411406 C105.503128,57.5574719 105.669081,57.2748162 106,57.1613487 C105.889365,57.6719525 105.778729,58.1237963 105.558446,58.5776663 C105.503128,58.7488806 105.392493,58.9190819 105.281857,59.0315363 C104.949951,59.4286725 104.673362,59.7680619 104.453079,60.221932 C104.287125,60.4478539 104.065854,60.6747889 103.899901,60.9017239 C103.844583,60.9584576 103.789266,61.0719251 103.67863,61.2421264 C103.844583,61.1853926 103.955219,61.1286589 104.121172,61.0719251 C104.065854,61.4123276 103.789266,61.4680483 103.733948,61.751717 C103.789266,61.8094639 103.789266,61.8651845 103.899901,61.9219183 C103.733948,62.205587 103.568983,62.3757883 103.346724,62.6027233 C103.015805,62.8853789 102.683899,63.2257814 102.408298,63.5651708 C101.910438,64.1325083 101.358248,64.5853652 100.805071,65.0392352 C100.528482,65.2661702 100.308199,65.4931052 100.03161,65.6633065 C99.8103392,65.8324946 99.590056,65.9469752 99.368785,66.1161634 C99.0368785,66.2863646 98.7059598,66.4565659 98.3740533,66.6835009 C97.8208759,67.0228903 97.2133685,67.3065591 96.605861,67.4200266 C96.4399078,67.4767603 96.2739546,67.5334941 96.1080013,67.5902278 C95.4451762,67.8161497 94.782351,67.9296172 94.118538,67.986351 C93.3450774,68.0998185 90.0842937,67.4767603 89.3661508,67.1930916 C87.4320053,66.398819 87.044781,65.4363715 86.1606849,64.6431121 C85.8297662,64.3594433 85.5531775,63.9055733 85.3872242,63.4527164 C85.1106355,62.7151777 85.0553177,61.9219183 85,61.0719251 C85,59.315205 85.442542,57.6152187 86.1606849,56.0276868 C86.3266381,55.6872843 86.3266381,55.6872843 86.2713204,55.1776937 C85.9957195,55.3478949 85.8297662,55.4613624 85.7191307,55.8017649 C85.5531775,56.3103425 85.3319065,56.7642125 85.0553177,57.2748162 C85.0553177,56.7642125 85.2765887,56.4248231 85.442542,56.0276868 C85.8840961,55.0074924 86.3819559,54.0440318 86.9894633,53.1373049 C87.5979585,52.1738442 88.2607837,51.323851 89.0342443,50.5295785 C89.807705,49.6795854 90.6374712,48.9430597 91.5215673,48.3767353 C91.7418505,48.2632678 91.9078038,48.205521 92.073757,48.0930666 C92.3503457,47.9795991 92.6269345,47.9228653 92.7918999,48.205521 C92.9578531,48.3767353 93.1791241,48.3200016 93.2897596,48.4334691 C93.4557129,48.5469366 93.5100428,48.7728585 93.6206783,48.886326 C94.1738558,49.1699947 96.2739546,49.7363191 96.7708265,50.0767216 C96.9367797,50.1901891 97.0474152,50.4171241 97.1580507,50.6440591 C97.4346394,51.1536498 97.6549226,51.7209873 98.0421469,52.0603767 C98.1527824,52.1738442 98.2081001,52.4007792 98.2634178,52.5699673 C98.3740533,53.2507724 98.4283833,53.8738305 98.2634178,54.6113693 C98.1527824,55.4046287 97.8208759,56.1411543 97.4346394,56.8209462 C97.2133685,57.2180825 96.9920975,57.5574719 96.8261442,58.0113419 C96.7164965,58.4084781 96.4942377,58.7488806 96.2739546,59.1450038 C96.0526836,59.5988738 95.6664472,59.8815294 95.2792229,59.994997 C94.9483042,60.1651982 94.56108,60.221932 94.2291735,60.1651982 C94.0632203,60.1084645 93.8982549,60.1651982 93.7876194,59.9382632 C93.7876194,59.8815294 93.7323016,59.8815294 93.7323016,59.8815294 C93.2897596,59.9382632 93.0141587,59.4286725 92.6822522,59.2584713 C92.6269345,59.2017375 92.5716167,59.0315363 92.5716167,58.9748025 C92.6822522,58.7488806 92.5716167,58.6344 92.516299,58.4652119 C92.295028,58.0113419 92.073757,57.5017512 91.7981561,57.0478812 C91.7418505,56.87768 91.5758973,56.8209462 91.4109318,56.9911475 C91.3556141,57.2748162 91.1343431,57.5017512 91.1343431,57.8411406 L91.1343431,57.8411406 Z" id="Fill-9" fill="#000000"></path>
    </g>
</svg>