<?xml version="1.0" encoding="UTF-8"?>
<svg width="110px" height="110px" viewBox="0 0 110 110" version="1.1" xmlns="http://www.w3.org/2000/svg" xmlns:xlink="http://www.w3.org/1999/xlink">
    <!-- Generator: Sketch 64 (93537) - https://sketch.com -->
    <title>Artboard</title>
    <desc>Created with Sketch.</desc>
    <g id="Artboard" stroke="none" stroke-width="1" fill="none" fill-rule="evenodd">
        <path d="M48.0925,43.53975 L48.0925,43.70875 C47.2495,43.70875 45.9635,44.36175 44.4245,48.07175 L40.7355,58.38075 L39.9765,58.38075 C38.0165,53.80575 36.7515,50.85475 35.9085,48.93675 L32.5355,58.38075 L31.7765,58.38075 C26.4635,45.96375 26.1905,45.41575 26.1905,45.41575 C25.4735,43.72975 25.1785,43.75075 24.6305,43.70875 L24.6305,43.53975 L31.2075,43.53975 L31.2075,43.70875 C29.8585,43.70875 30.9325,46.15375 30.9325,46.15375 L34.1165,53.38375 L35.8025,48.68375 C34.5165,45.68975 34.3905,45.41575 34.3905,45.41575 C33.6735,43.72975 33.3775,43.75075 32.8305,43.70875 L32.8305,43.53975 L39.4085,43.53975 L39.4085,43.70875 C38.0575,43.70875 39.1335,46.15375 39.1335,46.15375 L42.2945,53.40575 L44.1925,48.07175 C44.7195,46.57575 44.2555,43.70875 42.1065,43.70875 L42.1065,43.53975 L48.0925,43.53975" id="Fill-446" fill="#000000"></path>
        <path d="M60.1495,58.21175 L60.1495,58.38075 L54.8785,58.38075 L54.8785,58.21175 C55.6805,57.98075 55.7225,57.05275 55.7225,55.97775 L55.7225,51.76075 C55.7225,50.55975 55.2805,49.96975 54.2685,49.99075 C53.7615,49.99075 53.2355,50.41175 52.9615,50.89675 L52.9615,55.99775 C52.9615,57.15675 53.0665,58.00075 53.8265,58.21175 L53.8265,58.38075 L48.5555,58.38075 L48.5555,58.21175 C49.3565,57.98075 49.3775,57.07275 49.3775,55.99775 L49.3775,45.05775 C49.3775,44.31975 49.1255,44.02475 48.2605,43.70875 L48.2605,43.53975 L52.9615,42.65475 L52.9615,50.60175 C53.4665,49.42075 54.6265,48.45175 55.8285,48.45175 C57.5145,48.45175 59.2855,49.14675 59.2855,51.67675 L59.2855,55.97775 C59.2855,57.13675 59.4115,58.02275 60.1495,58.21175" id="Fill-447" fill="#000000"></path>
        <path d="M61.7305,45.90075 C61.7305,44.78375 62.6165,43.89775 63.7335,43.89775 C64.8505,43.89775 65.7565,44.78375 65.7565,45.90075 C65.7565,47.01775 64.8505,47.90375 63.7335,47.90375 C62.6165,47.90375 61.7305,47.01775 61.7305,45.90075 Z M66.6215,58.21175 L66.6215,58.38075 L61.3515,58.38075 L61.3515,58.21175 C62.1525,57.98075 62.1725,57.07275 62.1725,55.99775 L62.1725,50.85475 C62.1725,50.11675 61.9415,49.82175 61.0775,49.50575 L61.0775,49.33675 L65.7565,48.45175 L65.7565,55.99775 C65.7565,57.15675 65.8625,58.00075 66.6215,58.21175 L66.6215,58.21175 Z" id="Fill-448" fill="#000000"></path>
        <path d="M75.4325,56.39875 L75.5585,56.48275 C75.3055,57.60075 74.0835,58.56975 72.5225,58.56975 C70.8575,58.56975 68.9605,57.89575 68.9605,55.34475 L68.9605,48.83075 L67.6325,48.83075 L67.6325,48.64175 L68.9605,48.64175 L68.9605,45.81575 L72.5015,45.37375 L72.5015,48.64175 L75.2205,48.64175 L75.2205,48.83075 L72.5015,48.83075 L72.5015,55.28175 C72.5015,56.46175 72.9235,57.03075 74.1465,57.03075 C74.7575,57.03075 75.1795,56.69375 75.4325,56.39875" id="Fill-449" fill="#000000"></path>
        <path d="M83.2095,53.10975 C83.2095,50.45475 82.9355,48.64175 81.9875,48.64175 C81.0175,48.64175 80.5335,51.08675 80.5335,53.10975 L83.2095,53.10975 Z M86.2665,53.29975 L80.5335,53.29975 C80.5335,56.50475 81.5445,57.34775 82.9575,57.66375 C84.0115,57.89575 85.4235,57.26375 85.8455,55.47175 L86.0355,55.51375 C85.7605,57.07275 84.2215,58.56975 81.5865,58.56975 C78.8255,58.56975 76.5905,56.37775 76.5905,53.53175 C76.5905,49.94775 79.3105,48.45175 81.9035,48.45175 C84.1375,48.45175 86.2665,49.33675 86.2665,53.29975 L86.2665,53.29975 Z" id="Fill-450" fill="#000000"></path>
        <polygon id="Fill-451" fill="#EFC5CD" points="39.8345 65.64775 40.5365 65.64775 40.5365 62.76575 39.8345 62.76575"></polygon>
        <polyline id="Fill-452" fill="#EFC5CD" points="45.0835 62.75775 45.7855 62.75775 45.7855 65.64775 45.0835 65.64775 43.9085 63.82875 43.9085 65.64775 43.2055 65.64775 43.2055 62.75775 43.9085 62.75775 45.0835 64.57675 45.0835 62.75775"></polyline>
        <polyline id="Fill-453" fill="#EFC5CD" points="48.2565 63.29975 48.2565 62.76575 50.5325 62.76575 50.5325 63.29975 49.7445 63.29975 49.7445 65.64775 49.0415 65.64775 49.0415 63.29975 48.2565 63.29975"></polyline>
        <polyline id="Fill-454" fill="#EFC5CD" points="54.7505 62.75775 54.7505 63.29075 53.7075 63.29075 53.7075 63.91175 54.6265 63.91175 54.6265 64.44575 53.7075 64.44575 53.7075 65.11475 54.7505 65.11475 54.7505 65.64775 53.0035 65.64775 53.0035 62.75775 54.7505 62.75775"></polyline>
        <path d="M58.1085,63.29975 L58.1085,63.99375 L58.5445,63.99375 C58.6515,63.99375 58.7365,63.96175 58.7965,63.89875 C58.8585,63.83675 58.8885,63.75375 58.8885,63.64975 C58.8885,63.54875 58.8585,63.46375 58.7935,63.39775 C58.7325,63.33275 58.6485,63.29975 58.5445,63.29975 L58.1085,63.29975 Z M58.1085,64.52675 L58.1085,65.64775 L57.4075,65.64775 L57.4075,62.76575 L58.5445,62.76575 C58.8775,62.76575 59.1385,62.85275 59.3245,63.02475 C59.5105,63.19675 59.6035,63.40475 59.6035,63.64775 C59.6035,63.81575 59.5525,63.97875 59.4525,64.13775 C59.3505,64.29675 59.1855,64.40875 58.9555,64.47475 L59.6625,65.64775 L58.8395,65.64775 L58.1915,64.52675 L58.1085,64.52675 L58.1085,64.52675 Z" id="Fill-455" fill="#EFC5CD"></path>
        <polygon id="Fill-456" fill="#EFC5CD" points="62.2035 65.64775 62.9055 65.64775 62.9055 62.76575 62.2035 62.76575"></polygon>
        <path d="M67.4375,64.80275 C67.5755,64.65175 67.6455,64.45075 67.6455,64.19875 C67.6455,63.94675 67.5755,63.74575 67.4375,63.59575 C67.2985,63.44475 67.1145,63.36975 66.8825,63.36975 C66.6515,63.36975 66.4665,63.44475 66.3285,63.59575 C66.1905,63.74575 66.1215,63.94675 66.1215,64.19875 C66.1215,64.45075 66.1905,64.65175 66.3285,64.80275 C66.4665,64.95275 66.6515,65.02775 66.8825,65.02775 C67.1145,65.02775 67.2985,64.95275 67.4375,64.80275 Z M65.8355,65.25875 C65.5495,64.97975 65.4065,64.62675 65.4065,64.19875 C65.4065,63.77275 65.5495,63.41975 65.8355,63.14175 C66.1225,62.86275 66.4725,62.72475 66.8865,62.72475 C67.3015,62.72475 67.6515,62.86275 67.9345,63.14175 C68.2175,63.41975 68.3595,63.77275 68.3595,64.19875 C68.3595,64.62675 68.2165,64.97975 67.9315,65.25875 C67.6475,65.53775 67.2985,65.67775 66.8855,65.67775 C66.4715,65.67775 66.1225,65.53775 65.8355,65.25875 L65.8355,65.25875 Z" id="Fill-457" fill="#EFC5CD"></path>
        <path d="M71.5675,63.29975 L71.5675,63.99375 L72.0015,63.99375 C72.1095,63.99375 72.1935,63.96175 72.2545,63.89875 C72.3165,63.83675 72.3465,63.75375 72.3465,63.64975 C72.3465,63.54875 72.3155,63.46375 72.2525,63.39775 C72.1895,63.33275 72.1065,63.29975 72.0015,63.29975 L71.5675,63.29975 Z M71.5675,64.52675 L71.5675,65.64775 L70.8655,65.64775 L70.8655,62.76575 L72.0015,62.76575 C72.3355,62.76575 72.5955,62.85275 72.7825,63.02475 C72.9685,63.19675 73.0615,63.40475 73.0615,63.64775 C73.0615,63.81575 73.0105,63.97875 72.9095,64.13775 C72.8085,64.29675 72.6435,64.40875 72.4135,64.47475 L73.1195,65.64775 L72.2975,65.64775 L71.6485,64.52675 L71.5675,64.52675 L71.5675,64.52675 Z" id="Fill-458" fill="#EFC5CD"></path>
        <path d="M44.6925,68.20775 C44.6045,68.20775 44.5335,68.23075 44.4765,68.27675 C44.4205,68.32375 44.3935,68.39075 44.3935,68.47875 C44.3935,68.56575 44.4185,68.63675 44.4705,68.68975 C44.5225,68.74375 44.5905,68.78375 44.6735,68.81375 C44.7575,68.84175 44.8505,68.86875 44.9535,68.89575 C45.0555,68.92175 45.1575,68.95275 45.2585,68.98975 C45.3605,69.02575 45.4535,69.07175 45.5365,69.12775 C45.6205,69.18175 45.6875,69.25975 45.7395,69.35875 C45.7925,69.45875 45.8185,69.57875 45.8185,69.71875 C45.8185,69.96275 45.7185,70.17075 45.5205,70.34575 C45.3215,70.51875 45.0595,70.60575 44.7365,70.60575 C44.4115,70.60575 44.1505,70.52775 43.9515,70.37175 C43.7525,70.21575 43.6535,69.99375 43.6535,69.70575 L44.4015,69.70575 C44.4195,69.93675 44.5385,70.05175 44.7545,70.05175 C44.8555,70.05175 44.9355,70.02375 44.9925,69.97175 C45.0495,69.91775 45.0795,69.85075 45.0795,69.76875 C45.0795,69.68575 45.0525,69.61775 45.0005,69.56575 C44.9485,69.51475 44.8805,69.47375 44.7965,69.44375 C44.7135,69.41275 44.6215,69.38575 44.5175,69.35875 C44.4165,69.33375 44.3135,69.30075 44.2115,69.26375 C44.1105,69.22475 44.0185,69.17875 43.9345,69.12575 C43.8505,69.07175 43.7835,68.99475 43.7315,68.89575 C43.6795,68.79575 43.6535,68.67775 43.6535,68.53975 C43.6535,68.27275 43.7525,68.05675 43.9535,67.89575 C44.1535,67.73375 44.4085,67.65275 44.7195,67.65275 C45.0305,67.65275 45.2815,67.72375 45.4725,67.86475 C45.6645,68.00575 45.7645,68.22875 45.7725,68.53175 L45.0085,68.53175 C44.9985,68.42775 44.9645,68.34775 44.9085,68.29175 C44.8525,68.23475 44.7805,68.20775 44.6925,68.20775" id="Fill-459" fill="#EFC5CD"></path>
        <polyline id="Fill-460" fill="#EFC5CD" points="48.2285 68.22875 48.2285 67.69375 50.5035 67.69375 50.5035 68.22875 49.7145 68.22875 49.7145 70.57675 49.0125 70.57675 49.0125 68.22875 48.2285 68.22875"></polyline>
        <path d="M52.9635,69.41475 L52.9635,67.69375 L53.6665,67.69375 L53.6665,69.41475 C53.6665,69.58675 53.7085,69.72075 53.7925,69.81375 C53.8775,69.90575 54.0015,69.95275 54.1665,69.95275 C54.3315,69.95275 54.4575,69.90575 54.5445,69.81375 C54.6315,69.72075 54.6755,69.58675 54.6755,69.41475 L54.6755,67.69375 L55.3775,67.69375 L55.3775,69.41475 C55.3775,69.66975 55.3185,69.88875 55.1995,70.07375 C55.0815,70.25875 54.9295,70.39375 54.7485,70.47875 C54.5655,70.56375 54.3685,70.60575 54.1545,70.60575 C53.8205,70.60575 53.5385,70.50175 53.3085,70.29375 C53.0785,70.08575 52.9635,69.79275 52.9635,69.41475" id="Fill-461" fill="#EFC5CD"></path>
        <path d="M58.7335,70.04275 L59.0455,70.04275 C59.3135,70.04275 59.5255,69.96075 59.6775,69.79675 C59.8325,69.63275 59.9085,69.41175 59.9085,69.13575 C59.9085,68.85875 59.8325,68.63875 59.6775,68.47475 C59.5255,68.30975 59.3135,68.22875 59.0455,68.22875 L58.7335,68.22875 L58.7335,70.04275 Z M59.0455,67.69375 C59.5045,67.69375 59.8835,67.82775 60.1785,68.09475 C60.4745,68.36075 60.6225,68.70775 60.6225,69.13375 C60.6225,69.55975 60.4745,69.90575 60.1785,70.17475 C59.8835,70.44275 59.5045,70.57675 59.0455,70.57675 L58.0315,70.57675 L58.0315,67.69375 L59.0455,67.69375 L59.0455,67.69375 Z" id="Fill-462" fill="#EFC5CD"></path>
        <polygon id="Fill-463" fill="#EFC5CD" points="63.1195 70.57675 63.8215 70.57675 63.8215 67.69375 63.1195 67.69375"></polygon>
        <path d="M68.3535,69.73075 C68.4915,69.58075 68.5615,69.37975 68.5615,69.12775 C68.5615,68.87475 68.4915,68.67475 68.3535,68.52275 C68.2145,68.37275 68.0305,68.29775 67.7985,68.29775 C67.5675,68.29775 67.3825,68.37275 67.2445,68.52275 C67.1065,68.67475 67.0375,68.87475 67.0375,69.12775 C67.0375,69.37975 67.1065,69.58075 67.2445,69.73075 C67.3825,69.88175 67.5675,69.95675 67.7985,69.95675 C68.0305,69.95675 68.2145,69.88175 68.3535,69.73075 Z M66.7515,70.18775 C66.4655,69.90675 66.3225,69.55475 66.3225,69.12775 C66.3225,68.69975 66.4655,68.34775 66.7515,68.06975 C67.0385,67.79175 67.3885,67.65275 67.8035,67.65275 C68.2175,67.65275 68.5675,67.79175 68.8505,68.06975 C69.1335,68.34775 69.2755,68.69975 69.2755,69.12775 C69.2755,69.55475 69.1325,69.90675 68.8485,70.18775 C68.5635,70.46575 68.2145,70.60575 67.8015,70.60575 C67.3875,70.60575 67.0385,70.46575 66.7515,70.18775 L66.7515,70.18775 Z" id="Fill-464" fill="#EFC5CD"></path>
        <path d="M104.8025,88.22675 C104.9075,88.40175 105.1425,88.30275 105.0955,87.81575 L104.6965,87.47175 L104.8025,88.22675" id="Fill-465" fill="#EFC5CD"></path>
        <path d="M105.5435,84.95475 C105.3495,84.38275 105.0085,83.72375 104.6415,84.09375 C105.0265,84.65975 104.8665,84.79775 105.3235,85.40675 C105.3705,85.89375 105.1955,86.25575 105.0475,86.17375 C105.1505,86.34675 104.9595,86.92975 105.2105,87.19075 C105.5205,86.55875 105.5335,85.75675 105.2775,84.91875 C105.3655,84.73875 105.4695,84.91375 105.5435,84.95475" id="Fill-466" fill="#EFC5CD"></path>
        <path d="M106.1675,37.41775 L106.1205,37.72475 C106.1465,37.64075 106.1615,37.53575 106.1675,37.41775" id="Fill-467" fill="#EFC5CD"></path>
        <path d="M92.4095,20.38275 C92.6335,20.37275 92.7265,20.33375 92.7385,20.29675 C92.5305,20.32375 92.3595,20.34775 92.4095,20.38275" id="Fill-468" fill="#EFC5CD"></path>
        <path d="M87.3805,19.94175 C87.4885,19.95175 87.5795,19.96075 87.6765,19.96975 C87.5635,19.93275 87.4505,19.91175 87.3805,19.94175" id="Fill-469" fill="#EFC5CD"></path>
        <path d="M106.1675,37.41775 L106.2925,36.63075 C106.1635,36.57575 106.1965,37.03475 106.1675,37.41775" id="Fill-470" fill="#EFC5CD"></path>
        <path d="M104.5795,78.39875 C104.5985,78.56475 104.6355,78.70175 104.6845,78.82675 C104.6695,78.69075 104.6565,78.56075 104.6415,78.42575 C104.6205,78.41775 104.6015,78.41175 104.5795,78.39875" id="Fill-471" fill="#EFC5CD"></path>
        <path d="M106.4915,50.40175 L106.4925,50.64075 C106.5385,50.71075 106.5925,50.77775 106.6545,50.83975 L106.4915,50.40175" id="Fill-472" fill="#EFC5CD"></path>
        <path d="M106.5525,60.36575 C106.5675,60.14075 106.2285,60.06275 106.0805,59.97675 C106.2195,60.10375 106.2865,60.27075 106.3125,60.46775 C106.3765,60.47175 106.4545,60.44075 106.5525,60.36575" id="Fill-473" fill="#EFC5CD"></path>
        <path d="M105.9555,76.16675 L106.0015,76.44675 C105.9905,76.37375 105.9695,76.25075 105.9555,76.16675" id="Fill-474" fill="#EFC5CD"></path>
        <path d="M106.5655,43.26975 C106.6155,43.25275 106.6605,43.21675 106.6865,43.17875 C106.6435,43.17875 106.6035,43.21475 106.5655,43.26975" id="Fill-475" fill="#EFC5CD"></path>
        <path d="M94.0565,86.63175 C94.0485,86.65575 94.0595,86.67175 94.0575,86.69175 C94.1155,86.65775 94.1325,86.63375 94.0565,86.63175" id="Fill-476" fill="#EFC5CD"></path>
        <path d="M105.6075,88.31475 L105.4475,88.33175 C105.4295,88.39675 105.4125,88.45975 105.4125,88.52275 L105.6075,88.31475" id="Fill-477" fill="#EFC5CD"></path>
        <path d="M78.1775,19.50675 C78.1955,19.50975 78.2015,19.51075 78.2185,19.51375 C78.4595,19.47475 78.3235,19.48175 78.1775,19.50675" id="Fill-478" fill="#EFC5CD"></path>
        <path d="M3.6615,32.53775 C3.9645,31.58075 4.0515,34.09575 4.3885,32.65475 C4.2555,32.78875 3.8585,31.34475 3.6615,32.53775" id="Fill-479" fill="#EFC5CD"></path>
        <path d="M104.6245,78.14175 C104.6205,78.00675 104.6175,77.86975 104.6205,77.73275 C104.6095,77.91875 104.6105,78.04475 104.6245,78.14175" id="Fill-480" fill="#EFC5CD"></path>
        <path d="M4.3885,32.65475 L4.3915,32.65475 L4.4225,32.50575 C4.4095,32.56775 4.4005,32.60275 4.3885,32.65475" id="Fill-481" fill="#EFC5CD"></path>
        <path d="M56.9725,19.71075 C57.0155,19.77075 57.1005,19.81575 57.1885,19.85975 C57.1815,19.82475 57.1325,19.78275 56.9725,19.71075" id="Fill-482" fill="#EFC5CD"></path>
        <path d="M72.7695,20.19475 L72.3785,20.14875 C72.5335,20.17975 72.6595,20.19075 72.7695,20.19475" id="Fill-483" fill="#EFC5CD"></path>
        <path d="M48.7705,20.19075 C48.5575,20.16475 48.4855,20.11775 48.1955,20.16375 C48.2225,20.18075 48.2495,20.19275 48.2835,20.20475 C48.3885,20.15775 48.5285,20.13675 48.7705,20.19075" id="Fill-484" fill="#EFC5CD"></path>
        <path d="M40.2325,20.19275 C40.2785,20.21875 40.3375,20.23775 40.3905,20.26075 C40.4745,20.25475 40.5745,20.24875 40.6615,20.24275 L40.2325,20.19275" id="Fill-485" fill="#EFC5CD"></path>
        <path d="M68.1115,86.79475 C68.2985,86.89075 68.4155,86.99575 68.5055,87.10075 C68.3745,86.85875 69.6275,86.77275 68.1115,86.79475" id="Fill-486" fill="#EFC5CD"></path>
        <path d="M104.7695,78.39575 C104.6845,78.34575 104.6415,78.27275 104.6245,78.14175 C104.6295,78.23875 104.6355,78.33375 104.6415,78.42575 C104.6925,78.44975 104.7405,78.45575 104.7695,78.39575" id="Fill-487" fill="#EFC5CD"></path>
        <path d="M48.4225,22.86975 L47.0665,22.81975 C47.4465,22.85275 47.9385,22.86975 48.4225,22.86975" id="Fill-488" fill="#EFC5CD"></path>
        <path d="M6.9755,86.84375 L7.0215,86.82275 L7.1755,86.80275 C7.1215,86.79875 7.0465,86.79975 7.0175,86.80575 C7.0025,86.81275 6.9895,86.82375 6.9755,86.84375" id="Fill-489" fill="#EFC5CD"></path>
        <path d="M43.0415,22.86975 C42.7995,22.75075 42.5425,22.68075 42.2775,22.63475 C42.2215,22.66175 42.1575,22.68375 42.1205,22.72275 L43.0415,22.86975" id="Fill-490" fill="#EFC5CD"></path>
        <path d="M68.5085,87.10475 C68.5055,87.10275 68.5055,87.10075 68.5055,87.10075 C68.5055,87.10075 68.5055,87.10275 68.5085,87.10475" id="Fill-491" fill="#EFC5CD"></path>
        <path d="M50.0845,89.68075 C49.6835,89.72875 49.5485,89.66075 49.4945,89.59175 C49.6835,89.58575 49.9055,89.57375 50.1965,89.55175 C50.2085,89.53875 50.2315,89.52375 50.2435,89.50975 C50.2055,89.57375 50.1615,89.63575 50.0845,89.68075 Z M44.7185,87.32575 C45.0285,87.33975 45.4125,87.34175 45.8195,87.33975 C45.9085,87.45675 45.8125,87.57775 45.5565,87.57075 C45.6955,87.49275 45.0975,87.42575 44.7185,87.32575 Z M47.2555,87.32075 C47.2555,87.31675 47.2555,87.31475 47.2555,87.31475 C47.5155,87.30675 47.7375,87.29975 47.8785,87.29475 C47.7495,87.30075 47.5695,87.30775 47.2555,87.32075 Z M77.4425,86.29675 C76.1505,86.28775 76.8355,86.73375 76.5615,86.98975 C75.0185,87.11675 75.8475,86.66175 75.3225,86.43375 C74.3595,86.55175 73.6205,86.96075 72.9025,86.94375 C72.8485,86.86975 72.7095,86.84375 72.8735,86.75175 C71.8545,87.10675 69.8495,86.76975 68.6635,87.21475 C68.5755,87.17475 68.5305,87.13775 68.5085,87.10475 C68.7005,87.32775 68.7305,87.55475 68.6905,87.71675 C68.1115,87.72475 67.6155,87.99875 67.3975,87.70675 C67.7525,87.71575 67.7825,87.59775 67.9485,87.50675 L67.3415,87.63375 C66.7945,87.21375 68.1695,87.48775 68.1695,87.17775 C66.9865,87.31475 65.6065,87.66075 64.6995,87.54275 C64.5095,87.13275 66.8205,87.40475 65.6105,87.03975 L67.0135,87.19575 C65.9415,86.54875 67.8665,87.24175 66.8805,86.54875 C65.0345,86.43075 64.8155,86.75875 62.9725,86.63875 C62.5575,86.86575 63.1095,86.97675 62.6945,87.20375 C60.0765,87.61375 60.6325,86.17175 58.7085,86.71875 C58.2095,86.99175 58.0165,87.51175 56.6455,87.23675 L57.1125,86.77275 C55.3245,86.72775 56.0915,87.43975 54.2185,87.12775 C54.5515,86.94475 55.6245,86.97375 55.3535,86.91875 C54.1405,86.55275 54.4955,87.18175 53.5625,87.18175 L53.3705,86.77175 C51.4655,86.83575 49.3685,87.13275 47.2595,87.20675 C47.3765,87.08475 47.7375,86.95675 47.2445,86.83075 C44.5845,87.03575 41.5675,86.78075 39.0015,86.53675 L38.0215,86.89175 C37.7935,86.88775 37.5985,86.73175 37.8455,86.66275 C36.8455,86.52775 37.7935,86.88775 37.3135,87.02675 C36.7445,87.05175 36.5615,86.82275 36.9215,86.71675 C35.1585,87.01775 31.8965,87.36375 30.0385,86.98375 L30.4005,86.87875 C28.9535,86.73475 28.7665,87.60675 27.4235,87.27475 L27.6815,87.21275 C24.5405,87.05975 21.0685,87.38375 18.6715,86.84875 C18.2155,87.35875 15.5625,86.62075 15.3605,87.33275 C13.5665,86.98075 14.0805,86.85275 11.5535,86.61475 C10.8785,86.58275 10.5475,87.06075 9.7135,87.13475 L9.6935,86.76175 L8.5615,87.15275 L7.9585,86.70675 L7.1755,86.80275 C7.4875,86.82475 7.8375,86.97075 7.7915,87.07775 C7.5575,87.10875 7.3045,87.11975 7.0475,87.11375 C6.9075,87.10875 6.8185,87.08775 6.7245,87.05575 C6.5445,86.99175 6.4725,86.88875 6.5015,86.78975 C6.5625,86.68375 6.6215,86.61475 6.6665,86.57475 C6.6135,86.53175 6.5605,86.45075 6.5075,86.32975 L6.4885,86.28275 C6.4825,86.28575 6.4755,86.18075 6.4685,86.13375 L6.4295,85.77275 L6.3505,85.04975 C6.5015,85.11375 6.5515,85.59875 6.6475,85.98175 C6.2675,84.43775 7.0405,85.69975 6.6915,84.28575 C6.6075,84.47575 6.4695,84.18375 6.3945,84.15075 C6.6195,83.44575 6.6215,81.84175 6.5265,80.65375 L6.7835,80.88275 C6.8485,78.73675 6.6605,76.36075 6.6655,73.95375 C6.5445,74.81675 6.1005,74.61875 6.0575,73.91275 L6.4515,73.63075 C6.2085,73.17575 6.3025,74.36775 6.0045,73.43275 C6.0495,72.53275 6.4525,72.82775 6.5805,73.34475 L6.4435,72.25175 C6.5615,72.18775 6.6235,72.44275 6.7735,72.51075 C6.5285,72.06175 7.1675,70.62275 6.7445,69.97675 L6.8605,69.91475 C6.8645,67.50875 6.7285,66.41675 6.7095,64.45675 C6.3695,64.41875 6.4445,63.65175 6.1695,63.06775 C6.2785,61.62775 6.5445,60.02875 6.5165,58.29375 C6.3475,57.07375 6.2285,57.93775 6.0275,57.38975 C6.3355,57.29975 6.3075,55.56575 6.5295,56.46575 C6.4795,54.38175 6.4675,53.80475 6.2165,51.16975 C6.0895,51.45675 6.0355,51.77775 5.9285,51.61075 C5.8775,51.13275 6.0585,50.52375 6.2085,50.59175 L6.2395,50.71875 C5.7755,47.76175 7.1415,43.89375 6.4975,41.53875 L6.5285,41.67075 L6.1925,39.22975 C6.2465,38.10575 6.4245,39.90275 6.6165,39.07175 C6.1005,36.43775 6.6915,34.90975 6.3475,32.74075 C7.2605,31.06275 6.2835,26.78275 6.8665,24.51675 L6.6515,24.64775 C6.4405,24.06175 6.7745,23.93975 6.8235,23.50775 C6.6565,23.56875 6.6295,24.14275 6.5135,23.77875 L6.4845,23.13175 L6.4635,22.93575 C6.4535,22.80775 6.4485,22.67375 6.4475,22.54375 C6.5995,22.54275 6.7595,22.54875 6.9125,22.55975 L7.0325,22.56875 L7.4275,22.58075 L8.2205,22.60775 C9.2795,22.64875 10.3435,22.70575 11.4105,22.76775 C13.5415,22.89275 15.6755,23.03775 17.7785,23.11775 C19.6395,23.17475 18.8345,22.00475 21.1795,22.51875 L20.5145,22.91775 C24.2695,22.43875 28.1915,22.93375 31.8675,22.52775 C31.6485,22.61975 31.6415,22.73975 31.2835,22.73775 C32.0595,23.02775 34.1545,22.75175 34.1675,22.51575 C34.7405,22.54275 34.2995,22.72975 34.6525,22.84975 C35.4315,23.02175 36.6075,22.47975 37.0215,22.76875 C37.0915,22.81475 36.8025,22.86275 36.6605,22.88475 C37.1675,22.74475 39.0245,22.92075 38.5385,22.58575 C39.9175,22.74575 41.1775,22.43675 42.2775,22.63475 C42.9955,22.26075 44.6395,22.81475 44.8675,22.28675 C44.7685,22.83275 47.2855,22.72775 48.1585,22.46975 C47.8665,22.63475 48.9165,22.64175 48.5745,22.86975 C49.5695,22.86275 50.4825,22.76075 50.3085,22.48075 C52.1425,23.13375 53.9945,21.95375 55.0275,22.79175 C57.9845,22.49775 60.7205,22.29975 63.3795,22.17075 C63.2845,22.71575 60.4405,22.22575 60.5545,22.79775 C63.0785,22.57375 64.5335,22.10575 67.0355,22.23675 C67.6835,22.31175 66.6675,22.47375 66.4495,22.56675 C68.9695,22.34175 71.3235,22.61575 73.5665,22.31875 C73.5605,22.36975 73.3185,22.42575 73.0895,22.46675 C73.5315,22.44875 74.1175,22.54675 74.0675,22.29975 L73.6365,22.36675 C72.9305,22.00675 75.3925,21.61575 75.4715,21.42575 C74.7205,22.13575 77.6875,21.60375 76.4955,22.50175 C76.7865,22.45475 77.1515,22.33675 77.0845,22.17075 C77.5155,22.21975 77.6535,22.31575 77.2145,22.50475 C78.7985,22.36975 78.2365,22.10675 79.6705,22.11175 C79.6665,22.23175 79.3765,22.27875 79.2275,22.41975 C79.9545,22.18575 80.6845,21.95175 81.8965,22.05275 C81.8235,22.12575 81.9635,22.21975 81.6025,22.21775 C83.6845,22.18175 85.1515,21.59475 87.4355,21.82075 C86.7615,22.34175 88.2125,21.99275 88.3345,22.44275 L89.5625,22.30875 L89.0695,22.08975 C90.1455,22.09775 91.0955,21.76975 92.0215,21.91675 L91.2215,22.10275 L93.2385,22.01775 L92.0965,21.84575 C93.1855,21.61375 91.9795,21.27475 93.4125,21.40075 C93.1215,21.44675 94.4885,21.40675 95.0485,21.67175 L95.0455,21.67375 C95.5785,21.52975 96.1265,21.37775 96.9205,21.49075 C97.1275,21.63475 96.7545,21.98975 96.8895,22.08575 C97.4145,21.70875 99.4095,21.98075 100.0745,21.57975 C99.8525,21.67375 99.8405,21.91075 99.9145,21.95875 L100.3545,21.65175 C100.8525,21.75075 100.9255,21.79775 100.8445,21.98675 C102.3435,22.04275 100.3695,21.41475 102.1485,21.66075 C102.0085,21.68575 102.0755,21.73175 101.7845,21.77775 C102.4375,21.82575 103.1205,21.81175 103.7065,21.78175 C104.1375,21.75175 104.6105,21.70775 105.0735,21.69575 C105.0825,21.99775 105.0745,22.32175 105.0355,22.63475 C104.5815,23.08375 104.9235,21.80775 104.5415,22.40675 C104.5515,22.53275 104.5675,22.66075 104.5875,22.79775 L104.6215,23.01075 L104.6395,23.12775 L104.6595,23.35575 C104.7165,23.96175 104.7735,24.57275 104.8315,25.18075 C104.9435,26.39675 105.0325,27.60375 104.9785,28.74875 L105.0285,28.32175 C105.6695,28.63975 104.7115,30.02775 105.0145,31.18675 C104.9665,30.90275 104.6585,30.81475 104.7295,30.89175 C104.6265,32.46075 104.8875,34.09975 105.0885,36.47775 L104.9235,36.18275 C104.7775,37.10675 104.8395,38.61775 104.7645,39.61675 C104.9285,39.91375 104.9025,40.48475 105.1415,40.13775 C104.2045,43.21675 105.6445,46.01275 104.8635,48.74475 C104.8615,48.41875 104.7195,47.96675 104.7185,48.22675 L104.8705,50.55375 C105.1495,50.36975 105.0395,50.24875 105.2565,49.75975 C105.4215,50.05475 105.5505,50.71075 105.5505,51.28875 C105.3655,50.24175 105.1025,51.29675 104.9465,51.74975 C105.0325,51.67375 105.1265,51.82875 105.2125,51.79075 C104.7165,53.00575 105.7755,51.99375 105.4405,53.65375 L105.2935,53.56575 C105.3695,54.18775 105.5625,54.75975 105.5205,55.42975 C105.1975,55.70775 105.3705,54.76875 105.1045,54.72575 C105.1235,55.66775 105.7155,56.58275 105.3945,57.43475 C105.3035,57.03475 105.3025,56.45975 105.2125,56.06075 C104.8345,56.98775 104.9305,57.09575 104.8705,57.78475 L104.8785,57.71675 L104.7075,59.31075 L104.8095,58.90375 C105.6525,60.08175 104.9635,61.30275 105.5155,62.88875 C104.9935,61.34775 105.2125,62.63475 104.8475,62.51575 C104.7465,62.92075 104.6315,63.53675 104.5295,63.36075 C104.8245,64.11075 104.2965,64.61275 104.7275,65.67175 C104.6105,65.71875 104.7165,66.47375 104.4205,66.30475 C104.5135,67.27875 104.6265,66.07375 104.7735,66.15575 C105.1755,67.65775 104.2855,69.68775 104.8375,71.84975 C105.0655,73.71275 105.4625,74.05775 105.6605,75.78675 C105.4715,76.37075 105.2315,75.30975 105.2315,75.30975 C105.0575,76.25075 105.0895,76.95975 105.2245,77.84675 C105.1215,77.66675 105.0345,77.85275 104.9025,78.12275 C104.9325,78.83475 105.3315,78.59975 105.1575,79.53775 C105.0265,79.37675 104.8165,79.17075 104.6845,78.82675 C104.7925,79.66575 105.0125,80.49475 105.1195,81.36375 C104.9145,81.59475 104.8075,80.83975 104.6735,80.53275 C104.7655,81.50975 104.8595,83.06375 105.1845,83.36475 L105.3005,82.73775 C105.3165,83.09475 105.0215,82.92175 104.9615,82.65875 C104.7075,81.82175 105.0745,81.45175 105.1935,81.40475 L105.2685,82.02275 C105.9595,81.38775 105.1575,79.53775 105.1975,78.29275 L105.7005,78.81275 L105.2835,77.53375 C105.4145,77.26275 105.6955,77.07675 105.7705,77.69175 C106.0185,76.79875 105.5905,76.90075 105.8685,76.13475 C105.9115,76.04975 105.9355,76.08775 105.9555,76.16675 L105.8055,75.29375 C105.9115,75.46475 106.1615,75.14875 106.0875,75.68475 C106.3775,74.11875 105.7105,73.15975 106.0915,72.56975 L106.1235,72.70075 C105.9535,70.52775 105.7535,72.49075 105.3205,70.86075 L106.2315,69.76475 L105.8625,69.55075 C105.8755,69.32575 105.9035,68.88275 106.0505,68.96475 C105.7975,68.13075 105.8895,69.10675 105.6515,68.62275 C105.9875,67.54375 105.4945,65.64775 106.0825,65.40475 C105.8015,65.01775 105.8665,66.43775 105.6705,65.28475 C106.3025,64.95675 105.5625,63.95375 105.8525,62.96775 C106.1785,63.27075 106.0055,64.20475 106.2975,63.21875 C105.7465,62.62375 106.4175,61.29875 106.3125,60.46775 C105.8745,60.42875 106.1295,58.65975 105.9835,57.26475 C106.1305,57.35375 106.2245,54.63975 106.3825,53.34175 L106.4575,53.37975 C106.0125,53.12875 106.0965,51.79075 106.0045,50.81575 C106.2705,50.85375 106.3755,51.02975 106.4945,51.55775 L106.4925,50.64075 C106.3495,50.42475 106.2755,50.13875 106.2245,49.54475 L106.5555,49.77475 C106.5385,48.55575 106.1655,47.31875 106.3865,45.74975 C106.0775,45.66175 105.5255,46.99775 105.3185,45.33875 C105.4865,45.27675 105.7725,45.21575 105.8405,45.64975 C105.8185,45.50775 105.7015,45.14275 105.7735,44.85675 L106.0545,45.51975 C106.1775,44.80475 105.8195,45.14575 105.8455,44.57375 C106.0845,44.58575 106.0155,44.15075 106.2055,44.23275 C106.2285,44.37875 106.1065,44.73175 106.2005,44.95075 C106.2435,44.30575 106.3845,43.52675 106.5655,43.26975 C106.4295,43.32575 106.2445,43.26975 106.2125,42.79775 C106.1955,41.57875 106.5005,42.38075 106.6225,41.66875 C106.4575,41.37375 106.6285,40.59575 106.2715,40.57575 C106.2735,40.21875 106.4405,40.15275 106.5375,40.01475 C106.3785,39.38375 106.4915,37.06675 106.1125,37.77775 L106.0865,37.93975 C106.0835,37.90975 106.0775,37.87375 106.0715,37.83675 C106.0715,37.84175 106.0715,37.83675 106.0715,37.84175 L106.0715,37.83675 C105.7165,35.76775 106.2735,33.53875 106.1215,31.48575 L106.2405,31.48975 C106.1045,30.26375 106.1605,28.76175 105.9035,27.88675 C105.9035,27.52475 106.1215,27.03175 106.2625,27.18675 C106.1735,26.24975 106.0395,26.14475 106.2365,24.79175 C106.4445,25.73375 106.4205,24.46675 106.3885,25.75675 C106.4405,25.14875 106.5135,24.77475 106.5335,24.39075 C106.5435,24.19875 106.5405,24.00375 106.5135,23.77475 C106.5015,23.66075 106.4815,23.53875 106.4565,23.40275 C106.4295,23.26275 106.3975,23.14675 106.3565,22.89675 C106.5095,23.20075 106.6055,22.88175 106.6525,22.31475 C106.6995,21.75375 106.6965,20.98275 106.6505,20.57975 L106.4315,21.97775 C106.4035,21.40675 106.4035,20.88275 106.4145,20.35575 C106.1125,20.34675 105.8175,20.33775 105.5215,20.32975 C105.7595,20.19575 106.0195,20.06175 106.3005,19.92775 C105.8425,19.86675 105.3475,19.83375 104.8515,19.82175 C104.6035,19.81475 104.3555,19.81475 104.1105,19.81775 C103.8655,19.82075 103.5935,19.82775 103.4935,19.83875 C102.9255,19.88075 102.3825,19.97475 101.8585,20.05775 C100.8095,20.22475 99.8355,20.35075 98.8875,19.94075 C98.2285,20.22275 100.2405,20.13875 99.6515,20.46775 C98.5055,20.41375 97.3115,19.83675 96.9535,19.83575 C95.3835,19.61275 95.4895,20.42275 93.8465,20.27075 C94.0565,20.41375 94.2545,20.79675 93.0275,20.93175 C91.8805,20.87875 91.6195,20.33075 92.3425,20.21475 C92.6175,20.20375 92.7505,20.24875 92.7385,20.29675 C93.1085,20.24475 93.5945,20.18375 93.1405,20.02775 L92.9925,20.17175 C92.4225,20.02475 90.8455,20.04075 91.2165,19.80475 C90.3505,19.94175 90.8455,20.04075 91.4875,20.11475 C90.0175,19.90775 89.1905,20.10875 87.6765,19.96975 C87.9175,20.04775 88.1395,20.21675 87.8995,20.21475 C85.6795,20.03775 86.9215,20.48675 85.4175,20.54975 C84.5635,20.33175 85.7235,20.02775 84.2095,20.21075 C83.2855,20.06375 84.0135,19.83075 84.3815,19.71375 C83.0015,19.99075 81.8035,19.53275 81.0155,19.48175 L81.7425,19.36575 C81.3075,19.43475 80.9525,19.43275 80.5895,19.43175 L81.0045,19.71875 C80.5785,19.66875 80.2165,19.66775 80.2245,19.54775 C79.7855,19.73575 80.5615,20.02475 79.6885,20.28275 C79.1205,20.13675 77.9565,20.43875 77.7595,20.05775 C79.5485,20.18775 77.5625,19.67575 79.0765,19.61475 C78.7845,19.65975 78.4285,19.65775 78.0005,19.60775 C77.9355,19.56475 78.0605,19.52875 78.1775,19.50675 C76.4655,19.16675 77.3905,19.93775 75.6165,19.92875 C75.8415,19.71375 75.2055,19.52175 74.9165,19.56775 C75.6305,19.57175 75.2575,19.92475 74.6015,20.08975 C73.4635,19.92275 73.3655,20.21375 72.7695,20.19475 L73.4495,20.27275 C73.2185,20.48675 72.6505,20.45975 71.8575,20.52675 C71.7905,20.35975 72.5775,20.41175 72.2945,20.33775 C71.4145,20.71475 70.3045,19.94775 69.0775,20.20175 C68.5085,20.05675 69.0225,19.79875 68.5225,19.70075 C67.1465,19.97875 67.0325,19.40675 65.5855,19.63675 C66.0025,19.92475 66.0765,19.85475 65.0575,20.13475 L67.4355,19.93275 L65.9095,20.35175 C66.6265,20.35575 67.4235,20.16975 67.8535,20.21975 C67.1265,20.45475 67.2015,20.38275 67.5445,20.62175 C66.5625,20.18975 65.5975,20.87475 64.4625,20.58175 L64.4975,19.86775 C62.7915,19.54975 61.4655,20.23475 59.2505,20.05475 L59.9615,20.17875 C59.6655,20.46275 58.5935,20.21875 57.8765,20.33375 C57.9435,20.09475 57.4955,20.00875 57.1885,19.85975 C57.2255,20.03675 55.5665,19.84375 55.3655,20.31975 L54.3765,20.00575 C52.5865,19.87675 52.3345,20.68575 50.6145,20.60475 C51.1325,20.34475 50.3505,20.17575 51.5025,19.99075 C50.9285,19.98775 50.4135,19.94475 50.4035,20.10975 C50.0685,19.96075 48.8115,20.43075 48.2835,20.20475 C48.0415,20.30975 47.9615,20.55975 47.3175,20.53975 C47.2475,20.49075 47.3205,20.42075 47.3205,20.42075 C47.3175,20.53975 46.3105,20.58175 46.8745,20.84575 C45.1055,20.10175 41.9305,20.89975 40.3905,20.26075 C39.1375,20.34075 37.6275,20.41775 36.4905,20.43475 C36.5625,20.36375 36.4935,20.31575 36.7095,20.34075 C35.1395,20.11875 35.7445,21.02575 33.9585,20.77775 C33.0455,20.39275 34.9065,20.56975 34.3375,20.42375 C34.0895,19.63875 32.1825,20.53075 30.9805,20.07275 L31.2715,20.02575 C30.3535,19.75975 29.0305,20.32375 27.5295,20.26775 C27.5295,20.26775 27.6025,20.19775 27.5385,20.14875 C26.5115,20.54875 24.5695,20.68175 23.1255,20.79275 C23.5745,20.48575 23.7815,20.62975 23.5065,20.31775 C22.8605,20.36275 23.6965,20.81975 22.4055,20.90675 C21.9845,20.73875 21.0525,20.59175 20.9295,20.25875 L22.1475,20.24075 C21.5235,19.80975 20.5705,20.25475 19.9285,20.18075 L20.0105,19.99175 C18.1425,20.05375 18.1175,20.52775 16.1105,20.49375 L16.3175,20.63675 C15.2205,21.10675 15.3975,20.37275 14.3035,20.72175 L13.9725,20.24475 C13.2495,20.35975 11.4375,20.70575 10.1395,20.79575 C10.8755,20.44175 12.3935,20.26075 13.3335,20.05075 C12.6165,20.04775 10.8955,20.08575 10.5215,20.32175 C10.8105,20.27575 11.1745,20.15875 11.4605,20.23175 C10.5805,20.60675 9.4215,20.79175 7.9925,20.78275 C8.0755,20.48075 7.7065,20.35175 7.1345,20.28875 L7.0255,20.27775 C6.9705,20.27475 6.9165,20.27175 6.8605,20.26875 C6.7475,20.26275 6.6295,20.25775 6.5095,20.25275 C6.2655,20.24675 6.0095,20.23875 5.7465,20.23175 C5.2105,20.22075 4.6465,20.20875 4.1005,20.19675 C4.0645,21.30675 3.9845,22.32675 3.7355,22.91975 L3.7515,23.11875 L3.7655,23.23675 L3.7915,23.47375 L3.8285,23.94675 C3.8475,24.26275 3.8565,24.57975 3.8585,24.89675 C3.8615,25.53175 3.8345,26.17175 3.7975,26.82475 C3.7255,28.13175 3.6175,29.48975 3.6445,30.96275 C4.3645,29.91875 3.6655,31.82375 4.4045,31.64275 C4.4515,32.32875 4.4395,32.59075 4.3915,32.65175 L3.9505,34.73175 C3.7355,35.22475 3.7875,34.07875 3.6215,34.14175 C3.5645,35.64475 3.3085,34.77275 3.1125,35.76675 C3.3765,35.56275 3.4905,36.28875 3.3895,37.14575 L3.7305,35.93975 C4.1235,38.03975 3.1105,37.75375 3.5005,39.87075 L3.2665,39.20175 C3.4045,40.28775 3.2625,43.20875 3.8555,44.27275 C3.7705,44.46475 3.5685,44.71875 3.5145,44.24075 C3.4255,46.83575 4.1465,50.01875 3.7815,52.03575 L3.6005,51.83875 C3.6535,52.32375 3.9405,52.68175 3.7575,53.28875 C3.6835,53.25675 3.5785,53.09375 3.5675,53.31775 C3.6295,53.57375 3.8835,54.60375 3.7785,55.24575 L3.5755,54.69675 C3.3385,57.22975 4.0705,58.58275 4.1945,60.70575 C3.6625,60.70075 3.4895,62.69275 3.4035,63.68775 L3.3285,63.65175 C3.2625,66.60075 3.7685,68.65975 3.9775,71.39075 C3.4005,73.08475 3.7355,77.13175 3.4125,79.85475 C3.5085,79.43875 3.8275,79.92275 3.8795,80.40675 C3.7725,81.04575 4.2495,82.17375 3.7615,82.07175 L3.7705,81.84475 C3.2925,82.32575 3.4185,83.63975 3.4065,84.66475 L4.0435,84.83475 C3.9595,85.07975 3.8925,85.33975 3.8415,85.60875 C3.8155,85.74375 3.7935,85.88175 3.7755,86.02175 L3.7505,86.23175 L3.7295,86.56575 C3.6795,87.53975 3.6785,88.59175 3.6975,89.59575 C4.5895,89.56775 5.4825,89.54175 6.3445,89.51575 C6.9425,89.49075 7.5185,89.46675 8.0515,89.44375 C8.9505,89.42275 9.7045,89.47575 10.1685,89.73875 C10.8155,89.57875 11.6185,89.58075 12.2595,89.42175 L12.2245,89.76375 C14.0185,89.85175 14.9145,89.89475 17.1315,89.81275 L16.6795,90.0580733 C17.9295,90.07875 18.2585,89.06975 19.4125,89.05075 L19.7585,89.56175 C21.9415,89.55375 24.1495,90.00175 26.3055,89.53875 C26.2695,89.61275 26.2065,89.76075 25.8525,89.78175 C26.8795,89.79475 29.8255,90.12775 29.4525,89.42675 C29.4775,89.88275 31.7035,89.47075 32.8815,89.26975 L32.6985,89.60675 C33.6935,89.17675 33.7245,89.05875 35.1135,88.93975 C35.4425,88.98275 35.4025,89.20875 34.9645,89.12275 C36.0615,89.29975 35.8195,88.80375 37.1495,88.98275 L36.6535,89.19775 C37.7825,89.22475 37.6925,89.10875 38.3135,88.85775 C39.0235,88.72375 40.4545,88.94275 40.6215,89.24775 C40.7725,89.06275 41.3905,88.81375 42.0555,88.90075 C42.1455,89.01675 41.9035,89.08775 41.7825,89.12275 C43.6685,89.35275 44.5865,88.73175 45.8845,89.06275 C45.9125,89.17375 45.9965,89.22975 46.1045,89.26275 C44.6055,89.25475 43.3985,89.23575 43.5105,89.21175 C43.5105,89.52275 44.7215,89.57675 43.7585,90.00575 C44.7305,89.77175 46.3925,89.26275 47.5735,89.40875 C47.6295,89.43975 47.6855,89.46875 47.7285,89.51675 L47.6065,89.55175 C47.8785,89.58175 48.1235,89.55375 48.3525,89.50075 C48.7295,89.55175 48.9685,89.58975 49.3305,89.59475 C49.4695,89.85175 50.7185,89.73275 51.3225,89.74575 C51.2725,89.40575 52.0625,89.45975 51.3225,89.18075 C51.4175,89.20375 51.2085,89.22075 50.8065,89.23375 C50.7155,89.24475 50.6095,89.24975 50.5495,89.26975 C50.5615,89.26175 50.5755,89.25075 50.5905,89.23975 C50.1945,89.24575 49.6775,89.25375 49.0895,89.26275 C49.5665,89.08975 50.0655,88.94475 50.7325,89.13375 C51.0425,88.91475 51.3835,88.68975 51.5765,88.58575 C52.4025,89.05975 53.9945,89.31475 54.2155,89.60675 C56.0595,89.41675 58.5585,89.48175 59.7175,88.84375 C60.2425,88.76175 60.3205,89.02575 60.5165,89.12675 C60.2135,89.18975 59.8545,89.18075 59.6905,89.27275 C60.7385,89.10875 62.7945,89.20875 63.0455,88.76375 C64.3665,88.96475 62.3025,89.17375 64.1185,89.10075 L63.8735,89.23675 C67.4435,89.94875 69.6775,88.09975 73.6365,89.01375 C73.3625,88.95775 73.2255,88.93175 73.1685,88.85675 C77.6825,89.26075 82.4695,88.47875 86.9225,89.11775 C88.1885,89.24675 88.3265,88.96275 89.0985,88.74575 L89.3735,89.11075 L90.6935,88.68975 C92.5665,88.38175 93.9375,89.58475 96.3085,89.00175 L96.0025,88.75675 C96.8545,88.80275 98.7005,88.61075 98.5575,88.89475 C98.6455,88.84975 98.8365,88.63875 99.1695,88.76675 L99.1965,88.95775 L101.2885,88.63075 C102.9105,88.76875 101.0345,89.38875 103.4015,89.42575 C104.2815,89.35275 105.9065,88.86975 105.5765,88.74175 C105.2205,88.73175 104.6685,88.62275 104.6425,88.43175 L105.4475,88.33175 C105.5925,87.76975 106.2115,87.19275 104.2365,86.80075 L102.8605,87.14475 L102.4175,86.87175 L103.5755,86.85475 C102.9175,86.59775 102.5015,86.82475 102.0355,86.98075 C101.9245,86.83575 101.7315,86.73375 101.4585,86.68075 L100.1075,87.21775 C99.9435,86.99675 100.7125,86.78075 99.8065,86.65875 C99.1725,86.90875 100.4135,87.15275 99.3655,87.31575 C98.7075,87.06175 98.8995,86.85275 98.1265,87.07075 C98.0175,86.92675 98.1815,86.83375 98.4875,86.77075 C97.7995,86.94375 96.6675,86.84375 96.3125,87.14275 C95.6265,86.82675 93.9895,87.22475 94.0575,86.69175 C93.8405,86.81975 92.8455,87.10975 92.2135,87.13275 C93.3685,86.49475 89.8485,87.09475 90.1545,86.41075 C89.2995,86.98375 87.0685,86.66575 85.5545,86.98375 C85.6395,86.93875 85.8055,86.84675 85.9395,86.87575 C85.0865,86.82775 84.8395,86.65475 84.2925,86.54675 C84.1835,87.02075 82.8565,87.12875 82.1415,87.42075 C81.0975,86.96375 82.7755,86.86475 82.4485,86.42575 C82.5015,86.80975 80.6335,86.80875 80.9895,87.12875 C80.1905,86.84575 80.3015,86.99075 79.8895,86.59975 C79.7505,87.19075 79.1465,86.69875 78.4845,87.06375 C77.3295,86.77175 78.1865,86.50775 76.9175,86.68875 C76.3135,86.50675 77.4425,86.29675 77.4425,86.29675 L77.4425,86.29675 Z" id="Fill-492" fill="#6D7781"></path>
        <path d="M50.8065,89.23375 C50.8655,89.22775 50.8965,89.21275 50.9725,89.20975 C50.8905,89.18075 50.8125,89.15375 50.7325,89.13375 C50.6835,89.16975 50.6345,89.20675 50.5905,89.23975 C50.6635,89.23775 50.7395,89.23575 50.8065,89.23375" id="Fill-493" fill="#EFC5CD"></path>
        <path d="M106.1125,37.77775 L106.1205,37.72475 C106.1065,37.76875 106.0925,37.80975 106.0715,37.83675 C106.0875,37.80075 106.0985,37.80075 106.1125,37.77775" id="Fill-494" fill="#EFC5CD"></path>
        <polyline id="Fill-495" fill="#EFC5CD" points="9.6895 86.67675 9.6935 86.76175 9.9155 86.68675 9.6895 86.67675"></polyline>
        <path d="M104.9465,51.74975 C104.9175,51.77575 104.8855,51.82875 104.8595,51.93275 C104.8815,51.92475 104.9135,51.84575 104.9465,51.74975" id="Fill-496" fill="#EFC5CD"></path>
        <path d="M104.8705,57.78475 L104.7495,58.63875 C104.8185,58.26975 104.8505,57.99975 104.8705,57.78475" id="Fill-497" fill="#EFC5CD"></path>
        <path d="M104.7025,62.42475 C104.7615,62.48375 104.8065,62.50075 104.8475,62.51575 L104.8495,62.50675 L104.7025,62.42475" id="Fill-498" fill="#EFC5CD"></path>
        <path d="M73.0895,22.46675 C73.0275,22.46875 72.9655,22.47375 72.9105,22.48175 C72.4905,22.54775 72.7755,22.52275 73.0895,22.46675" id="Fill-499" fill="#EFC5CD"></path>
        <path d="M95.0455,21.67375 C94.8125,21.73475 94.5835,21.79575 94.3395,21.83375 C94.7305,21.85975 95.0345,21.86675 95.0455,21.67375" id="Fill-500" fill="#EFC5CD"></path>
        <path d="M48.5715,22.87575 C48.5745,22.87375 48.5715,22.87275 48.5745,22.86975 C48.5215,22.86975 48.4755,22.86975 48.4225,22.86975 L48.5715,22.87575" id="Fill-501" fill="#EFC5CD"></path>
        <path d="M93.3185,21.82775 C93.7095,21.89575 94.0365,21.88075 94.3395,21.83375 C94.0195,21.81175 93.6415,21.77675 93.3185,21.82775" id="Fill-502" fill="#EFC5CD"></path>
        <path d="M104.5475,82.53675 L104.5335,82.76075 C104.5555,82.75675 104.5745,82.77075 104.5875,82.78675 L104.5475,82.53675" id="Fill-503" fill="#EFC5CD"></path>
        <path d="M104.5875,82.78675 L104.6275,83.03575 C104.6275,82.92175 104.6265,82.82275 104.5875,82.78675" id="Fill-504" fill="#EFC5CD"></path>
        <path d="M104.7135,83.55875 L104.6275,83.03575 C104.6275,83.21675 104.6175,83.43975 104.7135,83.55875" id="Fill-505" fill="#EFC5CD"></path>
        <path d="M104.7055,76.39475 L104.5815,76.32375 C104.6075,76.36175 104.6465,76.38675 104.7055,76.39475" id="Fill-506" fill="#EFC5CD"></path>
        <path d="M104.6685,74.52675 C104.6405,74.97275 104.4065,75.64475 104.4835,76.26575 L104.5815,76.32375 C104.3985,76.03175 104.8765,74.95075 104.6685,74.52675" id="Fill-507" fill="#EFC5CD"></path>
        <path d="M106.1915,66.73575 L106.0925,68.29975 C106.2245,68.02575 106.4005,67.66675 106.4325,68.37875 C106.8245,66.40675 106.1385,68.78475 106.1915,66.73575" id="Fill-508" fill="#EFC5CD"></path>
        <path d="M106.3815,61.88575 C106.4425,62.72675 106.5725,61.87575 106.6465,61.91975 C106.5275,61.38775 106.4975,61.25775 106.3815,61.88575" id="Fill-509" fill="#EFC5CD"></path>
        <path d="M106.3825,26.83475 L106.6925,26.91875 C106.6485,26.27075 106.5725,26.91275 106.3825,26.83475" id="Fill-510" fill="#EFC5CD"></path>
        <path d="M104.1895,21.98375 C104.2805,22.04775 104.3515,22.11175 104.4015,22.17575 C104.5255,22.08175 104.6635,21.98775 104.8155,21.89275 L104.1895,21.98375" id="Fill-511" fill="#EFC5CD"></path>
        <polyline id="Fill-512" fill="#EFC5CD" points="100.6205 19.78275 100.9035 19.73775 99.8225 19.85075 100.6205 19.78275"></polyline>
        <path d="M41.7515,19.89275 L41.9475,20.27275 C42.3845,20.20475 42.4775,19.77675 41.7515,19.89275" id="Fill-513" fill="#EFC5CD"></path>
        <path d="M16.3375,20.27975 C16.0605,20.08975 15.3455,19.96675 14.9055,20.15375 C15.4765,20.18075 16.0465,20.32875 16.3375,20.27975" id="Fill-514" fill="#EFC5CD"></path>
        <path d="M3.5635,86.10875 L3.4365,85.59875 L3.4895,86.07975 L3.5025,86.19975 C3.5065,86.23675 3.5115,86.27475 3.5155,86.35875 L3.5425,86.78675 L3.5635,86.10875" id="Fill-515" fill="#EFC5CD"></path>
    </g>
</svg>