<?xml version="1.0" encoding="UTF-8"?>
<svg width="110px" height="110px" viewBox="0 0 110 110" version="1.1" xmlns="http://www.w3.org/2000/svg" xmlns:xlink="http://www.w3.org/1999/xlink">
    <!-- Generator: Sketch 64 (93537) - https://sketch.com -->
    <title>Artboard</title>
    <desc>Created with Sketch.</desc>
    <g id="Artboard" stroke="none" stroke-width="1" fill="none" fill-rule="evenodd">
        <path d="M41.205,42.6763716 L41.247,42.6663716 C41.254,42.7183716 41.258,42.7693716 41.262,42.8213716 C41.249,42.7793716 41.225,42.7253716 41.205,42.6763716 Z M69.42,35.1063716 C69.436,33.6973716 69.192,32.2643716 68.668,30.9653716 C68.127,29.6763716 67.415,28.4963716 66.523,27.5663716 C66.619,27.0553716 66.594,26.2353716 65.958,25.4273716 C65.109,24.3233716 63.898,23.1473716 62.525,22.3833716 C61.168,21.5883716 59.642,21.3383716 58.577,21.6243716 C58.193,21.3533716 57.743,21.1663716 57.325,21.0603716 C56.905,20.9703716 56.515,20.9923716 56.249,21.0523716 C55.846,21.1373716 55.447,21.2383716 55.045,21.3343716 C54.755,21.3903716 54.476,21.4443716 54.196,21.4973716 C54.152,21.4963716 54.104,21.4963716 54.061,21.4943716 C53.385,21.4873716 52.694,21.4693716 52.014,21.4953716 C51.67,21.5093716 51.346,21.5293716 50.996,21.5753716 C50.588,21.6413716 50.187,21.7273716 49.803,21.8393716 C49.823,21.8433716 49.851,21.8473716 49.88,21.8513716 C49.706,21.8683716 49.532,21.8853716 49.361,21.9103716 C48.487,22.0303716 47.623,22.2483716 46.826,22.5783716 C45.063,23.4763716 43.139,24.6053716 42.284,25.8913716 C41.775,26.7563716 41.286,27.4853716 40.869,28.2093716 C40.851,28.2313716 40.833,28.2533716 40.815,28.2753716 C40.71,28.3673716 40.608,28.4743716 40.513,28.5923716 C40.509,28.5963716 40.504,28.6023716 40.501,28.6053716 L40.502,28.6073716 C40.397,28.7393716 40.299,28.8843716 40.227,29.0523716 C40.32,28.8823716 40.418,28.7423716 40.517,28.6183716 L40.609,28.6883716 C40.52,28.8603716 40.438,29.0383716 40.36,29.2153716 C39.701,30.0973716 39.199,31.4073716 38.79,31.6933716 C39.085,32.2453716 39.282,31.3673716 39.53,30.6273716 C39.409,31.0183716 39.321,31.4603716 39.214,31.9033716 C39.138,32.3553716 39.061,32.8133716 38.986,33.2573716 C38.98,33.3073716 38.972,33.3553716 38.965,33.4053716 C38.941,33.0223716 38.826,32.7323716 39.117,32.3533716 C39.018,32.1103716 38.898,32.1643716 38.738,32.4213716 C38.61,33.2903716 38.294,34.9333716 38.635,35.0333716 C38.58,35.2103716 38.515,35.3743716 38.428,35.5203716 L38.723,35.9513716 C38.698,36.0153716 38.683,36.0793716 38.665,36.1443716 C38.705,36.0923716 38.742,36.0353716 38.778,35.9763716 C38.895,37.0973716 39.028,38.3093716 39.564,39.0353716 C39.676,39.0963716 39.767,39.1373716 39.844,39.1663716 C39.779,39.5053716 39.63,39.0593716 39.444,38.9953716 C39.652,39.7553716 39.915,40.2983716 40.251,40.4063716 C40.132,39.9953716 39.997,39.5953716 39.903,39.1833716 C40.019,39.2173716 40.099,39.2203716 40.159,39.2033716 C40.473,39.5453716 40.744,39.8063716 40.741,39.9523716 C40.863,40.4783716 40.948,40.9553716 41.026,41.4123716 C41.026,41.4113716 41.025,41.4103716 41.024,41.4093716 C41.024,41.4123716 41.026,41.4143716 41.027,41.4163716 C41.091,41.7933716 41.154,42.1563716 41.22,42.5073716 C41.187,42.5003716 41.154,42.4923716 41.123,42.4833716 C40.898,41.9953716 40.518,41.3323716 40.441,41.0513716 C40.463,41.3843716 40.504,41.7153716 40.569,42.0443716 L40.888,42.2313716 C40.947,42.3633716 40.944,42.4433716 40.92,42.4953716 C40.912,42.5023716 40.906,42.5143716 40.899,42.5243716 C40.872,42.5563716 40.837,42.5773716 40.811,42.5893716 C40.823,42.6063716 40.839,42.6203716 40.853,42.6363716 C40.843,42.6733716 40.833,42.7033716 40.827,42.7563716 L40.936,42.7333716 C41.03,42.8413716 41.125,42.9483716 41.219,43.0553716 C41.253,43.0593716 41.263,43.0363716 41.274,43.0133716 C41.296,43.5003716 41.293,44.0063716 41.838,44.7553716 C41.85,44.7553716 41.872,44.7613716 41.886,44.7623716 C42.09,45.1883716 42.356,45.6183716 42.724,46.0633716 C42.788,46.1753716 43.173,46.3383716 43.561,46.4523716 C43.586,46.4743716 43.606,46.4923716 43.634,46.5153716 C43.936,46.5913716 44.117,46.6013716 44.225,46.5693716 C44.363,46.5773716 44.469,46.5703716 44.496,46.5413716 C44.451,46.1773716 44.096,45.6193716 43.738,45.0463716 C43.778,45.0813716 43.814,45.1213716 43.855,45.1553716 L43.807,45.0673716 C43.777,45.0563716 43.757,45.0483716 43.734,45.0393716 C43.446,44.5783716 43.157,44.1083716 43.029,43.7193716 C43.073,43.3623716 43.076,43.1603716 43.088,42.8243716 C43.118,42.2983716 43.819,42.8653716 44.035,42.9593716 C44.023,42.4473716 43.848,41.9043716 43.618,41.3183716 C44.055,41.9043716 44.545,42.4463716 45.09,42.9313716 L44.894,43.1003716 C45.423,43.4673716 45.281,43.8473716 45.94,44.1933716 L45.961,44.2053716 L45.96,44.2023716 C46.004,43.8253716 45.713,43.5843716 45.493,43.2663716 C47.036,44.5113716 48.927,45.3473716 51.012,45.5893716 L54.155,45.9533716 C54.677,46.0133716 55.19,46.0223716 55.699,46.0093716 C55.182,46.2653716 54.647,46.4803716 54.081,46.5953716 C54.151,47.1423716 54.216,47.7363716 54.61,48.2553716 C55.001,48.7793716 55.752,49.2233716 57.164,49.2283716 C57.588,49.2203716 58.015,49.1553716 58.44,49.0573716 C59.074,49.0923716 59.774,49.0703716 60.522,48.9383716 C60.687,48.7953716 60.872,48.6523716 61.071,48.5093716 C61.263,48.3503716 61.469,48.1893716 61.684,48.0303716 C62.123,47.7233716 62.569,47.3663716 63.012,47.0123716 C63.177,46.8823716 63.336,46.7473716 63.494,46.6123716 C63.594,46.5853716 63.694,46.5563716 63.797,46.5283716 C63.96,46.2913716 64.235,45.9983716 64.493,45.6943716 C64.495,45.6923716 64.497,45.6903716 64.499,45.6883716 C64.771,45.4173716 65.023,45.1553716 65.225,44.9243716 C66.756,43.6703716 67.879,42.0403716 68.557,40.2983716 C68.72,39.8613716 68.853,39.4143716 68.987,38.9723716 C69.108,38.5273716 69.178,38.0713716 69.263,37.6223716 C69.348,37.1733716 69.354,36.7173716 69.393,36.2663716 C69.431,35.7563716 69.419,35.5273716 69.42,35.1063716 L69.42,35.1063716 Z" id="Fill-347" fill="#FFC107"></path>
        <path d="M53.489,49.6953716 C53.246,49.6973716 52.865,49.6063716 52.988,49.4423716 L52.622,49.6073716 L53.714,49.7643716 C53.53,49.5633716 53.193,49.4033716 53.235,49.1393716 L52.765,49.0473716 C53.197,49.2553716 53.299,49.4883716 53.489,49.6953716" id="Fill-348" fill="#EFC5CD"></path>
        <path d="M53.684,49.2523716 C53.893,49.0653716 53.599,48.9503716 53.218,48.8583716 C52.795,48.9743716 53.812,48.8223716 53.477,49.1603716 C53.578,49.1723716 53.653,49.1843716 53.684,49.2523716" id="Fill-349" fill="#EFC5CD"></path>
        <path d="M53.477,49.1603716 C53.407,49.1523716 53.326,49.1433716 53.233,49.1143716 C53.231,49.1243716 53.236,49.1313716 53.235,49.1393716 L53.459,49.1843716 C53.469,49.1743716 53.468,49.1693716 53.477,49.1603716" id="Fill-350" fill="#EFC5CD"></path>
        <path d="M50.854,48.9923716 C50.866,49.0523716 50.912,49.1183716 51.029,49.1963716 C51.044,49.1393716 50.956,49.0683716 50.854,48.9923716" id="Fill-351" fill="#EFC5CD"></path>
        <path d="M50.493,48.2783716 C50.778,48.4403716 50.93,48.5623716 50.824,48.7313716 L50.585,48.6583716 C50.522,48.7583716 50.704,48.8803716 50.854,48.9923716 C50.809,48.7563716 51.313,48.6083716 50.493,48.2783716" id="Fill-352" fill="#EFC5CD"></path>
        <path d="M51.976,48.0273716 L51.802,48.0743716 L52.872,48.6283716 C52.825,48.1853716 52.354,48.4443716 51.976,48.0273716" id="Fill-353" fill="#EFC5CD"></path>
        <path d="M39.712,41.6033716 L39.753,41.5103716 C39.721,41.4823716 39.674,41.4413716 39.637,41.4083716 C39.658,41.4673716 39.678,41.5273716 39.712,41.6033716" id="Fill-354" fill="#EFC5CD"></path>
        <path d="M39.334,40.2263716 C39.358,40.5673716 39.393,40.9103716 39.459,41.2483716 C39.531,41.3033716 39.579,41.3553716 39.637,41.4083716 C39.421,40.7813716 39.73,40.8923716 39.334,40.2263716" id="Fill-355" fill="#EFC5CD"></path>
        <path d="M39.753,41.5103716 C40.049,41.8353716 40.153,42.1183716 40.262,42.4653716 C40.365,42.8143716 40.511,43.2053716 40.94,43.6533716 C40.606,42.7813716 40.17,41.9903716 39.828,41.3503716 L39.753,41.5103716" id="Fill-356" fill="#EFC5CD"></path>
        <polygon id="Fill-357" fill="#272525" points="7 77.5343716 12.395 77.5343716 12.395 55.3893716 7 55.3893716"></polygon>
        <path d="M17.962,75.2943716 C16.332,73.6553716 15.517,71.4673716 15.517,68.7333716 C15.517,65.9993716 16.332,63.8173716 17.962,62.1873716 C19.591,60.5583716 21.7,59.7423716 24.287,59.7423716 C26.432,59.7423716 28.251,60.2743716 29.745,61.3353716 C31.237,62.3983716 32.226,63.9173716 32.71,65.8943716 L26.874,65.8943716 C26.369,64.8433716 25.544,64.3173716 24.398,64.3173716 C23.251,64.3173716 22.399,64.7223716 21.842,65.5303716 C21.285,66.3403716 21.006,67.4083716 21.006,68.7333716 C21.006,70.0583716 21.285,71.1253716 21.842,71.9353716 C22.399,72.7443716 23.214,73.1503716 24.287,73.1503716 C24.96,73.1503716 25.486,73.0333716 25.865,72.8033716 C26.243,72.5723716 26.579,72.1613716 26.874,71.5723716 L32.71,71.5723716 C32.226,73.4653716 31.227,74.9693716 29.713,76.0823716 C28.199,77.1983716 26.39,77.7543716 24.287,77.7543716 C21.7,77.7543716 19.591,76.9353716 17.962,75.2943716" id="Fill-358" fill="#272525"></path>
        <path d="M45.991,72.0133716 C46.705,71.2573716 47.063,70.1633716 47.063,68.7333716 C47.063,67.3033716 46.695,66.2143716 45.959,65.4683716 C45.222,64.7223716 44.35,64.3483716 43.34,64.3483716 C42.331,64.3483716 41.463,64.7223716 40.738,65.4683716 C40.012,66.2143716 39.65,67.3033716 39.65,68.7333716 C39.65,70.1633716 40.023,71.2573716 40.77,72.0133716 C41.516,72.7713716 42.394,73.1503716 43.403,73.1503716 C44.413,73.1503716 45.275,72.7713716 45.991,72.0133716 Z M36.826,75.2633716 C35.049,73.6023716 34.161,71.4143716 34.161,68.7013716 C34.161,65.9883716 35.044,63.8173716 36.811,62.1873716 C38.577,60.5583716 40.764,59.7423716 43.372,59.7423716 C45.98,59.7423716 48.162,60.5583716 49.918,62.1873716 C51.674,63.8173716 52.552,65.9883716 52.552,68.7013716 C52.552,71.4143716 51.679,73.6023716 49.934,75.2633716 C48.188,76.9243716 46.011,77.7543716 43.403,77.7543716 C40.795,77.7543716 38.603,76.9243716 36.826,75.2633716 L36.826,75.2633716 Z" id="Fill-359" fill="#272525"></path>
        <path d="M61.101,59.9323716 L61.101,62.5183716 C62.215,60.6673716 63.992,59.7423716 66.432,59.7423716 C68.451,59.7423716 70.086,60.4153716 71.338,61.7613716 C72.588,63.1083716 73.214,64.9373716 73.214,67.2503716 L73.214,77.5343716 L67.852,77.5343716 L67.852,67.9763716 C67.852,66.8403716 67.552,65.9623716 66.953,65.3413716 C66.353,64.7223716 65.527,64.4103716 64.476,64.4103716 C63.424,64.4103716 62.599,64.7223716 62,65.3413716 C61.4,65.9623716 61.101,66.8403716 61.101,67.9763716 L61.101,77.5343716 L55.706,77.5343716 L55.706,59.9323716 L61.101,59.9323716" id="Fill-360" fill="#272525"></path>
        <path d="M77.473,77.5343716 L82.868,77.5343716 L82.868,59.9323716 L77.473,59.9323716 L77.473,77.5343716 Z M82.394,57.9453716 C81.784,58.5553716 81.038,58.8593716 80.155,58.8593716 C79.271,58.8593716 78.525,58.5553716 77.915,57.9453716 C77.305,57.3343716 77,56.5823716 77,55.6883716 C77,54.7953716 77.305,54.0433716 77.915,53.4333716 C78.525,52.8233716 79.271,52.5183716 80.155,52.5183716 C81.038,52.5183716 81.784,52.8233716 82.394,53.4333716 C83.004,54.0433716 83.309,54.7953716 83.309,55.6883716 C83.309,56.5823716 83.004,57.3343716 82.394,57.9453716 L82.394,57.9453716 Z" id="Fill-361" fill="#272525"></path>
        <path d="M88.435,75.2943716 C86.805,73.6553716 85.99,71.4673716 85.99,68.7333716 C85.99,65.9993716 86.805,63.8173716 88.435,62.1873716 C90.065,60.5583716 92.173,59.7423716 94.76,59.7423716 C96.905,59.7423716 98.724,60.2743716 100.217,61.3353716 C101.711,62.3983716 102.699,63.9173716 103.183,65.8943716 L97.347,65.8943716 C96.842,64.8433716 96.016,64.3173716 94.871,64.3173716 C93.724,64.3173716 92.873,64.7223716 92.316,65.5303716 C91.758,66.3403716 91.479,67.4083716 91.479,68.7333716 C91.479,70.0583716 91.758,71.1253716 92.316,71.9353716 C92.873,72.7443716 93.688,73.1503716 94.76,73.1503716 C95.433,73.1503716 95.959,73.0333716 96.338,72.8033716 C96.716,72.5723716 97.052,72.1613716 97.347,71.5723716 L103.183,71.5723716 C102.699,73.4653716 101.7,74.9693716 100.186,76.0823716 C98.672,77.1983716 96.863,77.7543716 94.76,77.7543716 C92.173,77.7543716 90.065,76.9353716 88.435,75.2943716" id="Fill-362" fill="#272525"></path>
        <polyline id="Fill-363" fill="#272525" points="29.7 85.3273716 29.7 89.8103716 28.608 89.8103716 28.608 87.2803716 27.567 89.8103716 26.756 89.8103716 25.715 87.2803716 25.715 89.8103716 24.624 89.8103716 24.624 85.3273716 25.875 85.3273716 27.165 88.4173716 28.448 85.3273716 29.7 85.3273716"></polyline>
        <polyline id="Fill-364" fill="#272525" points="36.296 85.3153716 36.296 86.1453716 34.674 86.1453716 34.674 87.1093716 36.104 87.1093716 36.104 87.9393716 34.674 87.9393716 34.674 88.9803716 36.296 88.9803716 36.296 89.8103716 33.582 89.8103716 33.582 85.3153716 36.296 85.3153716"></polyline>
        <polyline id="Fill-365" fill="#272525" points="43.077 85.3153716 44.169 85.3153716 44.169 89.8103716 43.077 89.8103716 41.251 86.9823716 41.251 89.8103716 40.159 89.8103716 40.159 85.3153716 41.251 85.3153716 43.077 88.1433716 43.077 85.3153716"></polyline>
        <path d="M49.571,86.1253716 C49.435,86.1253716 49.323,86.1613716 49.236,86.2343716 C49.149,86.3073716 49.105,86.4103716 49.105,86.5473716 C49.105,86.6833716 49.146,86.7923716 49.226,86.8753716 C49.307,86.9593716 49.413,87.0233716 49.543,87.0673716 C49.673,87.1133716 49.817,87.1553716 49.977,87.1963716 C50.136,87.2363716 50.295,87.2843716 50.453,87.3423716 C50.61,87.3993716 50.754,87.4713716 50.883,87.5563716 C51.013,87.6413716 51.118,87.7613716 51.199,87.9163716 C51.28,88.0723716 51.321,88.2583716 51.321,88.4753716 C51.321,88.8543716 51.167,89.1793716 50.857,89.4493716 C50.549,89.7203716 50.143,89.8553716 49.638,89.8553716 C49.134,89.8553716 48.727,89.7343716 48.419,89.4903716 C48.11,89.2483716 47.956,88.9043716 47.956,88.4563716 L49.118,88.4563716 C49.148,88.8143716 49.331,88.9923716 49.667,88.9923716 C49.824,88.9923716 49.948,88.9503716 50.037,88.8673716 C50.127,88.7843716 50.171,88.6803716 50.171,88.5523716 C50.171,88.4243716 50.131,88.3203716 50.05,88.2383716 C49.969,88.1583716 49.864,88.0943716 49.734,88.0473716 C49.604,88.0003716 49.46,87.9573716 49.3,87.9163716 C49.14,87.8763716 48.982,87.8263716 48.824,87.7673716 C48.667,87.7063716 48.523,87.6363716 48.393,87.5533716 C48.263,87.4703716 48.158,87.3513716 48.077,87.1963716 C47.996,87.0403716 47.956,86.8563716 47.956,86.6433716 C47.956,86.2263716 48.111,85.8913716 48.422,85.6403716 C48.732,85.3893716 49.129,85.2643716 49.613,85.2643716 C50.096,85.2643716 50.486,85.3733716 50.784,85.5923716 C51.082,85.8123716 51.238,86.1573716 51.251,86.6303716 L50.063,86.6303716 C50.046,86.4683716 49.994,86.3443716 49.906,86.2573716 C49.819,86.1693716 49.708,86.1253716 49.571,86.1253716" id="Fill-366" fill="#272525"></path>
        <polyline id="Fill-367" fill="#272525" points="60.081 85.3273716 61.256 85.3273716 60.005 89.8103716 58.753 89.8103716 57.968 86.9683716 57.189 89.8103716 55.937 89.8103716 54.666 85.3273716 55.835 85.3273716 56.614 88.5523716 57.412 85.3273716 58.651 85.3273716 59.417 88.5003716 60.081 85.3273716"></polyline>
        <polyline id="Fill-368" fill="#272525" points="67.419 85.3153716 67.419 86.1453716 65.796 86.1453716 65.796 87.1093716 67.227 87.1093716 67.227 87.9393716 65.796 87.9393716 65.796 88.9803716 67.419 88.9803716 67.419 89.8103716 64.704 89.8103716 64.704 85.3153716 67.419 85.3153716"></polyline>
        <path d="M72.546,88.2263716 L73.606,88.2263716 L73.076,86.6303716 L72.546,88.2263716 Z M74.129,89.8103716 L73.88,89.0573716 L72.271,89.0573716 L72.022,89.8103716 L70.86,89.8103716 L72.418,85.3153716 L73.746,85.3153716 L75.298,89.8103716 L74.129,89.8103716 L74.129,89.8103716 Z" id="Fill-369" fill="#272525"></path>
        <path d="M79.85,86.1573716 L79.85,87.2373716 L80.527,87.2373716 C80.693,87.2373716 80.824,87.1883716 80.92,87.0903716 C81.016,86.9923716 81.064,86.8633716 81.064,86.7033716 C81.064,86.5433716 81.015,86.4123716 80.917,86.3113716 C80.819,86.2083716 80.689,86.1573716 80.527,86.1573716 L79.85,86.1573716 Z M79.85,88.0673716 L79.85,89.8103716 L78.759,89.8103716 L78.759,85.3273716 L80.527,85.3273716 C81.047,85.3273716 81.451,85.4613716 81.74,85.7293716 C82.03,85.9973716 82.174,86.3223716 82.174,86.7003716 C82.174,86.9603716 82.096,87.2133716 81.939,87.4603716 C81.781,87.7063716 81.524,87.8813716 81.166,87.9843716 L82.264,89.8103716 L80.987,89.8103716 L79.978,88.0673716 L79.85,88.0673716 L79.85,88.0673716 Z" id="Fill-370" fill="#272525"></path>
    </g>
</svg>