<?xml version="1.0" encoding="UTF-8"?>
<svg width="110px" height="110px" viewBox="0 0 110 110" version="1.1" xmlns="http://www.w3.org/2000/svg" xmlns:xlink="http://www.w3.org/1999/xlink">
    <!-- Generator: Sketch 64 (93537) - https://sketch.com -->
    <title>Artboard</title>
    <desc>Created with Sketch.</desc>
    <g id="Artboard" stroke="none" stroke-width="1" fill="none" fill-rule="evenodd">
        <path d="M80.686,29.73 C81.704,29.73 83.12,30.826 84.388,31.06 L84.971,30.886 C82.171,30.652 82.118,29.154 80.686,29.73" id="Fill-610" fill="#EFC5CD"></path>
        <path d="M91.358,32.337 C90.967,32.451 90.215,32.221 90.262,32.508 C89.384,32.161 89.654,31.932 89.088,31.641 C87.437,31.524 85.117,30.542 83.78,30.482 C84.41,30.598 84.535,30.714 84.971,30.886 C87.286,31.868 90.653,32.393 92.188,33.605 C91.897,33.087 93.429,33.089 91.358,32.337" id="Fill-611" fill="#EFC5CD"></path>
        <path d="M94.19,31.644 C93.95,31.564 93.704,31.489 93.45,31.418 L93.457,31.43 C93.528,31.459 93.598,31.488 93.67,31.518 C93.828,31.58 93.989,31.645 94.153,31.709 C94.332,31.775 94.513,31.843 94.696,31.911 C95.24,32.103 95.787,32.28 96.333,32.449 C95.918,32.272 95.478,32.097 94.998,31.924 C94.735,31.833 94.465,31.739 94.19,31.644" id="Fill-616" fill="#EFC5CD"></path>
        <path d="M91.946,30.751 C92.607,31.138 92.832,31.49 91.793,31.3 L90.938,30.492 L88.065,30.431 C90.232,30.549 92.262,32.225 92.938,31.417 L93.865,32.053 L93.457,31.43 C93.221,31.331 92.991,31.234 92.778,31.14 C92.467,31.002 92.189,30.871 91.946,30.751" id="Fill-617" fill="#EFC5CD"></path>
        <path d="M99.708,33.179 L99.83,33.292 C98.706,33.12 97.524,32.816 96.333,32.449 C96.427,32.489 96.528,32.528 96.617,32.568 C97.601,33 98.37,33.423 98.96,33.802 C98.305,35.089 97.719,36.087 97.274,36.909 C97.12,37.192 96.989,37.454 96.87,37.71 C96.828,37.756 96.786,37.779 96.741,37.753 C96.677,37.23 96.92,36.669 97.263,36.015 C97.602,35.375 98.043,34.637 98.248,34.186 C98.026,34.07 97.831,34.036 97.668,34.157 C97.733,34.227 97.811,34.295 97.914,34.365 C97.437,35.237 97.075,36.187 96.763,36.994 C96.607,37.396 96.464,37.758 96.332,38.032 C96.187,38.353 96.048,38.6 95.925,38.686 C95.94,39.167 96.518,37.987 96.311,39.228 C95.63,41.021 95.496,40.684 94.853,41.689 L94.95,42.82 C94.332,42.812 93.86,44.721 93.301,46.763 C93.892,45.417 94.501,44.04 95.1,42.594 C95.443,41.765 95.781,40.914 96.111,40.035 C96.178,39.855 96.244,39.664 96.312,39.48 C95.831,43.125 93.957,46.102 92.986,49.686 C92.862,51.573 93.734,48.06 94.037,47.95 C94.675,48.694 93.105,49.546 93.506,50.563 C94.01,50.967 95.236,47.037 96.049,45.585 C96.374,44.206 96.19,44.173 95.989,43.662 C96.411,43.416 96.921,42.067 97.344,41.819 C97.444,41.08 97.599,40.449 97.781,39.873 C97.872,39.584 97.971,39.31 98.071,39.043 C98.189,38.736 98.303,38.435 98.417,38.135 C98.929,36.776 99.493,35.227 99.73,33.558 C99.836,33.391 99.908,33.297 99.951,33.268 C99.951,33.264 99.956,33.26 99.968,33.26 C99.97,33.258 99.97,33.262 99.972,33.261 L99.973,33.256 L99.708,33.179" id="Fill-618" fill="#EFC5CD"></path>
        <path d="M99.972,33.261 L99.458,35.006 C99.266,35.545 99.454,35.099 99.663,34.51 C99.869,33.932 100.093,33.221 99.972,33.261" id="Fill-619" fill="#EFC5CD"></path>
        <path d="M91.946,30.751 C91.8,30.665 91.633,30.578 91.452,30.494 C91.588,30.57 91.758,30.657 91.946,30.751" id="Fill-620" fill="#EFC5CD"></path>
        <path d="M88.548,29.649 L87.041,29.221 C87.893,29.54 88.326,29.648 88.548,29.649" id="Fill-621" fill="#EFC5CD"></path>
        <path d="M90.279,29.627 C87.979,28.718 89.206,29.654 88.548,29.649 L90.698,30.263 L90.279,29.627" id="Fill-622" fill="#EFC5CD"></path>
        <path d="M92.929,51.743 C92.907,53.013 93.603,51.695 93.929,50.315 C93.535,51.529 93.063,52.083 92.929,51.743" id="Fill-623" fill="#EFC5CD"></path>
        <path d="M85.57,66.688 C85.374,66.77 85.142,67.123 84.979,68.118 C85.147,67.921 85.35,67.377 85.57,66.688" id="Fill-624" fill="#EFC5CD"></path>
        <path d="M96.748,36.178 C96.695,36.339 96.642,36.504 96.589,36.664 C96.641,36.522 96.695,36.358 96.748,36.178" id="Fill-625" fill="#EFC5CD"></path>
        <path d="M89.409,55.545 L89.534,55.349 C89.486,55.411 89.453,55.473 89.41,55.536 C89.41,55.536 89.411,55.538 89.409,55.545" id="Fill-626" fill="#EFC5CD"></path>
        <path d="M29.032,86.357 C29.59,86.645 30.93,86.705 31.931,87.167 C31.057,86.821 29.567,85.897 29.032,86.357" id="Fill-631" fill="#EFC5CD"></path>
        <path d="M28.475,88.487 L28.517,88.39 C28.375,88.386 28.191,88.369 27.989,88.347 C28.148,88.4 28.308,88.449 28.475,88.487" id="Fill-632" fill="#EFC5CD"></path>
        <path d="M28.621,88.143 L28.517,88.39 C28.814,88.395 28.933,88.344 28.621,88.143" id="Fill-633" fill="#EFC5CD"></path>
        <path d="M24.574,87.214 L26.523,87.85 C26.38,88.196 26.307,88.369 25.111,87.963 C25.358,88.195 26.502,88.312 27.138,88.429 L26.699,88.256 C26.996,88.23 27.532,88.3 27.989,88.347 C26.258,87.769 25.199,86.476 24.574,87.214" id="Fill-634" fill="#EFC5CD"></path>
        <path d="M21.727,86.693 C22.48,86.923 24.309,87.444 23.893,86.811 L21.727,86.693" id="Fill-635" fill="#EFC5CD"></path>
        <path d="M18.92,85.248 C21.101,86.229 20.025,85.282 21.386,85.564 C20.984,85.441 20.61,85.308 20.259,85.307 C21.382,85.885 19.432,85.249 18.92,85.248" id="Fill-636" fill="#EFC5CD"></path>
        <path d="M21.386,85.564 C21.571,85.621 21.766,85.676 21.963,85.711 C21.728,85.64 21.549,85.599 21.386,85.564" id="Fill-637" fill="#EFC5CD"></path>
        <path d="M43.117,89.776 L43.044,89.551 C42.919,89.578 42.892,89.637 43.117,89.776" id="Fill-638" fill="#EFC5CD"></path>
        <path d="M56.486,92.561 C56.305,92.507 56.123,92.453 55.944,92.399 C55.894,92.335 56.306,92.405 57.011,92.562 L56.486,92.561 Z M50.901,90.923 C51.176,91.007 51.445,91.088 51.706,91.166 C51.247,91.038 50.9,90.946 50.688,90.899 C50.758,90.906 50.827,90.911 50.901,90.923 Z M89.285,54.974 C89.972,53.427 89.279,56.145 89.939,54.877 C89.778,56.528 88.113,58.219 87.623,61.089 C87.828,60.069 88.102,60.566 88.05,61.115 C87.262,62.862 86.523,65.853 85.943,67.665 C86.057,67.615 86.16,67.65 86.233,67.706 C85.548,69.253 85.396,69.726 84.484,71.396 C81.715,77.858 79.736,87.267 77.073,92.626 C76.041,94.253 77.159,90.628 76.706,91.291 C76.394,93.498 76.272,95.204 76.304,96.501 C71.745,94.492 66.577,92.682 61.026,90.971 C60.231,90.863 59.525,90.839 60.535,91.325 C62.314,91.558 63.051,92.251 61.708,92.191 C59.808,91.843 62.047,91.788 59.757,91.555 L60.757,92.017 C58.611,91.437 57.465,91.32 56.054,91.435 C47.838,88.253 38.238,87.144 31.241,83.909 L28.559,83.788 C28.514,83.502 28.339,83.097 27.074,82.865 C27.512,83.039 28.272,83.271 28.074,83.328 L22.465,81.647 L22.955,82.11 C22.113,81.677 20.833,81.373 19.548,81.032 C18.295,80.702 16.818,80.27 16.486,79.853 C16.391,80.019 15.407,79.872 15.268,80.103 C14.834,79.91 14.407,79.736 13.973,79.574 C14.338,78.571 14.627,77.633 14.903,76.671 C15.259,75.415 15.613,74.164 15.96,72.941 C16.672,70.457 17.411,68.106 18.389,66.162 C18.043,66.525 18.043,66.018 17.986,65.82 C18.507,63.993 18.333,65.453 18.679,65.09 C17.414,63.871 26.633,40.639 26.752,37.449 C26.579,37.885 26.405,38.326 26.349,38.131 C27.47,34.294 28.635,30.307 29.793,26.343 C30.366,24.359 30.939,22.382 31.502,20.432 C31.756,19.527 32.008,18.63 32.258,17.741 C32.479,16.926 32.697,16.119 32.913,15.322 C33.7,15.527 34.443,15.721 35.175,15.912 C34.247,15.614 34.045,15.319 33.939,15.036 C33.827,14.752 33.85,14.489 33.085,14.171 C32.382,14.092 32.937,14.349 33.371,14.564 C33.819,14.784 34.151,14.964 33.293,14.817 C32.933,14.591 32.619,14.418 32.36,14.292 C32.005,14.915 32.04,15.489 32.038,16.023 C32.035,16.296 32.021,16.566 31.929,16.876 C31.836,17.189 31.669,17.531 31.333,18.045 C31.341,17.511 31.362,16.928 31.4,16.297 C31.018,18.185 30.614,19.944 30.102,21.902 C29.595,23.844 29.016,25.86 28.438,27.75 L27.977,27.217 C27.803,28.676 27.166,30.625 26.59,30.723 C28.036,26.387 26.944,25.243 28.33,22.758 C28.444,23.146 28.388,22.95 28.618,22.706 C28.59,22.098 28.606,21.251 28.744,20.307 C28.813,19.835 28.913,19.338 29.053,18.834 C29.123,18.583 29.203,18.329 29.295,18.076 C29.357,17.908 29.418,17.738 29.48,17.568 C29.551,17.386 29.623,17.203 29.695,17.019 L29.695,17.66 C29.699,17.861 29.694,18.095 29.719,18.222 C30.28,16.379 30.861,14.471 31.437,12.58 C32.809,12.994 34.173,13.405 35.499,13.806 C36.119,13.982 36.731,14.157 37.33,14.328 C37.805,14.457 38.272,14.578 38.729,14.689 C37.92,14.169 38.945,14.171 40.335,14.519 C42.406,15.27 39.629,14.575 40.436,15.095 C41.531,16.134 45.555,16.313 47.066,16.775 C46.554,16.774 51.011,18.336 48.163,17.814 C51.432,18.973 54.059,18.802 56.037,20.188 C56.426,20.073 57.325,19.958 58.277,20.134 L58.056,20.65 L59.278,20.597 C61.499,21.277 62.282,22.67 64.655,22.89 C64.215,22.8 63.33,22.572 63.349,22.272 C63.686,21.868 67.978,23.027 67.317,22.162 L65.344,21.987 C66.122,21.758 63.662,21.121 64.248,20.948 L59.126,19.73 L59.153,19.271 L60.271,19.848 C62.024,19.332 57.813,19.211 56.52,18.23 L56.372,18.574 C52.108,16.956 54.688,17.707 51.178,16.32 L49.96,16.376 C49.767,16.434 53.324,16.901 53.106,17.418 C50.693,17.068 47.549,16.027 44.944,15.735 L46.92,15.427 C45.971,15.475 44.712,14.191 42.43,13.602 L44.429,14.525 C43.43,14.667 41.947,14.232 40.351,13.72 C39.553,13.462 38.725,13.186 37.914,12.951 C37.693,12.89 37.473,12.828 37.256,12.769 C36.916,12.678 36.581,12.588 36.252,12.5 C35.597,12.332 34.97,12.189 34.398,12.083 C35.665,12.468 36.941,12.855 37.071,13.168 C35.991,13.113 33.259,12.126 31.444,11.419 C31.472,10.922 34.318,11.65 37.034,12.367 C37.195,12.41 37.357,12.452 37.516,12.494 C37.61,12.517 37.703,12.538 37.795,12.561 C37.98,12.603 38.158,12.644 38.329,12.683 C38.671,12.759 38.981,12.822 39.236,12.859 C39.744,12.934 40.033,12.905 39.916,12.674 C39.312,12.474 38.711,12.323 38.123,12.203 C37.976,12.175 37.829,12.147 37.684,12.119 C37.637,12.114 37.488,12.079 37.354,12.048 L36.956,11.958 C36.44,11.848 35.931,11.739 35.431,11.633 C33.462,11.23 31.828,10.965 30.391,10.638 C30.157,11.621 29.925,12.463 29.651,13.186 C29.772,12.193 29.909,11.142 30.065,10.032 L30.246,10.046 L30.047,10 L29.386,12.772 L29.66,11.998 C29.648,12.812 29.388,13.636 29.047,14.596 C28.876,15.08 28.694,15.597 28.508,16.12 C28.417,16.388 28.329,16.661 28.248,16.937 L28.13,17.352 L28.076,17.56 L28.049,17.691 C28.037,17.649 28.025,17.612 28.014,17.565 L28.003,17.361 L27.985,16.942 L27.958,16.063 L27.069,18.982 L27.299,18.737 C26.429,22.468 25.387,25.613 24.058,28.808 L24.867,26.93 C24.924,27.126 24.635,28.195 24.288,29.074 C24.692,28.902 25.328,26.441 25.559,26.71 C24.517,29.855 23.999,30.143 22.784,33.22 C22.899,33.608 24.228,31.435 23.647,34.096 C23.245,33.754 22.376,35.949 22.438,34.095 C22.101,36.418 21.563,35.675 21.569,37.613 C21.606,37.39 21.731,37.071 21.857,36.752 C22.319,36.261 21.856,37.776 21.739,38.411 C21.105,39.337 20.644,39.822 20.064,41.459 L19.312,45.064 C19.195,45.186 19.138,44.99 19.138,44.99 C18.326,48.403 16.939,51.914 16.473,54.45 C16.587,54.841 16.587,55.861 17.108,54.034 C17.106,55.568 16.124,57.372 15.488,58.812 L15.374,57.4 C14.217,61.688 12.021,66.565 11.38,70.562 L11.956,69.955 C11.739,70.884 11.481,71.795 11.208,72.671 C11.068,73.107 10.93,73.538 10.794,73.958 C10.648,74.397 10.505,74.826 10.366,75.242 C9.417,78.212 8.555,80.925 8.192,82.687 C8.207,82.691 8.219,82.694 8.232,82.697 C8.22,82.691 8.208,82.686 8.201,82.683 C8.742,81.396 8.971,80.981 9.024,81.04 C9.076,81.103 8.951,81.648 8.755,82.385 C10.373,82.819 12.749,83.543 13.489,83.668 C12.148,83.19 10.573,82.719 8.968,82.27 C9.474,80.456 9.928,78.666 10.282,77.3 C10.562,76.22 10.783,75.395 10.871,75.186 C10.848,75.208 10.823,75.232 10.79,75.29 L11.899,70.269 L12.418,70.484 C11.324,69.854 14.904,64.025 13.578,64.659 C13.926,63.273 14.561,62.855 14.79,63.124 L15.602,59.202 C15.948,58.835 16.235,59.811 16.061,60.25 C15.599,61.761 15.307,64.363 14.326,65.658 C14.266,66.999 15.249,64.682 14.554,67.46 C13.656,69.429 12.951,71.645 12.315,73.774 C11.923,75.083 11.541,76.362 11.18,77.568 C10.722,79.072 10.274,80.486 9.802,81.82 C10.424,82.043 10.998,82.264 11.528,82.486 C10.533,81.989 9.444,81.657 11.179,81.872 C12.116,82.304 13.129,82.759 14.218,83.235 C14.951,83.425 15.647,83.566 16.189,83.653 C16.58,83.687 16.937,83.717 17.276,83.746 C17.95,83.807 18.546,83.904 19.164,84.27 C19.455,84.184 18.655,83.851 17.644,83.468 C17.105,83.268 16.512,83.048 15.976,82.85 C15.286,82.601 14.69,82.375 14.332,82.207 C15.124,82.127 15.73,82.191 16.322,82.359 C16.481,82.403 16.602,82.443 16.715,82.486 C16.833,82.531 16.95,82.58 17.067,82.633 C17.3,82.737 17.531,82.856 17.763,82.978 C18.69,83.461 19.623,83.981 20.721,83.811 C21.765,83.351 15.797,82.537 17.67,82.135 L20.18,83.061 C19.448,82.368 18.358,82.121 17.402,81.911 C16.491,81.715 15.468,81.48 15.45,80.986 C16.008,81.001 16.829,81.234 17.669,81.53 C18.486,81.819 19.205,82.137 19.327,82.253 C20.155,82.312 18.032,81.27 19.495,81.446 C20.861,82.255 21.713,81.853 22.761,82.603 L21.983,82.832 C23.057,83.122 25.691,84.163 26.955,84.395 C26.861,85.029 23.692,84.448 22.497,84.043 C23.423,84.678 25.447,85.142 26.521,85.432 L24.643,84.622 C27.546,85.434 27.153,84.338 30.417,85.495 C33.194,86.189 30.956,86.244 31.762,86.765 C34.928,87.345 32.833,87.054 32.93,86.421 C35.39,87.057 35.881,87.52 39.096,88.388 C37.194,88.039 36.609,88.211 34.852,87.517 L35.268,88.15 C37.806,88.616 39.851,88.619 42.898,89.085 L43.044,89.551 C43.748,89.403 67.267,96.482 66.028,95.309 C66.347,95.515 61.32,94 56.895,92.683 L57.177,92.6 C60.85,93.435 71.234,96.269 68.194,95.426 C68.608,94.852 70.096,95.775 70.191,95.141 C72.687,95.666 74.589,96.228 76.316,96.811 C76.43,99.232 77.145,100.07 78.241,99.887 C78.292,99.566 78.344,99.249 78.394,98.937 C78.493,99.015 78.919,99.045 79.126,98.019 C79.44,96.463 78.887,97.478 78.649,97.578 C78.62,97.564 78.591,97.552 78.563,97.538 C78.546,97.492 78.541,97.415 78.554,97.286 C80.444,95.475 79.769,90.247 81.987,88.383 C84.619,78.874 87.765,67.391 90.617,58.936 L90.366,59.33 C90.461,58.347 91.361,56.098 91.656,56.134 L91.262,55.591 C92.008,52.315 92.473,57.678 93.462,54.025 C92.598,55.79 92.233,53.981 92.743,52.633 C92.506,52.911 91.655,52.637 91.474,53.392 L90.337,55.18 C91.163,55.51 89.792,58.605 89.26,59.674 C89.247,59.632 89.236,59.584 89.224,59.539 C89.343,59.114 89.305,59.168 89.189,59.408 C89.019,58.671 89.036,57.622 89.781,56.517 C90.111,55.03 90.554,53.605 91.065,52.197 C90.433,52.767 89.775,53.228 89.285,54.974 L89.285,54.974 Z" id="Fill-642" fill="#6D7781"></path>
        <path d="M91.065,52.197 C91.489,51.815 91.903,51.385 92.245,50.481 C92.198,50.365 92.152,50.252 92.071,50.338 C92.556,49.392 92.946,48.055 93.301,46.763 C93.215,46.958 93.129,47.154 93.044,47.348 C92.328,48.984 91.651,50.58 91.065,52.197" id="Fill-643" fill="#EFC5CD"></path>
        <path d="M91.656,56.134 L91.736,56.243 C91.72,56.168 91.692,56.139 91.656,56.134" id="Fill-644" fill="#EFC5CD"></path>
        <path d="M12.4923536,40.7510672 C12.5611174,40.5371951 12.6287897,40.2704941 12.6975534,40.0029409 C12.7663172,39.5751967 12.9027533,39.1474525 12.9715171,38.7205603 C13.0402809,38.238283 12.9715171,37.7577098 12.9027533,37.2754325 C12.835081,37.0615604 12.6287897,37.0087314 12.4923536,37.1160935 C12.2172984,37.2754325 12.01319,37.3827946 11.8756625,37.6503477 C11.6016988,38.0780919 11.3277352,38.5586651 11.1912991,39.0400904 C11.1236268,39.2011335 10.9860992,39.3613246 10.9162439,39.5215156 C10.7798078,39.7353878 10.6422803,39.9492599 10.5058442,40.216813 C10.3683166,40.7510672 10.2318805,41.3398546 10.0266806,41.9277899 C9.75271699,43.3183846 11.6693711,43.3712136 12.0808623,42.4092151 C12.2172984,41.8741088 12.354826,41.3398546 12.4923536,40.7510672 Z M10.6502994,46.9776235 C11.1653228,45.5185761 11.3203219,44.3498494 9.62107263,45.576268 C9.05602303,47.5033644 8.84935758,48.8460974 8.3860005,50.6559489 C7.25426111,55.5030011 8.90102394,51.8832981 9.62107263,49.721712 C9.98191707,48.6125382 10.1877624,48.0291053 10.6502994,46.9776235 Z M19.5803932,55.605232 C19.5803932,55.9380544 19.4022354,55.9380544 19.4616213,56.2152592 C19.5210073,56.4368464 18.8705898,58.0426921 18.7518179,58.2642794 C18.3973876,59.1515113 17.981686,60.0378604 17.6272556,60.9242095 C17.0946674,61.9217937 16.5620792,62.8081428 16.0304336,63.7492266 C15.7938325,64.1367837 13.0140048,67.4605929 12.7180178,67.683063 C11.9488284,68.1809722 10.6470509,69.6208481 9.93819014,70.0649055 C9.46404525,70.3421103 7.69000808,70.9512546 7.27619176,71.0068721 C6.50700242,71.0616068 5.67936978,71.1181072 4.96956639,70.9512546 C3.72717479,70.7852849 1.89280905,69.0673213 1.30177754,67.9593849 C1.00579047,67.4605929 0.651360086,67.0174183 0.473202262,66.4638915 C0.236601131,65.744395 0.0593859413,64.5799582 0,63.7492266 C0,59.095011 0.591974145,58.4302491 2.01158093,53.9437688 C2.12941018,53.555329 2.18785349,53.2233895 2.30662537,52.8358324 C2.36695395,52.4473926 2.5432265,52.0607184 2.66199838,51.7278961 C2.83921357,51.1178689 3.01642876,50.5096074 3.19458659,49.9551978 C3.49057366,48.7360264 5.0280097,46.6305058 3.60840291,46.3541838 C3.19458659,46.2985663 2.83921357,46.3541838 2.48478319,46.076979 C2.12941018,45.8553918 1.7749798,45.689422 1.41960679,45.4678347 C1.30177754,45.3565997 1.12456235,45.2462474 1.06423377,44.9690426 C1.18300566,44.9134251 1.30177754,44.8578076 1.36116348,44.8578076 C2.18785349,44.6918378 2.95798546,44.5258681 3.78656073,44.3598983 C4.3182063,44.2486633 4.91018045,44.1939286 5.50121196,44.138311 C5.73781309,44.0826935 5.97441422,43.9723413 6.09224347,43.6951365 C6.27134393,43.2510791 6.56638837,42.8644049 6.68421761,42.3656128 C7.27619176,41.3132939 7.69000808,40.2044747 8.34042553,39.2077734 C8.93239968,38.3205415 9.52343119,37.5454274 10.2926205,36.8797827 C10.4104498,36.7146958 10.5886076,36.5478432 10.7073795,36.437491 C10.9439806,36.2715212 11.1805817,36.1602862 11.4756262,36.2159037 C11.8309992,36.3262559 12.1863722,36.1602862 12.5992459,36.1602862 C12.6586318,36.1602862 12.6586318,36.1602862 12.7180178,36.1046687 C13.5456504,35.9386989 13.8425801,36.2715212 14.0791813,36.8797827 C14.3742257,37.4341923 14.4929976,37.9886019 14.4929976,38.6533638 C14.4929976,38.9853033 14.5514409,39.2625081 14.6108268,39.5397129 C14.6702128,39.7613002 14.6702128,40.038505 14.6108268,40.3157098 C14.5514409,40.5920318 14.4929976,40.8692366 14.4336116,41.2020589 C14.3148398,41.6452335 14.1970105,42.088408 14.0791813,42.5315826 C14.0791813,42.6975523 14.0791813,42.8079046 14.0188527,42.9747571 C14.1970105,43.0859922 14.3742257,43.0859922 14.6108268,43.0859922 C15.3206302,43.0294918 16.0898196,42.9747571 16.7986803,42.9191396 C17.8054134,42.9191396 18.8705898,42.9191396 19.8754377,42.9191396 C20.229868,42.9191396 20.585241,43.0294918 21,43.0859922 C20.8812281,43.2510791 20.8218422,43.3623142 20.7633989,43.4188145 C20.6455696,43.5291667 20.4664692,43.639519 20.3486399,43.6951365 C19.9348236,43.8611062 19.4616213,44.0826935 19.0468624,44.2486633 C19.0468624,44.3042808 18.9884191,44.3042808 18.9884191,44.3042808 C18.337059,44.3598983 17.6272556,44.6362203 16.9174522,44.5806028 C16.5036359,44.5806028 16.0898196,44.6362203 15.6750606,44.7465725 C15.4384595,44.8578076 15.143415,44.8578076 14.9068139,44.9134251 C14.4336116,44.9690426 14.0188527,45.0246602 13.5456504,45.0793949 C13.3090493,45.1350124 13.19122,45.3009821 13.0724482,45.5225694 C13.0140048,45.5781869 13.0140048,45.6329217 12.9546189,45.689422 C12.2448155,47.5733553 11.298411,49.3451707 10.5292217,51.1734864 C10.4104498,51.3950737 10.2926205,51.6175438 10.2341772,51.7826308 C9.93819014,52.3370404 9.70158901,52.8358324 9.52343119,53.4449768 C9.346216,53.9437688 9.05117156,54.4425609 8.75424185,54.8857355 C8.51858336,55.2732925 8.5779693,55.7720846 8.28103959,56.1587588 C7.63062214,57.5447828 6.8614328,61.7549411 6.97926205,63.8604617 C7.03959063,64.7468108 7.27619176,65.5775424 7.5712362,66.408274 C7.69000808,66.6854788 7.92660921,66.8523314 8.1038244,67.0739186 C8.16321034,67.0739186 8.22259628,67.1286533 8.34042553,67.1286533 C8.87301374,67.1286533 9.93819014,67.1842709 10.4707783,66.8523314 C10.8261514,66.6307441 12.5992459,65.3012204 12.9546189,65.0231328 C13.8425801,64.1924012 15.8541611,62.143381 16.4442499,61.0354446 C16.9777808,60.0925951 17.2728252,58.8734237 17.8054134,57.9879574 C18.0420145,57.4335478 18.6339887,56.2152592 18.9290331,55.605232 C19.2250202,55.6608496 19.6388365,55.4392623 19.5803932,55.605232 L19.5803932,55.605232 Z" id="Fill-645" fill="#000000"></path>
        <path d="M23.6714422,57.589464 C23.9111748,56.7252111 26.0095511,52.6379 26.4288443,51.9470481 C26.7889207,51.4295973 27.148042,50.9103115 27.4469914,50.3350603 C27.8070678,49.8735749 28.1661891,49.3561241 28.4059217,48.8955561 C28.6456543,48.4927886 29.0057307,48.2625046 29.3658071,48.2047042 C29.7851003,48.2047042 30.1451767,48.1478213 30.5052531,48.1478213 C31.2234957,48.1478213 31.643744,48.6652722 32.0028653,49.4139244 C32.0028653,49.4717248 32.0028653,49.5286077 32.0028653,49.6432909 C32.1222541,50.3928607 32.3018147,51.1983958 32.4221585,52.0048485 C32.5425024,52.7535007 32.4823305,53.5590359 32.4823305,54.3067707 C32.4823305,54.8260564 32.5425024,55.3435073 32.4823305,55.8618756 C32.7812798,56.0343592 32.722063,56.2646431 32.7812798,56.2077602 C32.9016237,56.0921595 33.321872,56.2646431 33.4422159,56.1490424 C33.5004776,56.0343592 33.6208214,55.9774763 33.6809933,55.8618756 C33.9207259,55.6893919 34.1604585,55.5169083 34.400191,55.228824 C34.5797517,54.9416571 34.7602674,54.9416571 35,55.228824 C35,55.4013076 34.938873,55.5737912 34.7602674,55.6893919 C34.6991404,55.7471923 34.6399236,55.8618756 34.5797517,55.9774763 C34.5205349,56.1490424 34.400191,56.323361 34.2206304,56.3802438 C34.1604585,56.4380442 34.1002865,56.4949271 34.0410697,56.5536449 C33.9808978,56.6105278 33.860554,56.6683282 33.860554,56.7252111 C33.800382,56.7839289 33.7411652,56.7839289 33.6809933,56.8408118 C33.4422159,57.0710958 33.260745,57.1288961 33.0210124,57.1288961 C32.9617956,57.1288961 32.722063,57.185779 32.4823305,57.3591801 C32.3018147,57.4738633 32.1222541,57.4738633 32.0028653,57.3591801 C31.582617,57.1288961 31.1633238,57.0710958 30.7440306,56.8986121 C30.025788,56.7252111 29.4851958,56.0921595 29.1862464,55.2866244 C28.8271251,54.2498878 28.8271251,53.0984679 29.0057307,52.0048485 C29.1260745,51.4855627 29.1260745,51.0259122 29.1862464,50.5653443 C29.2454632,50.2194596 29.3056351,49.8735749 29.3658071,49.5286077 C29.4851958,49.2983237 29.4851958,49.1258401 29.425979,48.8955561 C29.3658071,48.8955561 29.2454632,48.8386733 29.2454632,48.9533565 C29.1862464,49.0102394 29.0659026,49.1258401 29.0057307,49.2414408 C28.7659981,49.7020088 28.4670487,50.1625767 28.1661891,50.6800275 C27.9875836,50.9681119 27.8672397,51.3139965 27.8070678,51.7167641 C27.8672397,51.9470481 27.6876791,52.1204492 27.6275072,52.2920153 C27.0878701,53.271869 26.608405,54.1920874 26.2492837,55.2866244 C25.9493792,56.0921595 25.530086,56.7839289 25.1709647,57.589464 C24.6303725,58.7986842 23.9723018,59.8923037 23.5510984,61.1584068 C23.4317096,61.5620919 23.1919771,62.0226598 23.0124164,62.4832277 C22.8930277,62.8291124 21.3944604,65.5916026 21.0353391,65.8806044 C21.0353391,65.9952876 20.8548233,66.0521705 20.7344795,66.1677712 C20.0162369,67.1467075 19.1766953,67.0889071 18.217765,66.8586231 C18.0974212,66.9742239 17.9780325,66.8586231 17.8576886,66.7439399 C16.8987584,66.5127385 16.4192932,65.6503204 16.1805158,64.4979831 C16,63.5190469 16,62.4832277 16,61.5042915 C16.0601719,60.006987 16.1193887,58.5096825 16.2397326,57.0132954 C16.5396371,55.3435073 16.3008596,55.459108 16.7784145,53.9049206 C17.1986628,51.6598812 16.9589303,52.0048485 17.7984718,49.7588917 C17.8576886,49.3561241 18.0974212,49.0680398 18.217765,48.6652722 C18.6370583,47.6285356 18.9971347,46.7083172 19.4765998,45.7862638 C19.7163324,45.038529 19.9560649,44.9229283 20.5558739,45.038529 C20.974212,45.038529 21.5138491,45.1532123 22.0534862,45.268813 C22.4126074,45.3256959 22.7726839,45.4412966 23.252149,45.8440642 C23.6714422,46.5927165 24.2712512,47.1110848 24.8710602,47.8019367 C25.4106972,48.7230725 25.530086,49.4139244 25.1709647,50.5075439 C24.8710602,51.6598812 24.7507163,50.7956283 24.4508118,52.0048485 C23.6714422,54.4223714 22.2330468,56.323361 21.574021,58.5096825 C20.6752627,61.2740075 23.4317096,58.5674828 23.6714422,57.589464" id="Fill-646" fill="#000000"></path>
        <path d="M57,55.5852686 C56.9385244,55.9706633 56.3266961,57.2897643 56.020294,57.5096144 C55.8368431,57.5639201 55.7753675,57.7294646 55.6533922,57.7837702 C55.4084657,58.057926 55.224039,58.2786521 54.9791125,58.4976263 C54.8561613,58.6079894 54.6736862,58.7174765 54.6122106,58.883021 C54.4287597,59.2123583 54.1838332,59.3779029 53.8774311,59.5425715 C53.75448,59.5977531 53.6315288,59.6529346 53.5720049,59.7624217 C53.2041272,60.1469405 52.7142742,60.4762778 52.3463966,60.806491 C51.9785189,61.0815227 51.6116171,61.2461913 51.1832397,61.3565544 C50.6319111,61.4669174 50.1410823,61.4669174 49.6522051,61.631586 C49.2238277,61.7962547 48.7329989,61.7962547 48.2441217,61.9057418 C48.059695,61.9057418 47.8762441,61.9057418 47.6927932,61.9057418 C46.9570379,61.6867676 46.2232342,61.5764045 45.6114058,61.1367042 C45.5489545,61.0815227 45.4269791,61.0263412 45.304028,60.9720355 C44.7536752,60.7521854 44.2023466,60.4762778 43.834469,60.0365775 C43.344616,60.2564276 42.9162386,60.4762778 42.5483609,60.7521854 C42.3034344,60.8625484 42.1199835,60.9720355 41.875057,61.1367042 C41.8145572,61.1367042 41.7521059,61.1918857 41.7521059,61.1918857 C41.385204,61.631586 40.895351,61.6867676 40.4064738,61.8514362 C39.5487432,62.0712864 38.6919884,62.0712864 37.8947575,61.6867676 C37.5893312,61.5220989 37.2819534,61.4117359 36.9765271,61.3013728 C35.2015419,60.6426982 34.2208601,59.4330844 34.0374091,57.7294646 C33.914458,56.8491881 34.0988847,56.0249689 34.5272621,55.2550554 C34.9556396,54.5411993 35.384017,53.8264673 35.9968211,53.2212224 C35.9968211,53.1669168 36.0582967,53.1117353 36.1187965,53.0574297 C36.9150515,51.9581788 37.8947575,50.9132336 38.8139637,49.92347 C39.4872676,49.2639195 40.2220471,48.714732 41.1402775,48.2198502 C41.2632287,48.1655445 41.5071794,48.110363 41.6916061,48.110363 C42.0585079,48.0551815 42.4263856,48 42.854763,48 C42.9162386,48 42.9767384,48 43.0391897,48 C43.4060916,48.1655445 43.8959446,48.1655445 44.324322,48.2750317 C44.4472731,48.3302132 44.5692485,48.3853947 44.6921996,48.3853947 C44.9986017,48.4397003 45.2435282,48.4397003 45.3664793,48.6595505 C45.4269791,48.714732 45.4884547,48.714732 45.4884547,48.714732 C45.793881,48.714732 46.0388075,48.9888878 46.3452095,48.9888878 C46.4671849,48.9888878 46.590136,49.0440693 46.6516116,49.0992508 C47.0185134,49.429464 47.4478667,49.7036198 47.6927932,50.0890145 C47.7542687,50.2536832 47.8147685,50.3631703 47.8762441,50.5287148 C47.9991952,51.0227208 47.8762441,51.3520581 47.3249155,51.6279656 C46.7745627,51.8478158 46.2837339,52.1771531 45.793881,52.5073663 C45.793881,52.5073663 45.793881,52.5073663 45.793881,52.5625478 C45.1215528,53.1669168 44.324322,53.7161043 43.7739692,54.4317122 C43.5290427,54.7058679 43.2841162,54.9257181 43.0391897,55.1455683 C42.4878612,55.6947557 42.0585079,56.3000006 41.5696308,56.9043696 C41.385204,57.1794013 41.1402775,57.453557 40.9568266,57.6734072 C40.8338755,57.7837702 40.7733757,57.8932574 40.7119001,58.0036204 C40.3440225,58.6079894 40.099096,59.2123583 39.9761448,59.8176032 C39.9156451,59.8727847 39.9761448,59.9270903 39.9761448,60.0365775 C40.099096,59.9822719 40.1615474,59.9270903 40.2220471,59.8727847 C40.8338755,59.3227214 41.5071794,58.7735339 42.2419589,58.2786521 C42.6098365,58.0036204 42.9162386,57.7294646 43.1611651,57.3440699 C43.2841162,57.1794013 43.4665913,57.0147326 43.6510181,56.8491881 C44.0188957,56.4646692 44.3857976,56.0801504 44.6921996,55.6404501 C45.1215528,55.0352052 45.5489545,54.4317122 45.9783077,53.7712858 C46.5296362,53.7161043 46.9570379,53.7712858 47.3249155,54.1558046 C47.4478667,54.2652917 47.569842,54.3756547 47.6927932,54.4851419 C48.1211706,54.9808996 48.1816703,55.5300871 48.2441217,56.0801504 C48.2441217,56.1905135 48.1816703,56.2448191 48.1211706,56.3543062 C47.8762441,56.8491881 47.569842,57.3992514 47.2634399,57.8932574 C47.079989,58.2786521 47.0185134,58.6631709 47.079989,59.0476897 C47.2019644,59.48739 47.3863911,59.9822719 47.6313176,60.4228481 C47.7542687,60.5866408 47.9367438,60.6970039 48.1816703,60.6970039 C48.6119994,60.6426982 49.039401,60.5866408 49.4687542,60.4228481 C49.835656,60.2564276 50.2640335,60.0926349 50.6319111,59.8727847 C51.0602885,59.6529346 51.4896417,59.4330844 51.9785189,59.1580527 C52.284921,58.883021 52.6518228,58.6631709 52.9592007,58.3881392 C53.75448,57.6734072 54.9791125,55.8603003 55.7753675,55.1455683 C55.8368431,55.0903867 55.8983187,55.0903867 55.9588184,55.0352052 C56.3881717,55.0903867 56.6935979,55.3102369 57,55.5852686" id="Fill-647" fill="#000000"></path>
        <path d="M58.51575,61.6251589 C58.64175,61.5621589 58.64175,61.4371589 58.51575,61.3741589 C58.45375,61.3741589 58.45375,61.3741589 58.45375,61.3741589 C58.45375,61.4371589 58.38975,61.4991589 58.38975,61.6251589 C58.38975,61.6251589 58.45375,61.6251589 58.45375,61.7501589 L58.51575,61.6251589 Z M57.5315,62.4366589 C57.4675,62.5616589 57.4065,62.5616589 57.4065,62.6236589 C57.4065,62.6236589 57.4065,62.6876589 57.4675,62.6876589 C57.4675,62.6876589 57.5315,62.6236589 57.5935,62.6236589 C57.5315,62.5616589 57.5315,62.5616589 57.5315,62.4366589 Z M57.563,56.4986589 C57.563,56.4366589 57.501,56.4366589 57.501,56.4366589 C57.437,56.4366589 57.437,56.4986589 57.437,56.4986589 C57.437,56.6236589 57.501,56.6236589 57.501,56.6876589 C57.563,56.6236589 57.563,56.4986589 57.563,56.4986589 Z M57.3745,55.8434289 L57.4385,55.9694289 C57.4385,56.0314289 57.5005,55.9694289 57.5005,55.9694289 C57.5635,55.7804289 57.5635,55.6554289 57.6255,55.5294289 C57.6255,55.4044289 57.6255,55.3414289 57.6255,55.2164289 C57.5635,55.1534289 57.5005,55.0904289 57.4385,55.1534289 C57.4385,55.2164289 57.3745,55.3414289 57.4385,55.3414289 C57.5005,55.4044289 57.5635,55.4674289 57.6255,55.5294289 C57.5635,55.6554289 57.5005,55.7804289 57.3745,55.8434289 Z M74.9155834,56.3179541 C74.7374562,56.5433047 74.6777647,57.3890428 74.6180731,57.6700577 C74.5593291,57.839744 74.2030748,58.0085325 74.0836917,58.1207589 C73.9652561,58.4592337 72.0020674,58.9099349 71.8239402,58.9099349 C71.2289197,59.2484097 69.6835719,58.2338831 69.5054447,58.177321 C69.5054447,58.177321 68.6726055,57.6143934 68.6129139,57.5578313 C68.5541699,57.4456049 67.6019476,56.6564289 67.4835119,56.5433047 C66.948183,55.586238 66.6516202,55.3043253 66.1162912,54.4020251 C65.5809623,55.0789747 65.6993979,55.1355368 65.224708,56.0369392 C64.7481231,56.8817795 64.3918688,57.7831819 63.7968482,58.6845843 C63.6187211,58.7977085 63.5590295,58.9655992 63.4405939,59.0787234 C63.2624668,59.6425488 62.905265,60.09325 62.4296275,60.5430533 C62.0733732,60.9946524 61.8355545,61.4453536 61.5967883,62.009179 C61.5967883,62.0657411 61.5380443,62.2336318 61.5380443,62.2910917 C61.5967883,62.6843329 61.3589696,62.9662457 61.1808425,63.3038226 C60.8245881,63.6988596 60.5270779,64.0929986 60.2892592,64.600262 C59.9320574,65.389438 59.5758031,66.0089277 58.7429639,66.516191 C58.5648367,66.7415416 58.327018,66.8546658 58.0295077,66.8546658 C57.8523281,66.8546658 57.6135619,66.8546658 57.3757432,66.7972058 C57.0782329,66.7972058 56.7219786,66.8546658 56.3050852,66.91033 C55.4731935,67.247907 54.6403543,67.0225564 54.2831525,66.2342783 C54.1059728,65.8401392 52.2621672,64.6568241 51.9656044,64.3749114 C51.5487111,63.9798744 50.8949465,62.6843329 51.0143296,62.1779675 C51.0143296,61.7272663 51.1327652,61.3322294 51.1924568,60.9389881 C51.4302755,60.09325 51.5487111,59.0787234 51.7865298,58.177321 C51.9656044,57.502167 52.0840401,56.8252174 52.2621672,56.0926035 C52.6790606,54.5151493 52.9756233,52.9942572 53.3925167,51.5290294 C53.6890795,50.627627 53.8681541,49.838451 54.0462813,48.9379464 C54.1059728,48.4306831 54.1059728,47.8677555 54.2831525,47.3604922 C54.3437915,46.7975646 54.2831525,47.0229152 54.3437915,46.5713162 C54.4025356,46.4025277 54.4025356,46.2894035 54.5219187,46.120615 C54.7009933,46.0083886 54.938812,46.0640529 55.1159917,46.2337392 C55.1766307,46.3459656 55.3538104,46.5156519 55.413502,46.5713162 C55.6522681,46.8523311 55.532885,46.909791 55.9488309,46.909791 C56.068214,46.909791 56.3050852,47.0785795 56.3050852,47.1351416 C56.6025955,47.6415071 57.0782329,47.9234198 57.4951263,48.2618946 C57.732945,48.7125958 58.1488908,48.9936107 58.2076349,49.5574361 C57.9707637,49.5574361 57.8523281,49.5574361 57.6135619,49.500874 C57.4951263,49.838451 57.3757432,50.0638016 57.5538703,50.4588385 C57.8523281,51.0226639 57.8523281,51.6421536 57.9101246,52.3182054 C57.9101246,52.6001181 57.9707637,52.8820308 57.9707637,53.0508193 C58.2076349,53.7268711 58.2076349,54.459485 58.2076349,55.1355368 C58.2076349,55.3043253 58.2076349,55.4165517 58.2076349,55.586238 C58.2673264,56.1500634 58.2673264,56.712991 58.2673264,57.2759186 C58.2076349,57.7275176 58.2673264,58.177321 58.327018,58.5723579 C58.327018,58.9655992 58.327018,58.9655992 58.1488908,59.3615339 L57.9707637,59.304074 C57.9101246,59.0230591 57.9101246,58.7977085 57.8523281,58.5723579 C57.8523281,58.5157958 57.732945,58.4592337 57.6723059,58.4026716 C57.6135619,58.4026716 57.5538703,58.2895474 57.4951263,58.4026716 C57.4344872,58.4026716 57.3757432,58.5157958 57.3757432,58.5723579 C57.3757432,59.1909498 57.3757432,59.7547752 57.4344872,60.3177027 C57.4951263,60.6005133 57.5538703,60.9389881 57.4951263,61.220003 C57.4344872,61.4453536 57.4951263,61.6141421 57.6135619,61.7272663 C57.6723059,61.7272663 57.8523281,61.7838284 57.9101246,61.7272663 C57.9707637,61.7272663 58.0295077,61.6141421 57.9707637,61.5019157 C57.9101246,61.220003 58.0295077,60.8258639 58.1488908,60.430827 C58.1488908,60.430827 58.2076349,60.3751627 58.2673264,60.3177027 C58.2673264,60.3751627 58.327018,60.430827 58.327018,60.5430533 C58.4464011,60.8815282 58.4464011,61.1643387 58.4464011,61.4453536 C58.5051451,61.6141421 58.5051451,61.6707042 58.5648367,61.7838284 C58.5648367,61.8960548 58.6245282,61.9526169 58.6245282,61.9526169 C58.327018,62.346756 58.6842198,62.4589823 58.7429639,62.7417929 C58.8623469,62.6843329 58.9807826,62.5721066 59.0404741,62.5164423 C59.9320574,61.5019157 60.8245881,60.5430533 61.5967883,59.3615339 C61.8933511,58.9655992 62.1918088,58.5723579 62.4883716,58.177321 C62.905265,57.6700577 63.2027752,57.1071301 63.4405939,56.4876404 C63.5590295,56.0926035 63.7968482,55.586238 64.0346669,55.2477632 C64.689379,53.7834332 64.8078146,54.7404999 65.224708,53.4449584 C65.283452,53.2761699 64.9271977,51.9797306 64.8675062,51.75438 C64.8675062,50.6841891 64.5709434,50.7407512 65.283452,50.5719627 C65.5222182,50.5719627 66.5919287,50.7973133 66.7700558,50.9095397 C67.1272576,51.0783282 66.8287999,51.1348903 67.2456932,51.1348903 C67.4835119,51.0783282 67.6616391,51.1914524 67.8397663,51.2480145 C67.9591494,51.3045766 68.0188409,51.3611387 68.0785325,51.5290294 C68.0785325,51.6421536 68.1372765,51.6987157 68.1969681,51.8675042 C68.5541699,54.0644481 68.7919886,54.5151493 69.4457531,55.9794793 C69.9810821,56.375414 70.6348467,57.8954083 71.8239402,57.6700577 C72.4180132,57.502167 72.7155235,57.2759186 73.3095965,57.1636922 C73.845873,57.050568 74.2618188,56.4310783 74.7971478,56.1500634 C74.8568393,56.0926035 74.9155834,56.0926035 74.975275,56.0926035 C75.0349665,56.2057277 74.975275,56.2622898 74.9155834,56.3179541 L74.9155834,56.3179541 Z" id="Fill-648" fill="#000000"></path>
        <path d="M79.5204872,52.6752893 C79.410223,52.8600206 79.2457018,53.107639 79.1354376,53.3542749 C78.9157842,53.7846594 78.9709163,54.0931999 79.2457018,54.2789137 C79.410223,54.4017403 79.6298763,54.5255496 79.7401405,54.7092982 C80.0700581,55.1426305 80.5093647,55.0797433 80.9477962,55.0188213 C81.3328459,54.8959947 81.6067562,54.4626623 81.8264095,54.0322779 C82.2105841,52.9838298 82.4311125,52.7990986 82.7601549,51.7506505 C83.6387682,49.4071185 81.8815417,49.9613123 81.0580605,50.7022025 C80.4533575,51.1954742 80.0140508,51.9972864 79.5204872,52.6752893 Z M76.5,58.4991589 C76.5,58.5621589 76.5,58.5621589 76.5,58.6251589 C76.5,58.5621589 76.5,58.5621589 76.5,58.4991589 Z M71.4881686,57.2384089 C71.1751686,58.1805964 71.2381686,59.0627839 71.3631686,59.9449714 C71.3631686,60.0040339 71.4261686,60.0040339 71.4881686,60.0621589 C71.5521686,59.4152839 71.6141686,58.8274714 71.6771686,58.2387214 C71.7391686,57.8271589 71.8021686,57.4155964 71.6141686,57.0621589 C71.5521686,57.1212214 71.4881686,57.1793464 71.4881686,57.2384089 Z M71.8620804,60.4656677 C71.9345449,60.6235624 72.004745,60.7288256 72.0760772,60.8850495 C72.0760772,61.0429442 72.2889418,61.147372 72.1462772,61.3570629 C72.0760772,61.3044313 72.004745,61.3044313 72.004745,61.2526351 C71.6503481,60.7288256 71.5076836,60.0462859 71.3661513,59.3645817 C71.294819,59.3127855 71.3661513,59.2609893 71.3661513,59.2075223 C71.3661513,58.4213903 71.3661513,57.6870545 71.6503481,56.9009225 C71.7205481,56.7438632 71.7918804,56.5868039 71.7918804,56.4289091 C71.7918804,56.3244814 71.7918804,56.2726853 71.7918804,56.0621589 C71.5790158,56.377113 71.4374836,56.5868039 71.3661513,56.7964948 C71.294819,57.0579818 71.2234867,57.2685081 71.1521545,57.5308306 C70.8690899,58.8925683 70.9392899,60.1507137 71.7205481,61.2526351 C71.8620804,61.462326 72.0760772,61.6193853 72.2889418,61.8290762 C72.4304741,61.933504 72.5731386,61.986971 72.7860032,62.0387671 C72.7860032,62.0913987 72.8573355,62.0387671 73,62.0387671 C72.7860032,61.7772801 72.5731386,61.5675892 72.4304741,61.3044313 C72.2176095,60.9903127 72.2176095,60.6753586 72.004745,60.4138716 C71.9345449,60.4138716 71.8620804,60.4656677 71.8620804,60.4656677 Z M77.7178982,55.9037821 C77.7178982,56.0166811 77.5973329,56.1304833 77.4758031,56.1864813 C77.4150382,56.2433824 77.2944729,56.2993803 77.2944729,56.4709868 C77.233708,56.6976881 77.1729431,56.753686 76.9916128,56.8105871 C76.870083,56.866585 76.870083,56.9243893 76.8102826,57.2639896 C76.9308479,57.2639896 76.9916128,57.2639896 77.0523778,57.3199875 C77.0523778,57.3199875 77.0523778,57.3199875 77.0523778,57.3768886 C76.9308479,57.3768886 76.8102826,57.3768886 76.6289524,57.3768886 C76.6897174,57.2070885 76.6897174,57.0372883 76.6897174,56.9243893 C76.6289524,56.9243893 76.5681875,56.9243893 76.5681875,56.9243893 C76.5083872,57.3199875 76.4476222,57.7173921 76.3868573,58.1138935 C76.5083872,58.1707946 76.5681875,58.2267925 76.6289524,58.2267925 C76.6897174,58.6232939 76.6897174,58.9637974 76.6897174,59.361202 C76.6897174,59.7577034 76.8102826,60.0973037 76.9308479,60.380906 C77.1121781,60.6076073 77.5973329,61.8549157 77.7786631,62.081617 C78.6264782,62.875523 79.6546591,63.8943238 80.6230395,63.9521281 C80.9258995,64.008126 82.6813302,63.7254269 82.9832257,63.6676226 C84.4367609,63.2711212 85.8285666,62.5350195 87.1596075,61.5713134 C88.1897174,60.8343085 89.1580978,59.9844046 90.1862786,59.1904986 C90.2480081,59.1345007 90.3078084,59.0766964 90.3685733,59.0206985 C90.7312337,58.6232939 91.0948587,58.2845968 91.4584836,57.8871922 C92.1230395,57.2639896 92.7287595,56.6398838 93.2727501,55.9037821 C93.4550449,55.6201797 93.6363751,55.3365774 94,55.2236783 C93.8784702,55.7330788 93.7579049,56.1864813 93.5148453,56.6398838 C93.4550449,56.8105871 93.3344796,56.9803872 93.2129498,57.0932863 C92.8502894,57.4906909 92.5464648,57.8311943 92.3043697,58.2845968 C92.1230395,58.5103949 91.8809444,58.7370961 91.6996142,58.9637974 C91.6388493,59.0206985 91.5790489,59.1345007 91.4584836,59.3033977 C91.6388493,59.2473998 91.7603791,59.1904986 91.9417093,59.1345007 C91.8809444,59.474101 91.5790489,59.5300989 91.5173195,59.8137013 C91.5790489,59.8706024 91.5790489,59.9275035 91.6996142,59.9844046 C91.5173195,60.268007 91.3369538,60.4378071 91.0948587,60.6636052 C90.7312337,60.9481107 90.3685733,61.2886142 90.0647488,61.6282145 C89.5207582,62.1954192 88.9160027,62.6488217 88.3102826,63.1022242 C88.0074226,63.3280223 87.764363,63.5547235 87.4624675,63.7254269 C87.2203724,63.8943238 86.9782773,64.008126 86.7361822,64.1788294 C86.3735218,64.3477263 86.0098968,64.5184297 85.6472364,64.7451309 C85.0415164,65.0856344 84.375996,65.3683336 83.709511,65.4812326 C83.5291453,65.5390369 83.3468506,65.5950348 83.1655204,65.6528391 C82.4392351,65.8795404 81.7129498,65.9924394 80.9866644,66.0484373 C80.1388493,66.1622395 76.5681875,65.5390369 75.7821018,65.2545313 C73.6620817,64.4615285 73.2396209,63.4987256 72.2702759,62.7048196 C71.9076155,62.4221205 71.60572,61.9678148 71.4234253,61.5153155 C71.1215298,60.7774074 71.0598004,59.9844046 71,59.1345007 C71,57.3768886 71.4841902,55.6770808 72.2702759,54.0901721 C72.4516061,53.7496686 72.4516061,53.7496686 72.3918058,53.2402682 C72.0889457,53.4091651 71.9076155,53.5229673 71.7870502,53.8625676 C71.60572,54.3728712 71.3626604,54.8262737 71.0598004,55.3365774 C71.0598004,54.8262737 71.3018955,54.4857703 71.4841902,54.0901721 C71.9674159,53.0695648 72.512371,52.1067619 73.1778915,51.1990537 C73.8453409,50.2353476 74.5706617,49.3854437 75.4184769,48.5924409 C76.2653275,47.742537 77.1729431,47.0055322 78.142288,46.4383274 C78.3843831,46.3245252 78.5647488,46.2685273 78.7480081,46.1547251 C79.0499035,46.041826 79.3527636,45.9849249 79.5340938,46.2685273 C79.715424,46.4383274 79.9575191,46.3814263 80.0790489,46.4952285 C80.2603791,46.6081276 80.321144,46.8348288 80.4426738,46.948631 C81.0474293,47.2313302 83.3468506,47.7985349 83.8918058,48.1390384 C84.073136,48.2519374 84.1946658,48.4786387 84.3152311,48.7053399 C84.6180911,49.2156436 84.8601862,49.7819451 85.2836115,50.1215454 C85.4051413,50.2353476 85.4659062,50.4620488 85.5257066,50.6327522 C85.6472364,51.3128559 85.7080013,51.9360586 85.5257066,52.6730634 C85.4051413,53.4669694 85.0415164,54.2030711 84.6180911,54.884078 C84.375996,55.2796762 84.1339009,55.6201797 83.9525707,56.0735822 C83.8310408,56.4709868 83.5889457,56.8105871 83.3468506,57.2070885 C83.1047555,57.660491 82.6813302,57.9440934 82.2569404,58.0578956 C81.89428,58.2267925 81.4708547,58.2845968 81.1072297,58.2267925 C80.9258995,58.1707946 80.7445693,58.2267925 80.6230395,58.0000913 C80.6230395,57.9440934 80.5632391,57.9440934 80.5632391,57.9440934 C80.0790489,58.0000913 79.7761889,57.4906909 79.412564,57.3199875 C79.3527636,57.2639896 79.2919987,57.0932863 79.2919987,57.0372883 C79.412564,56.8105871 79.2919987,56.6976881 79.2312337,56.5269847 C78.9891386,56.0735822 78.7480081,55.5632786 78.4441835,55.1107793 C78.3843831,54.9391728 78.2020884,54.884078 78.0207582,55.052975 C77.9599933,55.3365774 77.7178982,55.5632786 77.7178982,55.9037821 L77.7178982,55.9037821 Z" id="Fill-649" fill="#000000"></path>
        <path d="M101.166,45.913 C103.174,42.713 103.488,42.211 105.308,38.759 C105.998,37.441 106.564,36.124 107.253,34.806 C107.567,33.864 107.755,32.924 107.881,31.982 C108.006,31.668 108.006,31.48 107.693,31.605 C107.379,31.668 107.191,31.794 107.002,31.919 C106.187,32.233 105.434,32.86 104.868,33.739 C104.43,34.241 104.115,34.806 103.613,35.309 C103.049,35.998 102.736,36.688 102.484,37.504 C102.17,38.132 101.857,38.885 101.543,39.513 C101.104,40.83 100.476,42.148 99.848,43.466 C99.598,44.093 99.409,44.783 99.158,45.411 C98.405,47.545 98.719,46.478 98.028,48.611 C97.84,49.113 97.966,50.557 98.781,49.679 C99.723,48.298 100.351,47.356 101.166,45.913 Z M109.063874,58.3351754 C108.75932,58.8945921 107.72111,60.1247743 107.72111,60.7385292 C107.660783,60.7955398 107.476883,60.9621177 107.354283,61.0191283 C107.172329,61.186597 106.987456,61.4101855 106.865828,61.6898938 C106.743228,61.9696022 106.561274,62.080951 106.438674,62.3045395 C105.584365,63.7012996 105.03461,64.4843048 103.630547,65.714487 C103.263719,65.9941953 100.027464,68.8447261 99.783237,69.1244345 C98.0123459,70.4659655 95.6313731,69.8513198 93.8604819,69.9065489 C93.3720274,69.9065489 92.8835728,69.8513198 92.5790184,69.6829604 C92.0292638,69.4041428 90.8081273,68.9569658 90.4412999,68.4527782 C89.8915452,67.2243775 88.4874816,66.3852525 88.3658544,64.6526643 C88.3045543,64.2045965 88.0603271,63.9248881 88,63.4777111 C88.0603271,61.6898938 88.3658544,59.9011858 88.6100817,58.0563579 C88.9759361,56.7700558 89.2804905,55.3732957 89.5256908,54.0869937 C90.1357725,51.6827492 90.3196727,51.4039316 91.4795091,49.2241663 C92.0905639,47.7712864 92.6393455,47.6590468 93.2504002,46.2052761 C93.6775547,45.4231617 94.1669823,44.6401565 94.6554369,43.969391 C95.0212913,43.1311568 95.6313731,42.3481516 96.1811277,41.5099174 C97.3409641,39.6650895 98.6234006,38.0447409 99.9671372,36.7032098 C100.882746,35.8640848 101.859655,34.9697308 102.775265,34.2428454 C103.325019,33.8517882 103.873801,33.4046112 104.424529,33.2371425 C104.607456,33.1249029 104.790383,33.068783 104.97331,33.0126632 C105.828592,32.9574342 106.622574,33.068783 107.232656,33.6281997 C107.842738,34.1306058 108.026638,34.9136109 107.842738,35.9754337 C107.72111,36.6461992 107.660783,37.3169647 107.476883,37.9325012 C107.416556,38.4349073 107.172329,38.8820843 106.865828,39.4415009 C106.438674,40.3919748 105.950219,41.2863289 105.278838,42.1806829 C104.851683,42.9075682 104.362255,43.6344536 103.936074,44.361339 C103.203392,45.3661511 102.592337,46.4288646 101.859655,47.3793384 C100.577219,48.944458 99.4786826,50.6218172 98.3178732,52.1869368 C96.425355,55.1497072 96.6082822,55.6521133 95.9369004,58.6148837 C95.6926731,59.7889461 95.8152733,60.4597116 95.7539732,61.633774 C95.8152733,61.9696022 95.9982005,64.1484767 96.0585276,64.372956 C96.2414548,65.1550703 96.425355,65.4356695 96.7912094,66.161664 C96.9138096,66.3852525 97.7690916,66.5527212 98.073646,66.6649609 C98.5017735,66.9437784 101.737055,64.9314818 102.16421,64.6526643 C103.142092,64.1484767 103.936074,63.3111332 104.790383,62.528128 C105.705992,61.7451229 106.133147,60.8507688 106.928101,59.7889461 C108.026638,58.4474151 108.393465,57.3294725 109.553302,55.8757018 C110.408584,55.7643529 109.919156,56.9384153 109.063874,58.3351754 L109.063874,58.3351754 Z" id="Fill-650" fill="#000000"></path>
    </g>
</svg>