<?xml version="1.0" encoding="UTF-8"?>
<svg width="110px" height="110px" viewBox="0 0 110 110" version="1.1" xmlns="http://www.w3.org/2000/svg" xmlns:xlink="http://www.w3.org/1999/xlink">
    <!-- Generator: Sketch 64 (93537) - https://sketch.com -->
    <title>Artboard</title>
    <desc>Created with Sketch.</desc>
    <g id="Artboard" stroke="none" stroke-width="1" fill="none" fill-rule="evenodd">
        <path d="M39.5658721,87.413 C40.0008721,87.605 40.4428721,87.783 40.8828721,87.966 C41.7658721,88.326 42.3288721,88.517 42.7418721,88.599 C43.1608721,88.669 43.4158721,88.662 43.6678721,88.655 C43.9208721,88.647 44.1728721,88.639 44.5848721,88.703 C44.7918721,88.734 45.0378721,88.784 45.3458721,88.859 C45.6528721,88.943 46.0218721,89.034 46.4748721,89.129 C50.0958721,89.904 53.8688721,90.2 57.6038721,89.926 C61.3388721,89.654 65.0228721,88.827 68.4748721,87.502 C75.3948721,84.852 81.3278721,80.313 85.8118721,74.746 C90.2988721,69.172 93.4138721,62.504 94.6448721,55.363 C95.2598721,51.798 95.3918721,48.122 94.9868721,44.488 C94.5878721,40.855 93.6458721,37.272 92.2178721,33.927 C93.4578721,37.354 94.0278721,40.516 94.3158721,43.653 C94.5888721,46.795 94.5818721,49.937 94.2488721,53.487 C94.0268721,53.459 93.5898721,53.407 93.3218721,55.135 C92.8008721,57.708 92.0948721,60.345 91.1108721,62.845 C90.1238721,65.34 88.9438721,67.725 87.6188721,69.833 C84.9658721,74.051 81.8018721,77.129 79.5728721,78.49 C79.2128721,78.732 78.8478721,78.964 78.4138721,79.196 C77.9768721,79.421 77.4908721,79.669 76.9298721,79.984 C76.3798721,80.313 75.7028721,80.646 74.9238721,81.1 C74.1588721,81.574 73.2048721,82.047 72.1118721,82.695 C72.8418721,82.263 73.5828721,81.847 74.2968721,81.395 C74.9918721,80.917 75.7028721,80.457 76.3808721,79.954 C76.2468721,79.775 75.9818721,79.417 75.9818721,79.417 C73.2688721,81.317 69.9138721,83.052 66.3388721,84.145 C62.7728721,85.262 59.0198721,85.719 55.7298721,85.597 C55.7298721,85.597 55.7288721,85.152 55.7288721,84.929 L54.9238721,84.938 C54.6558721,84.929 54.3888721,84.907 54.1198721,84.891 L52.5148721,84.784 C51.7578721,84.301 52.2958721,84.113 53.6038721,83.984 C53.9298721,83.955 54.3058721,83.933 54.7228721,83.919 C55.1398721,83.898 55.5998721,83.837 56.0918721,83.803 C57.0798721,83.757 58.1978721,83.588 59.3958721,83.433 C61.7838721,83.044 64.4518721,82.343 66.8718721,81.342 C67.4688721,81.075 68.0778721,80.853 68.6378721,80.559 C69.1968721,80.269 69.7448721,79.987 70.2728721,79.714 C71.2868721,79.095 72.2448721,78.55 73.0018721,77.964 C72.8768721,77.78 72.6278721,77.411 72.5028721,77.225 C71.6998721,77.81 70.8198721,78.273 69.9708721,78.785 L69.9378721,78.726 C83.9158721,71.071 92.0648721,52.849 85.5368721,36.614 C84.7458721,34.648 83.7348721,32.782 82.5458721,31.036 C82.6418721,31.134 82.7358721,31.234 82.8298721,31.335 C83.2648721,31.827 83.7138721,32.319 84.1288721,32.804 C84.5218721,33.31 84.8968721,33.793 85.2358721,34.228 C85.8838721,35.126 86.3688721,35.863 86.6348721,36.171 C87.2048721,37.142 87.5158721,37.017 87.6358721,36.195 C87.7098721,35.797 87.6738721,35.167 87.5978721,34.399 C87.5368721,33.62 87.3498721,32.727 87.0998721,31.739 C86.9868721,31.237 86.8258721,30.732 86.6438721,30.214 C86.4608721,29.698 86.2848721,29.149 86.0608721,28.618 C85.6018721,27.561 85.1028721,26.458 84.4958721,25.442 C83.9348721,24.388 83.2408721,23.455 82.6138721,22.548 C81.9288721,21.705 81.2978721,20.891 80.6678721,20.279 C79.4558721,18.996 79.6118721,18.77 80.1508721,18.812 C80.6868721,18.852 81.6038721,19.172 81.8218721,18.92 C80.3528721,17.815 79.2978721,16.941 78.2268721,16.056 C77.6738721,15.64 77.1158721,15.225 76.4908721,14.805 C75.8638721,14.389 75.1358721,14.023 74.2978721,13.629 C74.3278721,13.572 73.7348721,13.205 72.7188721,12.694 C72.2128721,12.434 71.6108721,12.122 70.9048721,11.842 C70.2018721,11.56 69.4448721,11.205 68.5978721,10.945 C65.2778721,9.751 60.9598721,9.031 58.1578721,9 C58.1578721,9 57.6868721,9.027 56.5158721,9.093 C55.3488721,9.17 53.4818721,9.269 50.7338721,9.687 C48.9028721,9.994 48.9578721,10.249 48.9998721,10.457 C48.9558721,10.239 48.9558721,10.239 48.9108721,10.02 C48.0448721,10.412 46.7098721,10.744 45.3768721,11.11 C44.0438721,11.471 42.7278721,11.913 41.9098721,12.353 C41.8268721,12.146 41.8268721,12.146 41.7438721,11.939 C38.4898721,13.774 34.9778721,15.261 32.1868721,17.732 C32.0498721,17.557 32.0498721,17.557 31.9118721,17.381 C31.1898721,17.975 30.4748721,18.573 29.9218721,19.003 C29.3788721,19.443 29.0208721,19.738 28.9398721,19.653 C28.7878721,19.491 28.7878721,19.491 28.6348721,19.328 C27.0458721,20.431 24.9218721,23.578 24.5978721,23.302 C24.7698721,23.444 24.7698721,23.444 24.9418721,23.586 C22.5648721,26.472 20.8488721,29.261 19.4038721,31.938 C19.0588721,32.618 18.7198721,33.285 18.3868721,33.942 C18.0928721,34.621 17.8038721,35.29 17.5168721,35.953 C17.3758721,36.286 17.2358721,36.617 17.0968721,36.947 C16.9768721,37.287 16.8578721,37.625 16.7388721,37.962 C16.5068721,38.64 16.2758721,39.316 16.0448721,39.991 C14.8688721,43.624 14.1868721,47.754 14.3038721,52.111 C14.4118721,56.477 15.3468721,60.941 16.9978721,65.098 C20.2888721,73.448 26.3928721,80.583 33.7208721,85.157 C35.3638721,86.184 37.2078721,86.768 35.8148721,85.404 C36.6038721,85.915 37.4488721,86.346 38.2968721,86.772 L39.5658721,87.413" id="Fill-651" fill="#FFC107"></path>
        <path d="M4.8568721,38.566 C5.9018721,35.616 12.2318721,27.75 13.2768721,26.706 C13.7078721,26.214 14.1988721,25.967 14.8128721,26.029 C23.5398721,21.359 26.9808721,39.611 22.9858721,43.667 C21.8808721,44.896 20.6508721,45.141 19.1768721,44.958 C18.5618721,44.773 17.9468721,44.65 17.3328721,44.527 C17.0248721,44.466 16.9018721,44.343 16.9018721,44.036 C16.9648721,42.5 17.0868721,40.902 17.1488721,39.365 C17.2098721,38.628 17.2718721,37.767 17.3328721,37.03 C17.4558721,35.616 17.5178721,34.08 17.5788721,32.667 C17.5788721,32.482 17.5788721,32.298 17.5788721,32.175 C18.2548721,27.443 14.3218721,30.823 14.1988721,31.806 C14.0758721,32.298 13.7688721,32.913 13.3388721,33.404 C12.5398721,34.141 12.0478721,35.063 11.6178721,35.985 C11.0638721,37.337 10.3888721,38.566 9.8968721,39.857 C9.1588721,41.577 8.6678721,43.237 8.4218721,45.019 C8.1758721,46.371 7.9918721,47.661 7.8688721,49.013 C7.7458721,50.243 7.3778721,51.656 7.2538721,52.947 C7.1928721,53.992 7.3158721,54.913 7.3778721,55.958 C7.4378721,56.45 7.5008721,56.818 7.5618721,57.372 C8.5448721,64.254 10.8808721,60.444 11.8028721,57.986 C12.2318721,56.879 12.4168721,55.835 12.7238721,54.79 C12.9078721,54.298 12.9078721,53.93 12.6628721,53.438 C12.1708721,52.455 12.7238721,51.471 13.8918721,50.98 C15.1198721,50.488 16.4108721,50.366 17.6408721,50.181 C18.9918721,49.997 19.5458721,50.795 19.6688721,51.84 C19.6688721,52.333 19.6068721,52.947 19.3608721,53.561 C17.7018721,57.372 15.9198721,63.394 13.7078721,65.669 C13.4618721,65.791 13.2768721,66.16 13.0928721,66.406 C12.6628721,67.143 12.1088721,67.45 11.3718721,67.327 C10.5118721,67.204 9.8358721,67.204 8.9128721,67.327 C7.9308721,67.45 6.9468721,67.204 6.0248721,66.836 C5.5958721,66.774 5.2268721,66.774 4.8568721,66.774 C4.5508721,66.836 4.2428721,66.774 3.9368721,66.651 C2.6448721,66.283 1.6618721,65.421 0.801872104,64.378 C0.371872104,63.947 0.00287210365,63.517 -0.0591278964,62.841 C-0.120127896,62.349 -0.365127896,61.919 -0.488127896,61.55 C-0.980127896,60.076 -1.0421279,58.662 -0.980127896,57.249 C-0.980127896,56.327 -0.796127896,55.527 -0.612127896,54.545 C-0.242127896,53.07 0.0638721036,51.656 0.494872104,50.12 C0.924872104,48.891 1.4778721,47.477 1.8468721,46.249 C2.1538721,45.51 2.3988721,44.773 2.7068721,44.097 C2.6448721,44.097 2.5838721,44.097 2.4608721,44.097 C2.3988721,44.22 2.2758721,44.404 2.1538721,44.65 C2.0308721,44.896 1.8468721,45.081 1.7238721,45.264 C2.7068721,43.052 3.6898721,40.779 4.8568721,38.566" id="Fill-652" fill="#000000"></path>
        <path d="M25.5058721,59.091 C25.4448721,59.399 25.4448721,59.768 25.4448721,60.076 C25.3218721,60.199 25.4448721,60.259 25.5058721,60.382 C25.6288721,60.69 25.8748721,60.997 26.1828721,61.12 C26.2438721,61.12 26.2438721,61.12 26.3058721,61.059 C26.3668721,60.997 26.4898721,60.936 26.5508721,60.875 C27.5958721,59.768 28.3328721,58.354 28.9478721,56.941 C29.2558721,56.45 29.3778721,55.897 29.5618721,55.466 C28.1488721,54.852 27.4738721,55.405 26.6738721,56.45 C25.9988721,57.432 25.8748721,57.986 25.5058721,59.091 Z M30.9758721,47.108 C30.8538721,46.371 30.7298721,45.818 30.5458721,45.141 C30.3608721,44.527 30.1148721,44.036 29.6858721,43.667 C29.4388721,43.421 29.2558721,43.114 28.8868721,42.929 C28.5188721,42.622 28.2108721,42.377 27.7798721,42.13 C27.0428721,41.516 25.6908721,42.806 25.2608721,43.237 C23.6018721,45.572 25.1988721,48.768 26.7358721,50.427 C28.5188721,53.93 31.7748721,52.701 31.0378721,48.584 C31.1598721,48.091 31.1598721,47.539 30.9758721,47.108 Z M23.6628721,49.566 C22.9858721,48.461 22.6798721,47.108 22.4948721,45.695 C22.3118721,44.65 22.6178721,43.667 23.1708721,42.684 C23.2318721,42.561 23.3548721,42.438 23.6018721,42.377 C24.0938721,41.947 24.7078721,41.577 25.4448721,41.147 C25.9988721,40.779 26.7358721,40.716 27.4108721,40.839 C27.9028721,40.839 29.2558721,42.069 29.5618721,42.315 C29.9318721,42.622 30.3008721,42.991 30.7298721,43.237 C31.2828721,43.728 31.6518721,44.282 31.9598721,45.081 C32.1438721,45.572 32.2668721,46.003 32.5128721,46.432 C32.6968721,46.986 32.7578721,47.6 32.8808721,48.214 C32.9418721,48.768 32.9418721,49.198 33.0648721,49.689 C33.1268721,49.751 33.1268721,49.751 33.1268721,49.874 C32.9418721,48.891 33.1878721,50.304 33.1268721,50.488 C33.0648721,51.225 33.2498721,51.902 33.0648721,52.578 C32.8808721,52.947 33.2498721,53.377 33.7408721,53.377 C36.7528721,53.193 37.9208721,53.623 40.8698721,53.13 C41.1778721,53.007 41.4838721,52.824 41.8538721,52.639 C41.9768721,52.578 42.1608721,52.455 42.2838721,52.393 C42.4058721,52.578 42.3458721,52.824 42.2838721,52.947 C42.0998721,53.253 42.7138721,53.377 42.4688721,53.623 C40.6238721,55.589 34.9708721,55.527 32.7578721,55.527 C32.6968721,55.527 32.6348721,55.527 32.5738721,55.527 C32.3898721,55.527 32.2048721,55.589 32.2048721,55.712 C32.2048721,55.835 32.1438721,55.897 32.0828721,56.019 C31.8968721,57.064 31.3448721,58.047 30.9148721,59.091 C30.6068721,59.83 30.1778721,60.382 29.7468721,60.936 C29.5008721,61.304 29.2558721,61.735 28.8868721,61.981 C28.7638721,62.042 28.6408721,62.165 28.4558721,62.288 C28.3328721,62.349 28.1488721,62.472 28.0878721,62.657 C27.5958721,63.21 27.0428721,63.64 26.3668721,63.824 C26.2438721,63.824 25.9368721,63.947 25.7518721,64.07 C24.8918721,64.316 24.0308721,64.254 23.2318721,64.131 C22.1268721,64.008 21.3888721,63.21 20.7738721,62.165 C20.5898721,61.673 20.4058721,61.059 20.2218721,60.505 C20.0988721,59.399 20.0368721,58.294 20.1598721,57.126 C20.2828721,55.958 20.6508721,54.852 21.2038721,53.746 C21.7578721,52.393 22.5568721,51.225 23.4788721,50.12 C23.6628721,50.058 23.6628721,49.935 23.7238721,49.751 C23.7238721,49.689 23.7238721,49.628 23.6628721,49.566 L23.6628721,49.566 Z" id="Fill-653" fill="#000000"></path>
        <path d="M44.9268721,37.706 C44.8038721,38.075 43.5748721,39.919 43.4508721,40.042 C43.3908721,40.348 43.2678721,40.779 42.9598721,40.962 C42.9598721,40.716 43.0208721,40.594 43.0208721,40.594 C43.5748721,39.365 44.4958721,38.259 45.2328721,37.091 C45.0498721,36.845 45.1728721,36.845 45.1728721,36.845 C46.2178721,35.493 47.1388721,34.387 47.9368721,33.527 C48.0608721,33.404 48.4298721,33.281 48.4298721,32.973 C48.6138721,32.79 48.6138721,32.79 48.9818721,32.359 C48.4908721,32.728 48.3678721,32.79 48.0608721,33.096 C47.7538721,33.342 47.4458721,33.465 47.1998721,33.957 C45.6638721,35.677 44.2508721,37.644 43.0208721,40.165 C42.8368721,40.962 42.6528721,41.209 42.4688721,41.761 C42.2838721,42.192 42.4068721,42.377 42.2838721,42.745 C42.2838721,42.745 42.2838721,42.745 42.2838721,42.929 C42.6528721,42.315 42.8368721,41.7 43.0208721,41.209 C43.3908721,40.533 44.7418721,38.443 44.9878721,37.89 L44.9268721,37.706 Z M42.1608721,41.7 C41.5458721,42.806 40.9318721,44.282 40.5018721,45.756 C40.5018721,45.941 40.5018721,46.063 40.5018721,46.126 C40.9938721,45.264 41.3008721,44.282 41.6698721,43.482 C41.9768721,42.929 42.1608721,42.315 42.3458721,41.577 C42.3458721,41.577 42.2228721,41.639 42.1608721,41.7 Z M40.3168721,61.366 C40.1338721,61.919 39.9488721,62.534 39.7648721,63.148 C39.6418721,63.517 39.5798721,63.886 39.5798721,64.316 C39.4568721,64.93 39.2718721,65.483 39.2118721,66.037 C39.0888721,66.528 38.9658721,67.02 38.7808721,67.511 C38.9038721,67.942 38.6578721,68.126 38.5968721,68.495 C38.5348721,68.741 38.4118721,68.986 38.3518721,69.294 C38.3518721,69.847 38.1668721,70.277 38.0438721,70.891 C37.9818721,71.199 37.9208721,71.629 37.7978721,71.998 C37.6748721,72.427 37.4898721,72.919 37.4898721,73.35 C37.4898721,73.964 37.4298721,74.579 37.4298721,75.07 C37.4298721,75.254 37.4898721,75.377 37.5518721,75.562 C38.1668721,76.792 38.5968721,75.193 38.7198721,74.886 C39.0888721,74.026 38.8428721,74.456 39.2118721,73.535 C39.3948721,72.796 39.6418721,71.936 39.8878721,71.199 C40.0108721,70.708 40.1338721,70.092 40.1938721,69.601 C40.4398721,68.126 40.6248721,66.466 40.8088721,64.869 C41.1158721,62.963 41.0548721,63.271 41.2388721,61.304 C41.4238721,57.617 40.6868721,59.891 40.5018721,60.813 C40.4398721,60.997 40.3788721,61.181 40.3168721,61.366 Z M51.0108721,43.974 C51.5018721,42.868 52.0558721,41.761 52.5468721,40.779 C53.0998721,39.365 53.4698721,38.075 53.6528721,36.415 C53.7758721,35.186 53.1618721,32.85 52.1788721,35.002 C51.9328721,35.739 51.5638721,36.477 51.3168721,37.214 C50.8878721,38.382 50.4578721,39.611 49.9658721,40.902 C49.8428721,41.393 49.5978721,41.947 49.4128721,42.561 C48.9818721,44.097 48.3678721,45.449 47.8148721,46.74 C47.5078721,47.6 47.1998721,48.584 46.7698721,49.382 C45.9098721,51.411 46.4008721,50.55 45.6038721,52.639 C45.2958721,53.377 44.8648721,54.545 45.7868721,54.79 C46.5238721,54.668 48.6758721,55.712 49.2288721,55.589 C50.1498721,55.589 51.0108721,56.142 51.7478721,55.897 C52.1168721,55.774 52.4248721,55.712 52.6698721,55.651 C54.3298721,55.097 52.6698721,55.835 54.2068721,54.913 C54.9438721,54.913 56.2958721,51.963 57.0948721,52.025 C59.7988721,50.611 58.0168721,53.807 55.5588721,55.712 C55.3118721,55.897 54.6368721,56.265 54.3908721,56.45 C48.2448721,58.662 42.9598721,54.36 43.3288721,56.879 C43.4508721,58.294 43.4508721,59.645 43.5138721,60.875 C43.5138721,61.181 43.4508721,61.427 43.5138721,61.673 C43.4508721,62.411 43.4508721,62.963 43.4508721,63.763 C43.3288721,64.131 43.2678721,64.561 43.2678721,64.869 C43.1448721,65.361 42.9598721,65.791 42.9598721,66.283 C42.8978721,66.589 42.7758721,66.959 42.8368721,67.388 C42.7138721,67.819 42.5908721,68.188 42.5298721,68.741 L42.4688721,68.741 C42.5298721,68.618 42.5298721,68.556 42.5908721,68.495 C42.5908721,68.372 42.4688721,68.372 42.4688721,68.433 C42.4068721,68.433 42.3458721,68.556 42.2838721,68.556 C42.2228721,68.618 42.2228721,68.741 42.2228721,68.802 C42.2228721,69.17 42.2228721,69.478 42.0388721,69.786 C41.9158721,70.277 41.7308721,70.83 41.6698721,71.26 C41.3618721,72.182 41.1158721,73.043 40.6868721,73.657 C40.6868721,73.841 40.6868721,73.964 40.6868721,74.087 C40.6868721,74.579 40.4398721,74.886 40.1938721,75.132 C40.1338721,75.254 40.0708721,75.377 40.0108721,75.501 C39.5798721,76.545 39.2118721,77.283 38.7198721,78.205 C38.5348721,78.696 38.2288721,78.942 37.8588721,79.003 C37.6128721,78.942 37.3068721,79.065 37.1218721,79.065 C36.9988721,79.065 36.9988721,79.25 36.8138721,79.188 C36.6298721,79.25 36.4458721,79.25 36.3228721,79.311 C35.8928721,79.496 35.4008721,79.311 35.0318721,79.003 C34.8478721,78.88 34.4788721,78.511 34.2328721,78.266 C33.8038721,77.836 33.4348721,77.098 33.4348721,76.299 C33.3118721,76.054 33.2498721,75.808 33.1268721,75.562 C32.9418721,74.825 32.8818721,73.964 32.8818721,73.104 C32.8818721,72.244 32.8198721,71.199 32.9418721,70.092 C32.9418721,70.092 33.0048721,70.031 33.0048721,69.97 C32.8198721,68.863 33.1268721,67.819 33.3118721,66.712 C33.6798721,65.176 34.0498721,63.579 34.4788721,62.104 C34.5408721,61.673 34.5408721,61.366 34.6638721,60.997 C34.7248721,60.628 34.7868721,60.322 34.9098721,60.076 C34.9098721,59.707 35.0938721,59.399 35.2168721,59.031 C35.2168721,58.908 35.2778721,58.723 35.3398721,58.54 C35.5848721,57.802 35.7698721,57.187 35.8928721,56.511 C36.3228721,54.975 36.4458721,54.729 37.3068721,52.578 C37.3668721,52.27 37.6128721,52.087 37.6128721,51.779 C37.8588721,50.55 41.4238721,42.377 44.0048721,37.398 C44.1278721,37.214 42.5298721,39.12 42.6528721,38.934 C42.8368721,38.566 44.6188721,36.17 44.8648721,35.8 C45.8488721,34.203 46.2778721,33.773 46.8318721,33.65 C47.2618721,33.219 48.2448721,32.298 48.7978721,31.868 C49.5358721,31.191 51.1948721,30.7 51.9938721,31.007 C52.2388721,31.068 52.4848721,31.191 52.7308721,31.13 C53.6528721,31.253 54.3298721,31.806 54.9438721,32.359 C54.9438721,32.544 55.1888721,32.667 55.3738721,32.913 C55.5588721,33.711 56.1728721,34.51 55.9268721,35.616 C56.2958721,36.661 56.1118721,37.398 55.7428721,38.443 C54.8818721,40.533 53.8988721,42.438 52.5468721,44.282 C52.4248721,44.65 52.1168721,44.896 51.7478721,45.081 C51.3168721,45.326 50.8878721,45.449 50.3958721,45.756 C50.5198721,45.019 50.7648721,44.466 51.0108721,43.974 L51.0108721,43.974 Z" id="Fill-654" fill="#000000"></path>
        <path d="M60.3528721,37.706 C60.2288721,38.075 59.0008721,39.919 58.8768721,40.042 C58.8158721,40.348 58.6928721,40.779 58.3858721,40.962 C58.3858721,40.716 58.4468721,40.594 58.4468721,40.594 C59.0008721,39.365 59.9218721,38.259 60.6588721,37.091 C60.4758721,36.845 60.5988721,36.845 60.5988721,36.845 C61.6438721,35.493 62.5638721,34.387 63.3628721,33.527 C63.4858721,33.404 63.8548721,33.281 63.8548721,32.973 C64.0398721,32.79 64.0398721,32.79 64.4078721,32.359 C63.9168721,32.728 63.7938721,32.79 63.4858721,33.096 C63.1798721,33.342 62.8718721,33.465 62.6258721,33.957 C61.0898721,35.677 59.6758721,37.644 58.4468721,40.165 C58.2628721,40.962 58.0788721,41.209 57.8938721,41.761 C57.7098721,42.192 57.8328721,42.377 57.7098721,42.745 C57.7098721,42.745 57.7098721,42.745 57.7098721,42.929 C58.0788721,42.315 58.2628721,41.7 58.4468721,41.209 C58.8158721,40.533 60.1678721,38.443 60.4138721,37.89 L60.3528721,37.706 Z M57.5868721,41.7 C56.9718721,42.806 56.3568721,44.282 55.9278721,45.756 C55.9278721,45.941 55.9278721,46.063 55.9278721,46.126 C56.4188721,45.264 56.7268721,44.282 57.0958721,43.482 C57.4018721,42.929 57.5868721,42.315 57.7708721,41.577 C57.7708721,41.577 57.6478721,41.639 57.5868721,41.7 Z M55.7428721,61.366 C55.5598721,61.919 55.3738721,62.534 55.1898721,63.148 C55.0668721,63.517 55.0058721,63.886 55.0058721,64.316 C54.8828721,64.93 54.6978721,65.483 54.6368721,66.037 C54.5148721,66.528 54.3918721,67.02 54.2068721,67.511 C54.3298721,67.942 54.0838721,68.126 54.0218721,68.495 C53.9608721,68.741 53.8378721,68.986 53.7768721,69.294 C53.7768721,69.847 53.5918721,70.277 53.4698721,70.891 C53.4078721,71.199 53.3468721,71.629 53.2238721,71.998 C53.1008721,72.427 52.9158721,72.919 52.9158721,73.35 C52.9158721,73.964 52.8538721,74.579 52.8538721,75.07 C52.8538721,75.254 52.9158721,75.377 52.9778721,75.562 C53.5918721,76.792 54.0218721,75.193 54.1448721,74.886 C54.5148721,74.026 54.2688721,74.456 54.6368721,73.535 C54.8208721,72.796 55.0668721,71.936 55.3128721,71.199 C55.4368721,70.708 55.5598721,70.092 55.6198721,69.601 C55.8658721,68.126 56.0508721,66.466 56.2338721,64.869 C56.5418721,62.963 56.4798721,63.271 56.6648721,61.304 C56.8498721,57.617 56.1118721,59.891 55.9278721,60.813 C55.8658721,60.997 55.8048721,61.181 55.7428721,61.366 Z M66.4368721,43.974 C66.9278721,42.868 67.4808721,41.761 67.9728721,40.779 C68.5248721,39.365 68.8948721,38.075 69.0788721,36.415 C69.2018721,35.186 68.5878721,32.85 67.6038721,35.002 C67.3578721,35.739 66.9898721,36.477 66.7428721,37.214 C66.3128721,38.382 65.8828721,39.611 65.3918721,40.902 C65.2688721,41.393 65.0218721,41.947 64.8378721,42.561 C64.4078721,44.097 63.7938721,45.449 63.2408721,46.74 C62.9338721,47.6 62.6258721,48.584 62.1958721,49.382 C61.3358721,51.411 61.8268721,50.55 61.0278721,52.639 C60.7218721,53.377 60.2908721,54.545 61.2128721,54.79 C61.9498721,54.668 64.1008721,55.712 64.6538721,55.589 C65.5758721,55.589 66.4368721,56.142 67.1738721,55.897 C67.5428721,55.774 67.8498721,55.712 68.0958721,55.651 C69.7548721,55.097 68.0958721,55.835 69.6328721,54.913 C70.3698721,54.913 71.7218721,51.963 72.5198721,52.025 C75.2248721,50.611 73.4418721,53.807 70.9838721,55.712 C70.7378721,55.897 70.0618721,56.265 69.8158721,56.45 C63.6708721,58.662 58.3858721,54.36 58.7538721,56.879 C58.8768721,58.294 58.8768721,59.645 58.9378721,60.875 C58.9378721,61.181 58.8768721,61.427 58.9378721,61.673 C58.8768721,62.411 58.8768721,62.963 58.8768721,63.763 C58.7538721,64.131 58.6928721,64.561 58.6928721,64.869 C58.5698721,65.361 58.3858721,65.791 58.3858721,66.283 C58.3238721,66.589 58.2008721,66.959 58.2628721,67.388 C58.1398721,67.819 58.0168721,68.188 57.9558721,68.741 L57.8938721,68.741 C57.9558721,68.618 57.9558721,68.556 58.0168721,68.495 C58.0168721,68.372 57.8938721,68.372 57.8938721,68.433 C57.8328721,68.433 57.7708721,68.556 57.7098721,68.556 C57.6478721,68.618 57.6478721,68.741 57.6478721,68.802 C57.6478721,69.17 57.6478721,69.478 57.4638721,69.786 C57.3418721,70.277 57.1558721,70.83 57.0958721,71.26 C56.7878721,72.182 56.5418721,73.043 56.1118721,73.657 C56.1118721,73.841 56.1118721,73.964 56.1118721,74.087 C56.1118721,74.579 55.8658721,74.886 55.6198721,75.132 C55.5598721,75.254 55.4968721,75.377 55.4368721,75.501 C55.0058721,76.545 54.6368721,77.283 54.1448721,78.205 C53.9608721,78.696 53.6538721,78.942 53.2848721,79.003 C53.0388721,78.942 52.7318721,79.065 52.5468721,79.065 C52.4248721,79.065 52.4248721,79.25 52.2398721,79.188 C52.0558721,79.25 51.8718721,79.25 51.7488721,79.311 C51.3178721,79.496 50.8268721,79.311 50.4578721,79.003 C50.2728721,78.88 49.9048721,78.511 49.6588721,78.266 C49.2288721,77.836 48.8598721,77.098 48.8598721,76.299 C48.7368721,76.054 48.6758721,75.808 48.5528721,75.562 C48.3678721,74.825 48.3078721,73.964 48.3078721,73.104 C48.3078721,72.244 48.2448721,71.199 48.3678721,70.092 C48.3678721,70.092 48.4298721,70.031 48.4298721,69.97 C48.2448721,68.863 48.5528721,67.819 48.7368721,66.712 C49.1048721,65.176 49.4758721,63.579 49.9048721,62.104 C49.9668721,61.673 49.9668721,61.366 50.0898721,60.997 C50.1498721,60.628 50.2128721,60.322 50.3348721,60.076 C50.3348721,59.707 50.5198721,59.399 50.6428721,59.031 C50.6428721,58.908 50.7038721,58.723 50.7648721,58.54 C51.0108721,57.802 51.1948721,57.187 51.3178721,56.511 C51.7488721,54.975 51.8718721,54.729 52.7318721,52.578 C52.7928721,52.27 53.0388721,52.087 53.0388721,51.779 C53.2848721,50.55 56.8498721,42.377 59.4308721,37.398 C59.5538721,37.214 57.9558721,39.12 58.0788721,38.934 C58.2628721,38.566 60.0448721,36.17 60.2908721,35.8 C61.2738721,34.203 61.7038721,33.773 62.2578721,33.65 C62.6868721,33.219 63.6708721,32.298 64.2238721,31.868 C64.9618721,31.191 66.6198721,30.7 67.4198721,31.007 C67.6648721,31.068 67.9108721,31.191 68.1568721,31.13 C69.0788721,31.253 69.7548721,31.806 70.3698721,32.359 C70.3698721,32.544 70.6148721,32.667 70.7998721,32.913 C70.9838721,33.711 71.5988721,34.51 71.3528721,35.616 C71.7218721,36.661 71.5368721,37.398 71.1688721,38.443 C70.3078721,40.533 69.3248721,42.438 67.9728721,44.282 C67.8498721,44.65 67.5428721,44.896 67.1738721,45.081 C66.7428721,45.326 66.3128721,45.449 65.8218721,45.756 C65.9448721,45.019 66.1898721,44.466 66.4368721,43.974 L66.4368721,43.974 Z" id="Fill-655" fill="#000000"></path>
        <path d="M96.4878721,54.913 C96.9178721,54.913 97.2858721,54.79 97.5318721,54.421 C97.9008721,53.93 98.3308721,53.5 98.6388721,52.885 C98.9458721,52.21 99.3138721,51.533 99.6218721,50.795 L99.9908721,49.935 L100.543872,47.785 L100.850872,46.126 L100.850872,45.572 C100.850872,45.387 100.666872,45.326 100.481872,45.449 L100.358872,45.572 C99.8678721,46.003 99.4988721,46.617 99.3138721,47.231 C99.0678721,48.031 98.7618721,48.768 98.3308721,49.443 C97.9008721,50.243 97.4088721,50.98 96.9178721,51.656 C96.3648721,52.455 95.9348721,53.377 95.5038721,54.237 C95.4428721,54.36 95.3808721,54.545 95.4428721,54.729 C95.8118721,54.79 96.1188721,54.913 96.4878721,54.913 Z M80.6928721,46.432 C80.0788721,46.617 79.5258721,46.863 79.0338721,47.354 L78.1738721,48.091 C77.9888721,48.214 77.8058721,48.399 77.6828721,48.584 C77.2518721,49.075 76.8838721,49.566 76.5148721,50.058 L75.5308721,51.533 L75.4088721,51.779 C75.5308721,51.84 75.5928721,51.902 75.6538721,51.902 C76.5148721,52.025 77.3128721,51.963 78.1738721,51.779 C78.6038721,51.656 78.9738721,51.411 79.2188721,50.98 C80.0788721,49.813 80.5708721,48.522 80.9388721,47.108 C80.9388721,46.923 81.0008721,46.678 80.8788721,46.432 C80.8158721,46.432 80.7558721,46.371 80.6928721,46.432 Z M77.0068721,54.606 C76.8218721,54.545 76.5758721,54.483 76.3918721,54.298 C75.8998721,53.93 75.3468721,53.561 74.9788721,53.007 C74.9788721,52.947 74.9168721,52.947 74.7938721,52.885 C74.7318721,52.947 74.6718721,52.947 74.6718721,53.007 C74.2408721,53.684 73.8108721,54.298 73.6268721,55.097 C73.5638721,55.159 73.5638721,55.22 73.5638721,55.282 C73.3808721,55.897 73.4408721,56.45 73.8718721,56.941 C74.4868721,57.679 75.1018721,58.354 75.8998721,58.846 C76.2068721,59.154 76.5758721,59.337 76.9448721,59.584 C77.4368721,60.014 78.0508721,60.076 78.6658721,59.953 C79.8948721,59.768 81.0618721,59.461 82.1068721,58.785 C82.9058721,58.232 83.7048721,57.802 84.5038721,57.249 C85.1178721,56.818 85.6718721,56.327 86.2248721,55.897 L89.0518721,53.438 C89.0518721,53.315 89.1128721,53.193 89.1128721,53.07 C89.1748721,51.84 89.7278721,50.795 90.2808721,49.751 C91.4478721,47.293 93.2298721,45.204 95.2588721,43.421 C95.7498721,42.929 96.3038721,42.561 96.9178721,42.253 C97.2858721,42.007 97.7168721,42.007 98.1468721,42.13 C98.3938721,42.253 98.7618721,42.315 99.0678721,42.438 C99.3138721,42.561 99.5608721,42.745 99.8058721,42.929 C100.297872,43.298 100.789872,43.667 101.280872,43.974 C101.526872,44.159 101.710872,44.343 101.771872,44.588 C101.833872,44.835 101.957872,44.958 102.141872,45.081 C102.387872,45.204 102.571872,45.387 102.755872,45.51 C103.186872,45.879 103.432872,46.309 103.677872,46.74 C103.800872,47.108 103.800872,47.416 103.800872,47.785 C103.677872,48.829 103.492872,49.874 103.062872,50.857 C102.939872,51.165 102.816872,51.471 102.632872,51.717 L102.202872,52.578 L100.973872,54.975 C100.789872,55.343 100.358872,55.712 100.112872,56.081 C99.6838721,56.757 99.0078721,57.064 98.3308721,57.372 C97.9008721,57.555 97.5318721,57.555 97.1028721,57.372 L96.4878721,57.187 C96.1188721,57.187 95.7498721,57.003 95.4428721,56.818 C95.2588721,56.634 95.0738721,56.511 94.8288721,56.511 C94.7668721,56.511 94.7058721,56.572 94.7058721,56.572 C94.6438721,57.064 94.4598721,57.495 94.4598721,57.986 C94.3978721,59.154 94.7668721,60.199 95.6268721,60.997 C96.2418721,61.489 96.9178721,61.796 97.7168721,61.612 C98.3308721,61.489 98.8848721,61.366 99.4368721,61.181 C99.8678721,61.059 100.235872,60.813 100.604872,60.567 C102.264872,59.461 103.923872,58.354 105.520872,57.187 C106.074872,56.818 106.565872,56.327 106.996872,55.774 C107.426872,55.282 107.918872,54.79 108.348872,54.237 C109.023872,53.438 109.576872,52.639 110.007872,51.717 C110.191872,51.471 110.253872,51.165 110.376872,50.857 C110.561872,50.857 110.498872,50.98 110.498872,51.042 L110.498872,51.411 C110.376872,51.84 110.314872,52.333 110.253872,52.762 C110.191872,53.13 110.068872,53.5 109.884872,53.869 C109.576872,54.36 109.269872,54.852 108.900872,55.343 C108.716872,55.589 108.532872,55.835 108.471872,56.142 C108.225872,56.757 107.856872,57.309 107.426872,57.74 C107.241872,57.924 107.057872,58.109 106.996872,58.354 C106.996872,58.417 106.873872,58.54 106.811872,58.6 C106.259872,59.031 105.705872,59.522 105.029872,59.891 C104.660872,60.076 104.230872,60.382 103.861872,60.628 C103.309872,61.059 102.694872,61.427 102.018872,61.612 C101.280872,61.858 100.543872,62.288 99.8678721,62.657 C98.3938721,63.517 96.8558721,64.008 95.1358721,64.131 C94.3368721,64.193 93.4768721,64.07 92.6158721,63.886 C92.4318721,63.824 92.2468721,63.701 92.0618721,63.579 C91.2018721,63.148 90.5878721,62.472 90.0968721,61.673 C89.5428721,60.69 89.1748721,59.645 88.9898721,58.54 C88.9288721,58.294 88.8668721,58.047 88.8668721,57.802 C88.8058721,57.679 88.8058721,57.495 88.8058721,57.372 C88.9288721,56.941 88.8058721,56.572 88.8058721,56.142 C88.8668721,55.774 88.8058721,55.405 88.8668721,54.975 L88.4988721,55.343 C88.3138721,55.527 88.1298721,55.712 88.0068721,55.958 C87.6998721,56.265 87.4538721,56.572 87.0848721,56.818 C86.7168721,57.126 86.3478721,57.495 85.9788721,57.74 C85.4868721,58.17 84.9948721,58.54 84.5038721,58.908 C83.5818721,59.645 82.5988721,60.259 81.4928721,60.752 C80.9388721,60.936 80.3868721,61.181 79.8328721,61.243 C79.2188721,61.366 78.6658721,61.366 78.0508721,61.427 C77.8658721,61.489 77.6828721,61.489 77.4978721,61.489 C77.0068721,61.612 76.4538721,61.55 75.9618721,61.489 C74.4248721,61.181 73.0118721,60.69 71.7218721,59.768 C70.6148721,58.908 69.6928721,57.863 69.0788721,56.572 C68.9558721,56.265 68.7708721,56.019 68.7098721,55.774 C68.3408721,54.852 68.2178721,53.93 68.2798721,52.947 C68.4018721,51.165 68.9558721,49.505 69.9388721,47.968 C70.9218721,46.309 72.0898721,44.896 73.6268721,43.667 C74.1798721,43.175 74.7938721,42.868 75.4088721,42.561 C75.7158721,42.438 76.0228721,42.438 76.3298721,42.315 C76.5148721,42.315 76.6988721,42.253 76.8218721,42.192 C77.1908721,42.007 77.4978721,42.069 77.8058721,42.253 L79.0338721,43.175 C79.2798721,43.298 79.4648721,43.482 79.7108721,43.482 C79.9558721,43.544 80.1408721,43.667 80.3248721,43.851 L81.2468721,44.773 L81.6768721,45.326 C81.6768721,45.51 81.8608721,45.633 81.9838721,45.695 C82.7218721,46.494 83.2128721,47.416 83.3978721,48.522 C83.5198721,49.198 83.3978721,49.874 83.2128721,50.55 C83.0288721,51.288 82.7218721,52.087 82.4148721,52.762 C82.1068721,53.5 81.5538721,54.115 80.8158721,54.421 C80.7558721,54.483 80.6328721,54.545 80.5708721,54.545 C80.2018721,54.606 79.8328721,54.729 79.4648721,54.852 C79.0958721,54.913 78.7278721,54.913 78.3578721,54.852 L78.2968721,54.79 C78.0508721,54.483 78.0508721,54.483 77.8058721,54.79 L77.0068721,54.606 L77.0068721,54.606 Z" id="Fill-656" fill="#000000"></path>
        <path d="M39.8718721,96.038 C39.7138721,96.038 39.5838721,96.08 39.4818721,96.164 C39.3808721,96.249 39.3298721,96.37 39.3298721,96.528 C39.3298721,96.687 39.3768721,96.814 39.4718721,96.911 C39.5648721,97.007 39.6868721,97.082 39.8388721,97.133 C39.9898721,97.186 40.1588721,97.235 40.3438721,97.282 C40.5298721,97.329 40.7138721,97.385 40.8968721,97.453 C41.0808721,97.52 41.2468721,97.603 41.3988721,97.702 C41.5498721,97.8 41.6728721,97.94 41.7668721,98.121 C41.8598721,98.302 41.9078721,98.519 41.9078721,98.771 C41.9078721,99.212 41.7288721,99.589 41.3688721,99.904 C41.0108721,100.218 40.5368721,100.376 39.9498721,100.376 C39.3628721,100.376 38.8908721,100.235 38.5318721,99.953 C38.1728721,99.67 37.9928721,99.269 37.9928721,98.749 L39.3448721,98.749 C39.3798721,99.166 39.5928721,99.373 39.9838721,99.373 C40.1668721,99.373 40.3108721,99.325 40.4138721,99.228 C40.5188721,99.131 40.5698721,99.009 40.5698721,98.86 C40.5698721,98.711 40.5228721,98.59 40.4298721,98.497 C40.3348721,98.403 40.2128721,98.329 40.0618721,98.274 C39.9108721,98.219 39.7418721,98.168 39.5568721,98.121 C39.3708721,98.075 39.1868721,98.016 39.0038721,97.947 C38.8198721,97.877 38.6528721,97.794 38.5018721,97.698 C38.3508721,97.601 38.2288721,97.462 38.1338721,97.282 C38.0398721,97.101 37.9928721,96.886 37.9928721,96.639 C37.9928721,96.154 38.1738721,95.765 38.5348721,95.473 C38.8958721,95.181 39.3588721,95.035 39.9208721,95.035 C40.4818721,95.035 40.9368721,95.163 41.2838721,95.418 C41.6298721,95.672 41.8118721,96.075 41.8258721,96.625 L40.4438721,96.625 C40.4248721,96.436 40.3638721,96.292 40.2628721,96.19 C40.1608721,96.088 40.0308721,96.038 39.8718721,96.038" id="Fill-657" fill="#272525"></path>
        <polyline id="Fill-658" fill="#272525" points="49.9068721 95.109 51.1778721 95.109 51.1778721 100.324 49.9068721 100.324 49.9068721 98.162 47.8948721 98.162 47.8948721 100.324 46.6248721 100.324 46.6248721 95.109 47.8948721 95.109 47.8948721 97.196 49.9068721 97.196 49.9068721 95.109"></polyline>
        <path d="M59.3748721,98.794 C59.6248721,98.521 59.7498721,98.158 59.7498721,97.702 C59.7498721,97.246 59.6248721,96.882 59.3748721,96.61 C59.1238721,96.337 58.7898721,96.201 58.3718721,96.201 C57.9528721,96.201 57.6188721,96.337 57.3688721,96.61 C57.1188721,96.882 56.9938721,97.246 56.9938721,97.702 C56.9938721,98.158 57.1188721,98.521 57.3688721,98.794 C57.6188721,99.066 57.9528721,99.202 58.3718721,99.202 C58.7898721,99.202 59.1238721,99.066 59.3748721,98.794 Z M56.4778721,99.618 C55.9598721,99.113 55.7008721,98.474 55.7008721,97.702 C55.7008721,96.929 55.9598721,96.292 56.4778721,95.789 C56.9948721,95.287 57.6288721,95.035 58.3788721,95.035 C59.1298721,95.035 59.7608721,95.287 60.2728721,95.789 C60.7848721,96.292 61.0418721,96.929 61.0418721,97.702 C61.0418721,98.474 60.7838721,99.113 60.2698721,99.618 C59.7548721,100.123 59.1228721,100.376 58.3758721,100.376 C57.6278721,100.376 56.9948721,100.123 56.4778721,99.618 L56.4778721,99.618 Z" id="Fill-659" fill="#272525"></path>
        <path d="M66.8428721,97.331 L67.6298721,97.331 C67.8228721,97.331 67.9758721,97.273 68.0868721,97.159 C68.1988721,97.045 68.2538721,96.895 68.2538721,96.71 C68.2538721,96.524 68.1968721,96.372 68.0828721,96.253 C67.9698721,96.134 67.8178721,96.075 67.6298721,96.075 L66.8428721,96.075 L66.8428721,97.331 Z M69.5468721,96.706 C69.5468721,97.058 69.4208721,97.397 69.1678721,97.724 C69.0338721,97.892 68.8348721,98.03 68.5698721,98.136 C68.3048721,98.243 67.9908721,98.295 67.6298721,98.295 L66.8428721,98.295 L66.8428721,100.324 L65.5728721,100.324 L65.5728721,95.109 L67.6298721,95.109 C68.2338721,95.109 68.7048721,95.265 69.0418721,95.578 C69.3788721,95.889 69.5468721,96.265 69.5468721,96.706 L69.5468721,96.706 Z" id="Fill-660" fill="#272525"></path>
    </g>
</svg>