<?xml version="1.0" encoding="UTF-8"?>
<svg width="110px" height="110px" viewBox="0 0 110 110" version="1.1" xmlns="http://www.w3.org/2000/svg" xmlns:xlink="http://www.w3.org/1999/xlink">
    <!-- Generator: Sketch 64 (93537) - https://sketch.com -->
    <title>Artboard</title>
    <desc>Created with Sketch.</desc>
    <g id="Artboard" stroke="none" stroke-width="1" fill="none" fill-rule="evenodd">
        <path d="M8.333,47.319 L8.333,34.629 C8.333,32.597 8.466,31.698 7,31.698 L7,31.398 L16.526,31.398 L16.526,31.698 C15.094,31.698 15.161,32.231 15.161,34.629 L15.161,47.552 C15.161,51.483 17.226,53.148 20.39,53.148 C23.954,53.148 25.752,50.683 25.752,47.552 L25.752,38.892 C25.752,36.161 24.886,31.698 21.722,31.698 L21.722,31.398 L30.449,31.398 L30.482,31.698 C26.751,31.698 26.052,36.161 26.052,38.892 L26.052,47.552 C26.052,51.949 23.121,55.146 17.259,55.146 C12.729,55.146 8.333,52.748 8.333,47.319" id="Fill-307" fill="#272525"></path>
        <path d="M45.435,44.322 C44.303,45.621 42.371,45.754 41.038,44.655 C40.406,44.054 39.973,43.355 39.973,42.589 C39.973,42.156 38.907,42.389 37.541,44.455 L37.541,51.083 C37.541,52.915 37.707,54.247 38.907,54.58 L38.907,54.846 L30.58,54.846 L30.58,54.58 C31.846,54.213 31.879,52.781 31.879,51.083 L31.879,42.956 C31.879,41.79 31.479,41.324 30.114,40.825 L30.114,40.558 L37.541,39.159 L37.541,43.822 C39.906,40.257 40.905,39.859 41.904,39.392 C42.837,38.959 44.236,39.159 45.102,39.925 C46.401,41.057 46.567,43.055 45.435,44.322" id="Fill-308" fill="#272525"></path>
        <path d="M59.189,47.352 C59.189,43.456 58.256,40.158 55.858,40.158 C53.627,40.158 53.127,42.889 53.127,45.454 L53.127,48.984 C53.127,52.781 53.893,54.846 55.892,54.846 C57.757,54.846 59.189,52.681 59.189,47.352 Z M65.884,46.885 C65.884,53.481 61.487,55.146 57.224,55.146 C54.593,55.146 53.027,54.513 52.128,53.68 C51.062,54.38 47.498,55.213 47.498,54.679 L47.498,33.796 C47.498,32.664 47.165,32.165 45.8,31.665 L45.8,31.398 L53.127,30 L53.127,41.69 C54.093,40.025 55.758,39.159 58.856,39.159 C63.452,39.159 65.884,42.756 65.884,46.885 L65.884,46.885 Z" id="Fill-309" fill="#272525"></path>
        <path d="M76.007,46.719 C73.276,47.319 73.31,49.351 73.31,50.916 C73.31,50.916 73.276,53.115 74.609,53.115 C75.175,53.115 75.641,52.648 76.007,51.848 L76.007,46.719 Z M84.334,52.714 C83.868,54.18 82.136,55.146 80.038,55.146 C80.038,55.146 76.34,55.146 76.041,52.149 C75.608,53.88 73.909,55.146 71.544,55.146 C70.279,55.146 67.381,54.58 67.381,51.749 C67.381,48.419 70.079,47.785 76.007,46.386 L76.007,44.254 C76.007,40.792 74.042,38.925 71.744,40.125 C71.744,40.125 71.011,40.558 72.144,40.957 C72.71,41.157 73.077,41.624 73.343,42.223 C73.842,43.456 73.276,44.788 72.044,45.321 C70.845,45.787 69.479,45.22 68.979,44.021 C68.646,43.156 68.813,42.156 69.379,41.557 C69.779,41.124 70.378,40.525 71.611,39.859 C73.11,39.059 74.742,39.159 74.742,39.159 C79.105,39.159 81.536,41.89 81.536,45.82 L81.536,50.783 C81.536,50.783 81.536,53.181 83.135,53.115 C83.135,53.115 83.968,53.115 84.134,52.548 L84.334,52.714 L84.334,52.714 Z" id="Fill-310" fill="#272525"></path>
        <path d="M102.418,54.58 L102.418,54.846 L94.091,54.846 L94.091,54.58 C95.357,54.213 95.424,52.748 95.424,51.049 L95.424,44.355 C95.424,42.457 94.725,41.557 93.125,41.557 C92.393,41.557 91.627,42.156 91.161,42.856 L91.161,51.083 C91.161,52.915 91.327,54.247 92.526,54.58 L92.526,54.846 L84.199,54.846 L84.199,54.58 C85.465,54.213 85.498,52.814 85.498,51.083 L85.498,42.956 C85.498,41.79 85.132,41.324 83.766,40.825 L83.766,40.558 L91.161,39.159 L91.161,42.389 C92.026,40.625 93.791,39.159 95.59,39.159 C98.255,39.159 101.053,40.224 101.053,44.221 L101.053,51.049 C101.053,52.881 101.252,54.281 102.418,54.58" id="Fill-311" fill="#272525"></path>
        <path d="M22.809,76.682 C22.996,77.065 23.335,77.11 23.655,77.181 C23.416,76.812 23.157,76.648 22.809,76.682" id="Fill-312" fill="#EFC5CD"></path>
        <path d="M23.661,77.19 C23.662,77.188 23.664,77.186 23.666,77.185 C23.662,77.184 23.659,77.183 23.655,77.181 C23.657,77.185 23.659,77.186 23.661,77.19" id="Fill-313" fill="#EFC5CD"></path>
        <path d="M86.452,61.755 C86.371,61.76 86.279,61.766 86.186,61.773 C86.275,61.786 86.365,61.79 86.452,61.755" id="Fill-314" fill="#EFC5CD"></path>
        <path d="M86.003,62.06 L85.954,62.547 C85.451,62.707 85.844,62.254 85.356,62.276 C85.34,61.876 85.79,61.801 86.186,61.773 C85.832,61.717 85.485,61.418 85.33,61.851 C84.999,61.677 85.379,61.365 84.98,61.183 C84.691,61.295 84.305,61.675 83.982,61.431 L83.989,61.361 C83.199,60.929 82.749,61.936 82.028,61.511 L82.11,61.379 C81.858,61.142 81.341,61.44 80.881,61.182 C81.012,61.266 81.121,61.558 80.839,61.598 C80.309,61.334 79.937,61.577 79.553,61.255 L79.167,61.637 C77.302,61.515 69.914,61.89 68.038,61.907 L68.113,61.846 C65.25,61.971 59.386,61.797 56.42,62.263 C55.973,61.868 55.34,61.943 54.867,61.823 C55.128,61.99 55.03,62.261 54.824,62.24 C53.373,62.16 54.719,62.504 53.247,62.632 C51.547,62.949 45.087,62.382 43.595,62.017 C42.774,62.565 41.779,62.111 40.98,62.451 L41.063,62.319 C40.209,62.511 35.421,61.868 34.43,62.046 L34.56,62.131 C33.692,62.463 33.824,61.844 33.152,61.634 C33.225,62.273 32.479,62.617 32.198,62.658 L32.211,62.519 C31.786,62.616 30.812,63.145 30.11,63.213 L30.146,62.866 C29.554,63.225 28.46,63.043 28.04,63.069 C27.084,62.902 25.621,62.259 24.327,62.688 L23.523,61.674 L23.399,61.77 C23.399,61.77 21.771,73.726 23.401,76.321 L23.366,76.668 L23.702,76.631 C24.1,76.812 24.295,76.414 24.26,76.76 L23.71,76.704 C24.111,76.815 23.825,76.992 23.666,77.185 C23.834,77.222 23.997,77.268 24.128,77.379 C24.211,77.247 24.073,77.233 24.012,77.156 C24.232,77.039 24.542,76.719 24.803,76.886 C25.216,76.929 24.815,77.45 25.297,77.5 C27.834,77.831 30.289,78.294 32.862,78.279 C32.917,78.424 32.848,78.418 32.772,78.48 C33.55,78.349 34.237,78.421 34.946,78.282 C35.139,78.443 35.186,78.658 35.241,78.804 C35.132,78.512 39.144,78.585 39.205,78.662 L39.27,78.035 C40.033,78.045 39.475,78.758 40.183,78.621 C40.481,77.74 41.352,78.742 41.608,78.276 C41.6,78.346 41.945,78.381 41.917,78.659 C42.034,78.179 42.274,78.555 42.495,78.438 C42.578,78.306 42.441,78.293 42.385,78.145 L42.888,77.988 C43.079,78.147 43.121,78.432 42.908,78.479 C44.207,78.684 50.455,79.299 51.865,79.093 C51.693,78.725 51.253,78.961 51.103,78.383 C51.482,78.072 51.647,78.509 51.819,78.176 C51.94,79.031 52.63,78.4 52.89,79.269 L53.008,78.79 L53.185,79.089 C54.831,78.628 53.564,78.854 55.009,79.003 C55.849,78.949 56.263,78.29 56.723,78.547 C56.654,78.541 56.477,78.241 56.697,78.123 C56.723,78.547 57.282,77.834 57.377,78.264 C57.591,78.215 58.278,78.287 58.06,77.702 C58.169,77.994 58.781,78.128 58.409,78.37 C58.616,78.391 58.814,78.482 58.967,78.357 L58.705,78.189 C59.407,78.123 59.777,78.581 60.246,78.068 L59.993,77.831 C60.412,77.804 60.763,77.77 60.914,78.346 L60.479,78.512 C61.174,78.514 61.594,78.487 62.18,78.197 L61.974,78.175 C62.725,77.622 66.592,77.243 67.289,76.543 L66.987,76.09 L67.58,75.73 C67.511,75.723 67.263,77.168 67.208,77.021 C68.46,77.01 74.978,76.825 76.127,77.153 C76.587,77.411 76.193,77.862 76.186,77.932 C76.758,77.78 76.443,77.466 76.924,77.516 C77.054,77.599 76.889,77.864 76.813,77.925 C77.026,77.879 77.218,78.038 77.239,77.83 C76.979,77.662 77.104,77.113 77.001,76.752 L77.621,76.815 L77.584,77.163 C77.723,77.176 77.959,76.218 78.564,76.421 C79.589,76.597 80.709,76.503 81.741,76.608 C81.72,76.817 81.5,76.935 81.279,77.052 C81.417,77.066 81.63,77.018 81.754,77.171 C81.514,76.796 82.194,76.936 82.003,76.776 C82.781,75.943 83.743,76.745 84.425,76.183 C84.502,75.419 86.18,63.062 86.203,62.151 C86.41,62.172 86.616,62.194 86.677,62.271 C86.629,62.055 86.224,61.943 86.003,62.06 L176.869671,93.8986338" id="Fill-315" fill="#6D7781"></path>
        <polyline id="Fill-316" fill="#FFFFFF" points="34.638 66.954 34.638 67.926 32.738 67.926 32.738 69.055 34.413 69.055 34.413 70.028 32.738 70.028 32.738 71.247 34.638 71.247 34.638 72.219 31.459 72.219 31.459 66.954 34.638 66.954"></polyline>
        <path d="M40.644,70.365 L41.886,70.365 L41.265,68.495 L40.644,70.365 Z M42.499,72.219 L42.207,71.337 L40.322,71.337 L40.031,72.219 L38.669,72.219 L40.494,66.954 L42.05,66.954 L43.868,72.219 L42.499,72.219 L42.499,72.219 Z" id="Fill-317" fill="#FFFFFF"></path>
        <polyline id="Fill-318" fill="#FFFFFF" points="47.562 67.941 47.562 66.969 51.706 66.969 51.706 67.941 50.27 67.941 50.27 72.219 48.991 72.219 48.991 67.941 47.562 67.941"></polyline>
        <polyline id="Fill-319" fill="#FFFFFF" points="59.074 66.954 59.074 67.926 57.174 67.926 57.174 69.055 58.849 69.055 58.849 70.028 57.174 70.028 57.174 71.247 59.074 71.247 59.074 72.219 55.894 72.219 55.894 66.954 59.074 66.954"></polyline>
        <path d="M64.877,67.941 L64.877,69.205 L65.67,69.205 C65.865,69.205 66.018,69.148 66.13,69.033 C66.243,68.919 66.299,68.768 66.299,68.581 C66.299,68.394 66.241,68.241 66.126,68.121 C66.012,68.001 65.859,67.941 65.67,67.941 L64.877,67.941 Z M64.877,70.177 L64.877,72.219 L63.599,72.219 L63.599,66.969 L65.67,66.969 C66.278,66.969 66.752,67.126 67.091,67.44 C67.43,67.754 67.6,68.133 67.6,68.577 C67.6,68.881 67.508,69.178 67.323,69.467 C67.139,69.756 66.837,69.962 66.418,70.081 L67.705,72.219 L66.208,72.219 L65.027,70.177 L64.877,70.177 L64.877,70.177 Z" id="Fill-320" fill="#FFFFFF"></path>
        <polyline id="Fill-321" fill="#FFFFFF" points="74.668 72.219 73.389 72.219 73.389 70.529 71.572 66.969 73.023 66.969 74.032 69.34 75.035 66.969 76.486 66.969 74.668 70.529 74.668 72.219"></polyline>
    </g>
</svg>