<?xml version="1.0" encoding="UTF-8"?>
<svg width="110px" height="110px" viewBox="0 0 110 110" version="1.1" xmlns="http://www.w3.org/2000/svg" xmlns:xlink="http://www.w3.org/1999/xlink">
    <!-- Generator: Sketch 64 (93537) - https://sketch.com -->
    <title>Artboard</title>
    <desc>Created with Sketch.</desc>
    <g id="Artboard" stroke="none" stroke-width="1" fill="none" fill-rule="evenodd">
        <path d="M20.419,42.7221338 C22.509,41.3311338 24.826,40.0511338 27.347,39.1211338 C28.599,38.6321338 29.881,38.1731338 31.179,37.7321338 C32.484,37.3161338 33.82,36.9641338 35.147,36.5901338 C40.463,35.0771338 45.852,34.0231338 50.572,32.0841338 C56.247,29.7621338 62.459,28.1321338 68.787,27.3981338 L71.157,27.0991338 C71.95,27.0231338 72.744,26.9741338 73.537,26.9171338 C75.122,26.8101338 76.706,26.7161338 78.284,26.6401338 C79.864,26.6341338 81.435,26.6291338 82.996,26.6231338 C83.775,26.6291338 84.552,26.6331338 85.326,26.6381338 C86.099,26.6751338 86.87,26.7121338 87.635,26.7481338 C87.577,27.9821338 86.503,29.7841338 87.478,30.4511338 C91.378,32.4961338 91.156,34.9621338 90.996,37.4261338 C90.913,38.6591338 88.148,37.2851338 89.024,38.5661338 C87.608,38.5031338 85.712,38.5441338 84.529,38.8241338 C83.342,39.1271338 82.874,39.5891338 84.263,40.2121338 C85.156,41.4431338 88.923,40.4261338 89.736,42.3101338 C90.524,44.2041338 88.607,45.9651338 89.389,47.8571338 C90.276,47.8711338 92.033,48.0491338 92.913,48.1341338 C93.667,49.4491338 91.72,51.7461338 92.582,51.8271338 C93.807,52.5821338 95.28,52.8181338 96.862,53.0421338 C98.443,53.2671338 100.154,53.3521338 101.844,53.5871338 C101.744,54.1961338 101.871,54.8431338 101.784,55.3771338 C101.741,55.6441338 101.643,55.8821338 101.437,56.0731338 C101.245,56.2701338 100.955,56.4251338 100.519,56.5211338 C86.026,54.8471338 71.106,56.0801338 56.872,59.4031338 C42.602,62.7221338 29.011,68.0401338 16.241,74.5851338 C13.085,75.6991338 13.886,72.3861338 15.185,69.4851338 C14.762,70.4461338 13.823,68.8481338 13.393,69.8131338 C12.919,69.0171338 12.657,67.7401338 12.873,66.3641338 C12.981,65.6771338 13.209,64.9631338 13.585,64.2751338 C13.964,63.5891338 14.48,62.9071338 15.209,62.3721338 C14.406,62.7701338 13.644,63.2401338 12.868,63.6881338 C11.786,63.6031338 11.947,62.0801338 11.34,61.0041338 C12.133,60.5431338 12.923,60.0831338 12.625,59.5401338 C12.328,59.0011338 11.73,57.9181338 11.433,57.3781338 C10.623,57.8491338 9.002,58.7911338 8.193,59.2621338 C9.002,58.7911338 9.811,58.3201338 9.507,57.7831338 C9.201,57.2471338 8.59,56.1731338 8.284,55.6351338 C9.622,54.0841338 12.786,53.9031338 14.185,52.4551338 L13.345,50.8051338 C11.347,51.1701338 9.016,53.0071338 7.368,54.0261338 C7.903,53.0001338 7.605,52.4601338 7,51.3811338 C7.559,50.8651338 8.214,50.5161338 8.9,50.2301338 C9.583,49.9371338 10.293,49.6971338 10.984,49.4231338 C12.375,48.8931338 13.648,48.1601338 14.601,46.7261338 C13.697,47.1291338 12.821,47.5911338 11.945,48.0511338 C12.035,47.1381338 12.449,46.4311338 13.069,45.8871338 C13.696,45.3591338 14.519,44.9751338 15.401,44.6491338 C17.175,44.0091338 19.147,43.5441338 20.419,42.7221338" id="Fill-435" fill="#FFC107"></path>
        <polyline id="Fill-442" fill="#000000" points="78.54 90.9271338 79.989 90.9271338 79.989 96.8701338 78.54 96.8701338 78.54 94.4061338 76.246 94.4061338 76.246 96.8701338 74.798 96.8701338 74.798 90.9271338 76.246 90.9271338 76.246 93.3061338 78.54 93.3061338 78.54 90.9271338"></polyline>
        <path d="M86.653,94.4751338 L86.653,90.9271338 L88.101,90.9271338 L88.101,94.4751338 C88.101,94.8301338 88.188,95.1041338 88.363,95.2961338 C88.538,95.4871338 88.794,95.5841338 89.133,95.5841338 C89.472,95.5841338 89.732,95.4871338 89.913,95.2961338 C90.093,95.1041338 90.183,94.8301338 90.183,94.4751338 L90.183,90.9271338 L91.631,90.9271338 L91.631,94.4751338 C91.631,94.9991338 91.508,95.4521338 91.263,95.8331338 C91.017,96.2141338 90.707,96.4921338 90.331,96.6671338 C89.955,96.8431338 89.548,96.9301338 89.108,96.9301338 C88.419,96.9301338 87.837,96.7161338 87.364,96.2861338 C86.89,95.8581338 86.653,95.2531338 86.653,94.4751338" id="Fill-443" fill="#000000"></path>
        <path d="M99.736,95.7701338 L100.828,95.7701338 C101.025,95.7701338 101.189,95.7101338 101.319,95.5921338 C101.449,95.4741338 101.513,95.3101338 101.513,95.1011338 C101.513,94.8921338 101.452,94.7261338 101.327,94.6021338 C101.203,94.4781338 101.041,94.4151338 100.844,94.4151338 L99.736,94.4151338 L99.736,95.7701338 Z M99.736,92.0271338 L99.736,93.3151338 L100.684,93.3151338 C100.892,93.3151338 101.061,93.2611338 101.187,93.1531338 C101.314,93.0461338 101.378,92.8871338 101.378,92.6751338 C101.378,92.4631338 101.314,92.3031338 101.187,92.1931338 C101.061,92.0821338 100.892,92.0271338 100.684,92.0271338 L99.736,92.0271338 Z M98.288,90.9271338 L100.87,90.9271338 C101.474,90.9271338 101.955,91.0731338 102.313,91.3671338 C102.672,91.6601338 102.851,92.0321338 102.851,92.4851338 C102.851,93.1561338 102.458,93.6101338 101.674,93.8481338 C102.075,93.9041338 102.394,94.0701338 102.631,94.3481338 C102.868,94.6241338 102.987,94.9481338 102.987,95.3211338 C102.987,95.7951338 102.813,96.1721338 102.466,96.4511338 C102.119,96.7311338 101.634,96.8701338 101.014,96.8701338 L98.288,96.8701338 L98.288,90.9271338 L98.288,90.9271338 Z" id="Fill-444" fill="#000000"></path>
        <path d="M50.75,53.4271338 C51.278,53.0001338 51.352,52.6091338 51.267,51.9861338 C50.876,50.6191338 50.545,49.1421338 50.241,47.7511338 C48.287,38.3291338 47.497,44.0071338 46.058,50.3341338 C42.876,58.3611338 45.51,59.4561338 50.75,53.4271338 Z M63.449,42.3081338 C64.394,41.3911338 65.412,40.7301338 66.588,40.3001338 C66.908,40.1161338 67.362,40.0791338 67.753,40.1521338 C68.318,40.1751338 68.844,40.3941338 69.518,40.4791338 C69.494,41.0401338 69.027,41.3591338 68.647,41.6511338 C66.585,43.5361338 64.879,45.6881338 62.954,47.7171338 C62.597,48.0961338 62.438,48.5121338 62.584,49.0251338 C62.804,49.7941338 62.877,50.6971338 63.097,51.4651338 C63.183,52.0891338 63.329,52.6011338 62.715,53.0541338 C62.335,53.3471338 62.457,53.7751338 62.629,54.3721338 C62.874,53.9321338 62.887,53.6511338 63.009,53.4321338 C63.548,53.3691338 63.67,54.4441338 63.168,54.9581338 C63.106,55.0671338 63.021,55.0911338 63.045,55.1771338 C62.959,55.2021338 62.898,55.3121338 62.775,55.5321338 C63.386,57.6681338 64.046,59.9741338 64.595,62.2201338 C64.767,62.8181338 64.828,63.3551338 64.913,63.9781338 C64.973,65.8101338 65.633,67.4681338 66.379,69.1031338 C67.029,70.3971338 67.481,71.6531338 67.958,72.9951338 C68.227,73.9361338 68.581,74.8501338 68.851,75.7901338 C69.046,76.4741338 69.156,77.1821338 69.289,77.9751338 C68.959,77.7921338 68.628,77.6101338 68.297,77.4281338 C68.26,77.6221338 68.199,77.7331338 68.137,77.8431338 C68.077,77.9531338 68.124,78.1241338 68.174,78.2941338 C67.511,78.5761338 66.556,78.4811338 66.849,79.5061338 C66.297,79.8481338 65.708,79.7391338 65.291,79.5811338 C64.656,79.3021338 64.042,79.1081338 63.552,78.6931338 C61.812,77.1561338 60.454,75.3281338 59.328,73.3401338 C59.23,72.9981338 58.936,72.6201338 59.377,72.2161338 C59.462,72.1921338 59.316,71.6791338 59.243,71.4231338 C58.876,70.7891338 58.508,70.1531338 58.141,69.5201338 C55.998,66.2511338 54.69,62.6511338 53.357,58.9671338 C53.149,58.5641338 52.941,58.1611338 52.708,57.6731338 C52.414,57.9431338 52.095,58.1271338 51.887,58.3701338 C50.684,60.0091338 49.028,61.0361338 47.42,62.2371338 C46.169,63.0571338 44.747,63.9261338 43.385,64.6861338 C42.073,65.6151338 41.434,67.2761338 41.065,68.5841338 C40.339,71.5651338 39.086,74.3261338 38.311,77.1351338 C38.066,77.5751338 37.857,77.8191338 37.367,78.0531338 C35.441,78.7881338 38.419,79.7851338 36.445,79.7021338 C32.264,81.6381338 33.37,78.3641338 31.213,76.6711338 C32.074,74.4851338 33.019,72.2731338 33.989,70.1471338 C34.518,69.0711338 35.07,68.0811338 35.623,67.0911338 C36.482,65.5511338 35.5,67.3111338 36.201,65.5391338 C35.869,65.3571338 35.563,65.2591338 35.232,65.0771338 C34.509,64.8211338 33.872,64.5431338 33.149,64.2871338 C32.598,63.9831338 32.304,63.6051338 32.304,62.9581338 C32.831,62.5291338 33.42,62.6391338 34.033,62.8321338 C34.927,63.0391338 35.884,63.1351338 36.84,63.2311338 C37.037,63.2671338 37.441,63.0591338 37.564,62.8391338 C38.214,61.5441338 38.755,60.1881338 39.406,58.8931338 C39.504,58.5871338 39.517,58.3061338 39.64,58.0861338 C41.224,54.8601338 41.975,51.3181338 43.056,47.9581338 C44.31,43.9021338 45.454,39.7861338 46.708,35.7311338 C47.261,34.0931338 47.385,32.5801338 47.031,31.0171338 C46.664,29.0881338 46.495,27.1961338 46.324,25.3041338 C46.217,22.0071338 46.649,18.6501338 47.216,15.4371338 C47.461,14.3501338 47.695,14.1911338 48.713,14.1761338 C50.098,14.1511338 51.459,14.0381338 52.844,14.0111338 C53.298,13.9741338 53.775,14.0221338 54.217,14.2651338 C55.099,14.7521338 55.981,15.2391338 56.801,15.8361338 C57.182,16.1901338 57.499,16.6531338 57.708,17.0561338 C58.675,18.8121338 59.041,20.7411338 59.236,22.7181338 C59.602,25.2941338 59.942,27.7841338 60.222,30.3841338 C60.295,30.6411338 60.307,31.0061338 60.406,31.3481338 C60.943,33.2281338 61.027,35.1441338 60.94,37.1101338 C60.816,38.6251338 61.145,40.1021338 61.303,41.6281338 C61.388,42.2511338 61.56,42.8481338 61.731,43.4471338 C61.841,43.5071338 61.841,43.5071338 61.952,43.5681338 C62.479,43.1401338 63.006,42.7121338 63.449,42.3081338 L63.449,42.3081338 Z" id="Fill-445" fill="#272525"></path>
    </g>
</svg>