<?xml version="1.0" encoding="utf-8"?>
<!-- Generator: Adobe Illustrator 23.0.0, SVG Export Plug-In . SVG Version: 6.00 Build 0)  -->
<svg version="1.1" id="Layer_1" xmlns="http://www.w3.org/2000/svg" xmlns:xlink="http://www.w3.org/1999/xlink" x="0px" y="0px"
	 viewBox="0 0 660 80" style="enable-background:new 0 0 660 80;" xml:space="preserve">
<title>Artboard</title>
<desc>Created with Sketch.</desc>
<g>
	<path d="M4.9,9.6h14.6c15.9,0,21.3,2.6,21.3,20.7V52c0,11.5-3.4,18.3-21.3,18.3H4.9V9.6z M19,61.7c6.9,0,7.5-2.6,7.5-8.4v-25
		c0-8.1-0.3-9.9-7.5-9.9V61.7z"/>
	<path d="M44.3,70.4V9.6h29.4v9.2H58.4v13.3h14.7v9.2H58.4v19.8h15.2v9.2H44.3z"/>
	<path d="M97.7,31.4v-8.5c0-3-0.9-4.7-3.8-4.7c-3.1,0-3.8,1.7-3.8,4.7c0,10.2,21.7,13.2,21.7,32c0,11.4-6.1,16.7-18,16.7
		c-9,0-17.8-3.1-17.8-13.6V46.7h14.2v10.5c0,3.6,1.1,4.6,3.8,4.6c2.3,0,3.8-1,3.8-4.6c0-13.7-21.7-14-21.7-33.6
		c0-11,7.3-15.2,18.2-15.2c9.6,0,17.7,3.2,17.7,13.4v9.6H97.7z"/>
	<path d="M115.6,70.4V9.6h14.2v22.5h7.5V9.6h14.2v60.8h-14.2v-29h-7.5v29H115.6z"/>
	<path d="M175,9.6h14.3c12,0,21.5,0.2,21.5,14.8c0,6.7-2,12.8-10.1,13.6v0.6c9,0,10.1,6.7,10.1,14.5c0,16.7-6.5,17.3-21.5,17.3H175
		V9.6z M189.2,34.3c4.4-0.3,7.5,1.2,7.5-7.9c0-6-0.5-8.4-7.5-8V34.3z M189.2,61.7c7.6,0.7,7.5-3.7,7.5-10c0-8.6-1.5-8.7-7.5-8.7
		V61.7z"/>
	<path d="M243.5,9.6l7.9,60.8h-14.1l-1.6-14.9h-7.7l-2.3,14.9h-11.9L224,9.6H243.5z M234.6,46.2l-2.5-27.1h-0.2l-2.5,27.1H234.6z"/>
	<path d="M253.7,9.6h19.6l9,44.2h0.2V9.6h11.1v60.8h-18.2L265,19.6h-0.2v50.8h-11.1V9.6z"/>
	<path d="M323.7,67.3c-1.5,1.7-3.6,2.8-5.8,3.4c-2.1,0.7-4.4,0.9-6.5,0.9c-9.3,0-14.5-3.8-14.5-17.8V26.2c0-13.9,8.5-17.8,17.9-17.8
		c11.4,0,17.8,4.6,18,16.6l-0.1,6.4h-14.2v-8.4c0-2.5-0.8-4.8-3.8-4.8s-3.8,2.3-3.8,4.8v34.1c0,2.5,0.7,4.8,3.8,4.8
		c3,0,3.8-2.3,3.8-4.8V49h-5.4v-9.2h19.5v30.6h-8.3L323.7,67.3z"/>
	<path d="M336.3,70.4V9.6h14.2v51.5h15.4v9.2H336.3z"/>
	<path d="M396.9,9.6l7.9,60.8h-14.1l-1.6-14.9h-7.7l-2.3,14.9h-11.9l10.3-60.8H396.9z M388,46.2l-2.5-27.1h-0.2l-2.5,27.1H388z"/>
	<path d="M427.3,70.4V9.6h14.3C455,9.6,463,11,463,23.8c0,7.6-3.2,12.5-10.8,13.8v0.2C459,38,463,40.5,463,49.2v12.7
		c0,2.4,0.4,6,2.1,8.4h-14.3c-1.7-2.5-2-6.1-2-8.4V49c0-4.3-2.6-6.4-5.1-6.4h-2.3v27.7H427.3z M441.5,33.9c6.4,0,7.4-2.1,7.4-7.9
		c0-5.6-0.9-7.8-7.4-7.8V33.9z"/>
	<path d="M502.9,53.1c-0.3,12.9-4.8,18.5-18,18.5c-17.5,0-17.8-12.2-17.8-19.9V9.6h14.2v43.8c0,4.9,0,8.4,3.7,8.4
		c3.8,0,3.8-3.6,3.8-8.4V9.6h14.2V53.1z"/>
	<path d="M506.7,9.6H521c12,0,21.5,0.2,21.5,14.8c0,6.7-2,12.8-10.1,13.6v0.6c9,0,10.1,6.7,10.1,14.5c0,16.7-6.5,17.3-21.5,17.3
		h-14.3V9.6z M520.8,34.3c4.4-0.3,7.5,1.2,7.5-7.9c0-6-0.5-8.4-7.5-8V34.3z M520.8,61.7c7.6,0.7,7.5-3.7,7.5-10
		c0-8.6-1.5-8.7-7.5-8.7V61.7z"/>
	<path d="M546.3,9.6h14.3c12,0,21.5,0.2,21.5,14.8c0,6.7-2,12.8-10.1,13.6v0.6c9,0,10.1,6.7,10.1,14.5c0,16.7-6.5,17.3-21.5,17.3
		h-14.3V9.6z M560.4,34.3c4.4-0.3,7.5,1.2,7.5-7.9c0-6-0.5-8.4-7.5-8V34.3z M560.4,61.7c7.6,0.7,7.5-3.7,7.5-10
		c0-8.6-1.5-8.7-7.5-8.7V61.7z"/>
	<path d="M585.7,70.4V9.6H615v9.2h-15.2v13.3h14.7v9.2h-14.7v19.8H615v9.2H585.7z"/>
	<path d="M617.3,70.4V9.6h14.3C645,9.6,653,11,653,23.8c0,7.6-3.2,12.5-10.8,13.8v0.2C649,38,653,40.5,653,49.2v12.7
		c0,2.4,0.4,6,2.1,8.4h-14.3c-1.7-2.5-2-6.1-2-8.4V49c0-4.3-2.6-6.4-5.1-6.4h-2.3v27.7H617.3z M631.4,33.9c6.4,0,7.4-2.1,7.4-7.9
		c0-5.6-0.9-7.8-7.4-7.8V33.9z"/>
</g>
</svg>
