<?xml version="1.0" encoding="utf-8"?>
<!-- Generator: Adobe Illustrator 23.0.0, SVG Export Plug-In . SVG Version: 6.00 Build 0)  -->
<svg version="1.1" id="Layer_1" xmlns="http://www.w3.org/2000/svg" xmlns:xlink="http://www.w3.org/1999/xlink" x="0px" y="0px"
	 viewBox="0 0 540 100" style="enable-background:new 0 0 540 100;" xml:space="preserve">
<style type="text/css">
	.st0{fill:#E14338;}
	.st1{fill:#3F127B;}
</style>
<title>Artboard</title>
<desc>Created with Sketch.</desc>
<g>
	<path class="st0" d="M14.8,63.7h6.9c2.4,0,4.2,0.3,5.5,1c1.3,0.6,2.3,1.6,2.9,2.9c0.6,1.3,0.8,3,0.8,5.2v10.6c0,2.2-0.3,4-0.8,5.4
		c-0.6,1.4-1.5,2.4-2.8,3.1c-1.3,0.7-3.1,1-5.4,1h-7.1V63.7z M21.7,89.1c1.2,0,2-0.2,2.6-0.6c0.5-0.4,0.9-1,1-1.7
		c0.1-0.7,0.2-1.8,0.2-3.3V72.4c0-1.3-0.1-2.3-0.3-3s-0.5-1.2-1.1-1.5s-1.4-0.5-2.5-0.5h-1.6v21.7H21.7z"/>
	<path class="st0" d="M36.3,63.7h12.2v3.7h-6.9v8.4h5.5v3.7h-5.5v9.7h7v3.6H36.3V63.7z"/>
	<path class="st0" d="M54.6,91c-1.3-1.5-2-3.7-2.1-6.7l4.6-0.9c0.1,1.8,0.4,3.3,0.9,4.2c0.5,1,1.3,1.5,2.4,1.5
		c0.8,0,1.4-0.2,1.8-0.7s0.6-1.2,0.6-2c0-1.2-0.3-2.1-0.8-2.9c-0.5-0.8-1.3-1.7-2.4-2.6l-3.7-3.2c-1.1-1-2-2-2.5-3.1
		c-0.6-1.1-0.8-2.4-0.8-4c0-2.3,0.7-4,2-5.3c1.3-1.3,3.2-1.9,5.5-1.9c2.5,0,4.3,0.7,5.4,2.1c1.1,1.4,1.7,3.4,1.9,5.8l-4.6,0.8
		c-0.1-1.6-0.3-2.8-0.7-3.6c-0.4-0.8-1.1-1.2-2.2-1.2c-0.8,0-1.4,0.3-1.8,0.8c-0.4,0.5-0.6,1.2-0.6,2c0,0.9,0.2,1.7,0.6,2.4
		c0.4,0.6,1,1.3,1.8,2l3.6,3.2c1.4,1.2,2.4,2.4,3.2,3.8c0.8,1.3,1.2,2.9,1.2,4.7c0,1.4-0.3,2.6-0.9,3.7c-0.6,1.1-1.5,1.9-2.6,2.5
		c-1.1,0.6-2.4,0.9-3.8,0.9C57.8,93.2,55.9,92.5,54.6,91z"/>
	<path class="st0" d="M72.4,63.7h5.3v12.2h5.9V63.7H89v29.2h-5.3V79.7h-5.9v13.2h-5.3V63.7z"/>
	<path class="st0" d="M105.1,63.7h7.2c2.8,0,4.9,0.6,6.3,1.7c1.5,1.1,2.2,3.1,2.2,5.8c0,1.8-0.4,3.2-1.1,4.2c-0.7,1-1.8,1.6-3.1,1.8
		c3.4,0.6,5,3,5,7.2c0,2.8-0.7,4.9-2.1,6.4c-1.4,1.4-3.4,2.1-6.1,2.1h-8.4V63.7z M112.2,75.6c1.5,0,2.6-0.3,3.1-1
		c0.6-0.7,0.8-1.8,0.8-3.3c0-1.5-0.4-2.5-1.1-3c-0.7-0.5-2-0.8-3.7-0.8h-1.1v8.2H112.2z M112.4,89.1c1.6,0,2.6-0.4,3.2-1.1
		c0.6-0.7,0.9-2,0.9-3.7c0-1.8-0.3-3-1-3.8c-0.7-0.8-1.8-1.2-3.3-1.2h-1.9v9.8H112.4z"/>
	<path class="st0" d="M130.9,63.7h5.7l5.8,29.2h-4.9l-1.2-6.7h-5.1l-1.2,6.7h-5L130.9,63.7z M135.8,82.7l-2-12.2l-2,12.2H135.8z"/>
	<path class="st0" d="M146.8,63.7h3.7l7.1,16.6V63.7h4.4v29.2h-3.5l-7.1-17.4v17.4h-4.5V63.7z"/>
	<path class="st0" d="M169.2,90.7c-1.2-1.7-1.8-4.2-1.8-7.4v-9.8c0-3.3,0.6-5.9,1.9-7.5c1.2-1.7,3.4-2.5,6.4-2.5
		c2.9,0,4.9,0.7,6.2,2.1c1.2,1.4,1.9,3.5,1.9,6.4v1.5h-5.1v-1.7c0-1.1-0.1-1.9-0.2-2.5c-0.1-0.6-0.4-1.1-0.8-1.4s-1-0.5-1.9-0.5
		c-0.9,0-1.5,0.2-2,0.6c-0.4,0.4-0.7,1-0.8,1.7c-0.1,0.7-0.2,1.5-0.2,2.6v12.2c0,1.7,0.2,2.9,0.7,3.7c0.4,0.8,1.3,1.2,2.5,1.2
		c1.2,0,2-0.4,2.5-1.3c0.5-0.9,0.7-2.2,0.7-3.9v-2.7H176V78h7.9v14.8h-3.5l-0.4-2.8c-0.9,2.2-2.6,3.2-4.9,3.2
		C172.4,93.2,170.4,92.4,169.2,90.7z"/>
	<path class="st0" d="M189.4,63.7h5.3v25.5h7.1v3.6h-12.4V63.7z"/>
	<path class="st0" d="M210.3,63.7h5.7l5.8,29.2h-4.9l-1.2-6.7h-5.1l-1.2,6.7h-5L210.3,63.7z M215.2,82.7l-2-12.2l-2,12.2H215.2z"/>
	<path class="st0" d="M236.4,63.7h7c3.1,0,5.4,0.6,6.9,1.7c1.5,1.2,2.3,3.2,2.3,6c0,1.8-0.3,3.4-0.8,4.5s-1.5,2-2.8,2.5l4.1,14.4
		h-5.3l-3.5-13.4h-2.5v13.4h-5.3V63.7z M243.4,76.2c1.5,0,2.6-0.3,3.2-1c0.6-0.7,1-1.8,1-3.4c0-1.5-0.3-2.7-0.8-3.3s-1.6-1-3-1h-2
		v8.9H243.4z"/>
	<path class="st0" d="M261,92.1c-1.2-0.8-2-1.9-2.5-3.3c-0.5-1.4-0.7-3.2-0.7-5.4V63.7h5.2V84c0,1.7,0.2,3,0.6,3.9
		c0.4,0.9,1.2,1.4,2.4,1.4c1.2,0,2.1-0.5,2.5-1.4c0.4-0.9,0.6-2.2,0.6-3.9V63.7h5.1v19.7c0,2.2-0.2,4-0.7,5.4
		c-0.5,1.4-1.3,2.5-2.5,3.3s-2.9,1.2-5,1.2S262.2,92.9,261,92.1z"/>
	<path class="st0" d="M279.8,63.7h7.2c2.8,0,4.9,0.6,6.3,1.7c1.5,1.1,2.2,3.1,2.2,5.8c0,1.8-0.4,3.2-1.1,4.2c-0.7,1-1.8,1.6-3.1,1.8
		c3.4,0.6,5,3,5,7.2c0,2.8-0.7,4.9-2.1,6.4s-3.4,2.1-6.1,2.1h-8.4V63.7z M286.9,75.6c1.5,0,2.6-0.3,3.2-1c0.6-0.7,0.8-1.8,0.8-3.3
		c0-1.5-0.4-2.5-1.1-3c-0.7-0.5-2-0.8-3.7-0.8H285v8.2H286.9z M287.1,89.1c1.6,0,2.6-0.4,3.2-1.1c0.6-0.7,0.9-2,0.9-3.7
		c0-1.8-0.3-3-1-3.8c-0.7-0.8-1.8-1.2-3.3-1.2H285v9.8H287.1z"/>
	<path class="st0" d="M301.2,63.7h7.2c2.8,0,4.9,0.6,6.3,1.7s2.2,3.1,2.2,5.8c0,1.8-0.4,3.2-1.1,4.2s-1.8,1.6-3.1,1.8
		c3.4,0.6,5,3,5,7.2c0,2.8-0.7,4.9-2.1,6.4c-1.4,1.4-3.4,2.1-6.1,2.1h-8.4V63.7z M308.4,75.6c1.5,0,2.6-0.3,3.1-1
		c0.6-0.7,0.8-1.8,0.8-3.3c0-1.5-0.4-2.5-1.1-3c-0.7-0.5-2-0.8-3.7-0.8h-1.1v8.2H308.4z M308.6,89.1c1.6,0,2.6-0.4,3.2-1.1
		s0.9-2,0.9-3.7c0-1.8-0.3-3-1-3.8c-0.7-0.8-1.8-1.2-3.3-1.2h-1.9v9.8H308.6z"/>
	<path class="st0" d="M322.7,63.7H335v3.7H328v8.4h5.5v3.7H328v9.7h7v3.6h-12.3V63.7z"/>
	<path class="st0" d="M339.6,63.7h7c3.1,0,5.4,0.6,6.9,1.7c1.5,1.2,2.3,3.2,2.3,6c0,1.8-0.3,3.4-0.8,4.5s-1.5,2-2.8,2.5l4.1,14.4
		h-5.3l-3.5-13.4h-2.5v13.4h-5.3V63.7z M346.6,76.2c1.5,0,2.6-0.3,3.2-1c0.6-0.7,1-1.8,1-3.4c0-1.5-0.3-2.7-0.8-3.3
		c-0.6-0.7-1.6-1-3-1h-2v8.9H346.6z"/>
	<path class="st0" d="M372.7,91.4c-1.2-1.2-1.8-2.9-1.8-4.9c0-1.7,0.4-3.3,1.1-4.6c0.7-1.4,1.8-2.7,3.1-4l-0.4-0.8
		c-0.9-1.5-1.5-2.8-1.9-3.9c-0.4-1.1-0.6-2.2-0.6-3.3c0-1.9,0.6-3.4,1.7-4.6c1.1-1.2,2.7-1.8,4.6-1.8c1.8,0,3.4,0.5,4.5,1.6
		c1.2,1.1,1.7,2.5,1.7,4.2c0,1.2-0.3,2.3-0.8,3.4c-0.5,1.1-1.1,2-1.8,2.8c-0.7,0.8-1.5,1.7-2.6,2.8l3.9,6.7c0.3-0.6,0.6-1.5,0.8-2.6
		s0.4-2.3,0.4-3.4h3.9c0,3.2-0.8,6.1-2.5,8.8c0.3,0.4,0.7,0.7,1.1,0.9c0.5,0.3,1,0.4,1.5,0.4v4.1c-0.3,0-0.5,0.1-0.8,0.1
		c-0.9,0-1.7-0.3-2.4-0.8c-0.7-0.5-1.4-1.1-2.1-1.9c-0.7,0.8-1.5,1.5-2.4,2s-2.1,0.7-3.3,0.7C375.6,93.2,373.9,92.6,372.7,91.4z
		 M380.9,87.8l-4-6.7c-1.1,1.7-1.7,3.4-1.7,5.2c0,1,0.2,1.8,0.6,2.4s1,0.9,1.8,0.9C378.9,89.6,380,89,380.9,87.8z M379.7,72.5
		c0.5-1.2,0.7-2.4,0.7-3.4c0-0.6-0.2-1.2-0.6-1.5c-0.4-0.4-0.9-0.6-1.5-0.6c-0.6,0-1.1,0.3-1.5,0.8c-0.3,0.5-0.5,1.2-0.5,2
		c0,0.9,0.1,1.9,0.4,2.8c0.3,0.9,0.7,2,1.1,3.1C378.6,74.8,379.2,73.8,379.7,72.5z"/>
	<path class="st0" d="M404.2,63.7h8.6c5,0,7.5,2.8,7.5,8.3c0,5.3-2.6,7.9-7.8,7.9h-2.9v13h-5.3V63.7z M411.5,76.1
		c1.4,0,2.4-0.3,2.9-0.9c0.5-0.6,0.8-1.7,0.8-3.3c0-1.2-0.1-2-0.3-2.6c-0.2-0.6-0.5-1.1-1-1.4c-0.5-0.3-1.3-0.5-2.4-0.5h-2.1v8.7
		H411.5z"/>
	<path class="st0" d="M424.6,63.7h5.3v25.5h7.1v3.6h-12.4V63.7z"/>
	<path class="st0" d="M445.5,63.7h5.7l5.8,29.2h-4.9l-1.2-6.7h-5.1l-1.2,6.7h-5L445.5,63.7z M450.4,82.7l-2-12.2l-2,12.2H450.4z"/>
	<path class="st0" d="M462.7,91c-1.3-1.5-2-3.7-2.1-6.7l4.6-0.9c0.1,1.8,0.4,3.3,0.9,4.2c0.5,1,1.3,1.5,2.4,1.5
		c0.8,0,1.4-0.2,1.8-0.7c0.4-0.5,0.6-1.2,0.6-2c0-1.2-0.3-2.1-0.8-2.9c-0.5-0.8-1.3-1.7-2.4-2.6l-3.7-3.2c-1.1-1-2-2-2.5-3.1
		c-0.6-1.1-0.8-2.4-0.8-4c0-2.3,0.7-4,2-5.3c1.3-1.3,3.2-1.9,5.5-1.9c2.5,0,4.3,0.7,5.4,2.1c1.1,1.4,1.7,3.4,1.9,5.8l-4.6,0.8
		c-0.1-1.6-0.3-2.8-0.7-3.6c-0.4-0.8-1.1-1.2-2.2-1.2c-0.8,0-1.4,0.3-1.8,0.8c-0.4,0.5-0.6,1.2-0.6,2c0,0.9,0.2,1.7,0.6,2.4
		c0.4,0.6,1,1.3,1.8,2l3.6,3.2c1.4,1.2,2.4,2.4,3.2,3.8c0.8,1.3,1.2,2.9,1.2,4.7c0,1.4-0.3,2.6-0.9,3.7c-0.6,1.1-1.5,1.9-2.6,2.5
		c-1.1,0.6-2.4,0.9-3.8,0.9C466,93.2,464,92.5,462.7,91z"/>
	<path class="st0" d="M483.4,67.6h-4.6v-3.9h14.5v3.9h-4.5v25.2h-5.3V67.6z"/>
	<path class="st0" d="M497.5,63.7h5.3v29.2h-5.3V63.7z"/>
	<path class="st0" d="M510.1,90.7c-1.3-1.7-1.9-4.1-1.9-7.2V73.1c0-3.2,0.6-5.6,1.9-7.3c1.2-1.7,3.4-2.5,6.4-2.5
		c2.9,0,4.9,0.7,6.1,2.2c1.2,1.4,1.8,3.5,1.8,6.2v2.4h-5.1v-2.5c0-1,0-1.8-0.1-2.4s-0.3-1.1-0.7-1.4c-0.4-0.4-1-0.6-1.9-0.6
		c-0.9,0-1.5,0.2-1.9,0.6c-0.4,0.4-0.7,0.9-0.8,1.6c-0.1,0.7-0.2,1.5-0.2,2.6v12.6c0,1.7,0.2,2.9,0.6,3.6c0.4,0.7,1.2,1.1,2.3,1.1
		c0.8,0,1.4-0.2,1.8-0.6c0.4-0.4,0.6-0.9,0.8-1.5c0.1-0.6,0.2-1.5,0.2-2.5V82h5.1v2.3c0,2.8-0.6,5-1.8,6.5s-3.2,2.3-6.1,2.3
		C513.5,93.2,511.4,92.4,510.1,90.7z"/>
</g>
<g>
	<path class="st1" d="M17.5,18.5c0.4-0.5,1-0.9,1.8-1.1c0.7-0.2,1.4-0.3,2.2-0.3c0.8,0,1.4,0.1,2,0.3c0.6,0.2,0.9,0.5,0.9,0.9
		c0,0.1,0,0.2,0,0.2c0.2,0,0.4,0.2,0.5,0.7c0.1,0.5,0.1,1,0.1,1.5c0,0.5,0,1-0.1,1.3c-0.1,0.4-0.2,0.6-0.4,0.6h-2.9
		c-0.3,0.3-0.7,0.9-1.3,2c-0.6,1.1-1.3,2.4-2,3.9c-0.7,1.5-1.3,3.2-1.8,4.9c-0.5,1.8-0.8,3.6-0.8,5.3c0,1.1,0.1,2.1,0.4,3.1
		c0.3,1,0.7,1.9,1.4,2.8c0.7,0.8,1.5,1.6,2.6,2.2c1.1,0.6,2.4,1.1,4,1.4c0.3,0.1,0.4,0.4,0.4,1c0,0.4-0.1,0.8-0.2,1.2
		c-0.1,0.4-0.3,0.9-0.5,1.2c-0.2,0.4-0.5,0.7-0.8,0.9c-0.3,0.3-0.6,0.4-0.9,0.4c-2-0.2-3.7-0.7-5-1.5c-1.4-0.8-2.5-1.9-3.3-3.2
		c-0.8-1.3-1.5-2.7-1.8-4.4c-0.4-1.6-0.6-3.4-0.6-5.2c0-1.9,0.2-3.7,0.5-5.7c0.3-1.9,0.8-3.8,1.4-5.5c0.6-1.8,1.3-3.4,2-5
		C15.8,21,16.6,19.6,17.5,18.5z"/>
	<path class="st1" d="M24.2,18.5h2.9V18c0-0.4,0.2-0.6,0.6-0.7s0.9-0.2,1.5-0.2c0.4,0,0.9,0,1.3,0.1c0.5,0.1,0.9,0.2,1.2,0.3
		c0.4,0.1,0.6,0.3,0.9,0.5c0.2,0.2,0.4,0.4,0.4,0.6h19.5c0.2,0,0.4,0.2,0.5,0.7c0.1,0.5,0.1,1,0.1,1.5c0,0.5,0,0.9-0.1,1.3
		c-0.1,0.4-0.2,0.6-0.4,0.6H33.1v12.7c0,1,0.3,1.5,1,1.5c0.4,0,1-0.2,1.6-0.6c0.6-0.4,1.3-1,2-1.6c0.7-0.7,1.5-1.4,2.2-2.2
		c0.8-0.8,1.4-1.6,2.1-2.3c0.6-0.8,1.2-1.4,1.7-2c0.5-0.6,0.8-1.1,1-1.4c0.2-0.3,0.5-0.5,1-0.6c0.5-0.2,1-0.3,1.6-0.3
		c0.8,0,1.4,0.1,2,0.4c0.6,0.3,0.9,0.7,0.9,1.2v0.1c-0.1,0.7-0.2,1.4-0.3,2.3c-0.1,0.9-0.2,1.8-0.2,2.8c-0.1,1-0.1,2-0.1,3.1
		c0,1.1,0,2.1,0,3.2c0,1.7,0.1,3.3,0.2,4.8c0.1,1.5,0.3,2.7,0.6,3.6c0,0.4-0.3,0.6-0.8,0.8c-0.6,0.2-1.1,0.3-1.8,0.3
		c-0.5,0-1-0.1-1.5-0.2c-0.4-0.1-0.8-0.4-0.9-0.7c-0.2-0.4-0.4-0.9-0.5-1.6s-0.2-1.5-0.3-2.3c-0.1-0.8-0.1-1.7-0.1-2.7
		c0-0.9,0-1.8,0-2.7c0-0.7,0-1.4,0-2c0-0.6,0-1.2,0.1-1.7c-0.5,0.8-1.3,1.5-2.3,2.2c-1,0.7-2.1,1.3-3.3,1.8
		c-1.2,0.5-2.4,0.9-3.7,1.2c-1.3,0.3-2.4,0.4-3.5,0.4c-1.3,0-2.4-0.2-3.3-0.7c-0.8-0.5-1.2-1.3-1.2-2.4V22.6h-2.8
		c-0.2,0-0.4-0.2-0.5-0.6s-0.1-0.9-0.1-1.5c0-0.5,0-1,0.1-1.4C23.9,18.7,24,18.5,24.2,18.5z"/>
	<path class="st1" d="M52.4,18.5h6.1c1.2,0,2.3,0.3,3.3,0.8c1,0.5,1.9,1.3,2.6,2.3c0.9-1.1,1.8-1.9,2.7-2.4c1-0.5,2-0.7,3-0.7
		c1.1,0,2.2,0.3,3.3,0.8c1.1,0.5,2.1,1.3,3.1,2.2l0.1-3c0-0.2,0.1-0.4,0.3-0.6c0.2-0.2,0.5-0.3,0.9-0.5c0.4-0.1,0.8-0.2,1.2-0.3
		c0.4-0.1,0.9-0.1,1.3-0.1c0.6,0,1.2,0.1,1.6,0.2c0.4,0.1,0.6,0.4,0.6,0.8v0.4h2.8c0.2,0,0.3,0.2,0.5,0.7c0.1,0.5,0.2,1,0.2,1.6
		c0,0.5,0,0.9-0.1,1.3c-0.1,0.4-0.2,0.6-0.4,0.6h-2.9v24.1c0,0.5-0.3,1-0.9,1.2c-0.6,0.3-1.3,0.4-2,0.4c-0.7,0-1.4-0.1-2.1-0.4
		c-0.6-0.3-0.9-0.7-0.9-1.2V27.3c-0.1-0.4-0.2-0.8-0.5-1.3c-0.3-0.5-0.6-1-1-1.5c-0.4-0.5-0.9-0.9-1.4-1.3c-0.5-0.4-1.1-0.6-1.7-0.6
		h-0.4c-0.9,0-1.6,0.2-2.3,0.5c-0.7,0.3-1.2,0.7-1.7,1.2c-0.5,0.5-0.8,1.1-1.1,1.7c-0.2,0.6-0.4,1.3-0.4,1.9c0,1,0.3,1.9,1,2.6
		c0.6,0.7,1.7,1.1,3.1,1.1c0.3,0,0.7,0,1.1,0c0.4,0,0.8-0.1,1.2-0.2c0.3,0,0.5,0.3,0.7,0.8c0.2,0.5,0.2,1,0.2,1.6
		c0,1.3-0.2,2.2-0.6,2.7c-0.4,0.4-1.2,0.7-2.2,0.7c-1.2,0-2.3-0.1-3.4-0.4c-1-0.3-2-0.8-2.9-1.4c-0.9,0.6-2,1.1-3.2,1.4
		c-1.2,0.3-2.5,0.4-3.8,0.4c-0.5,0-1,0-1.3-0.1c-0.4-0.1-0.7-0.3-0.9-0.5c-0.2-0.2-0.4-0.6-0.5-1c-0.1-0.4-0.1-1-0.1-1.7
		c0-0.6,0.1-1.2,0.2-1.6c0.1-0.5,0.3-0.7,0.6-0.8c0.9,0.2,1.7,0.3,2.5,0.3c1.5,0,2.6-0.4,3.3-1.2c0.7-0.8,1-1.7,1-2.7
		c0-0.6-0.1-1.2-0.3-1.8c-0.2-0.6-0.6-1.2-1-1.7c-0.4-0.5-0.9-0.9-1.5-1.2c-0.6-0.3-1.2-0.5-1.9-0.5h-5c-0.2,0-0.4-0.2-0.5-0.7
		c-0.1-0.5-0.2-1-0.2-1.5c0-0.5,0-0.9,0.1-1.3C52.1,18.7,52.3,18.5,52.4,18.5z"/>
	<path class="st1" d="M123.5,18.5c0.2,0,0.4,0.2,0.5,0.7c0.1,0.5,0.1,1,0.1,1.5c0,0.5,0,1-0.1,1.3c-0.1,0.4-0.2,0.6-0.4,0.6h-2.9
		v14.8c0,1.4-0.1,2.8-0.3,4.1c-0.2,1.3-0.6,2.5-1.2,3.5c-0.6,1-1.6,1.8-2.9,2.4c-1.3,0.6-3,0.9-5.1,0.9c-1.9,0-3.7-0.4-5.4-1.1
		c-1.7-0.7-3.2-1.6-4.5-2.8c-1.3-1.2-2.3-2.5-3.1-4s-1.2-3-1.2-4.6c0-2.4,1.1-4.7,3.2-6.8c2.1-2.1,5.4-3.8,9.9-5.2
		c0.7-0.2,1.5-0.4,2.3-0.6s1.6-0.4,2.4-0.6H95c-0.2,0-0.4-0.2-0.5-0.7c-0.1-0.5-0.2-1-0.2-1.5c0-0.5,0-0.9,0.1-1.3
		c0.1-0.4,0.2-0.6,0.4-0.6h19.8c0-0.2,0.1-0.4,0.4-0.6c0.2-0.2,0.5-0.3,0.9-0.5c0.4-0.1,0.8-0.2,1.2-0.3c0.4-0.1,0.9-0.1,1.3-0.1
		c0.6,0,1.1,0.1,1.5,0.2s0.6,0.4,0.6,0.7v0.5H123.5z M114.7,39.5v-14c-2.1,0.6-3.9,1.3-5.3,2.1s-2.6,1.7-3.5,2.6
		c-0.9,0.9-1.5,1.9-1.9,2.9c-0.4,1-0.6,2-0.6,3c0,1.2,0.2,2.4,0.7,3.6s1.1,2.1,1.8,3c0.7,0.9,1.5,1.6,2.4,2.1
		c0.9,0.5,1.7,0.8,2.5,0.8c0.8,0,1.4-0.2,1.9-0.6c0.5-0.4,0.9-1,1.1-1.6c0.3-0.6,0.5-1.3,0.6-2C114.6,40.7,114.7,40,114.7,39.5z"/>
	<path class="st1" d="M123.4,18.5h2.9v-0.4c0-0.4,0.2-0.7,0.7-0.8c0.4-0.2,1-0.2,1.5-0.2c0.4,0,0.8,0,1.3,0.1
		c0.4,0.1,0.9,0.2,1.2,0.3c0.4,0.1,0.7,0.3,0.9,0.5c0.2,0.2,0.3,0.4,0.3,0.6h2.8c0.3,0,0.4,0.2,0.5,0.6c0.1,0.4,0.1,0.9,0.1,1.5
		c0,0.5,0,1-0.1,1.4c-0.1,0.4-0.2,0.6-0.4,0.6h-2.9v24.1c0,0.5-0.3,1-0.9,1.2c-0.6,0.3-1.3,0.4-2.1,0.4c-0.7,0-1.4-0.1-2-0.4
		c-0.6-0.3-0.9-0.7-0.9-1.2V22.6h-2.8c-0.2,0-0.4-0.2-0.5-0.7c-0.1-0.5-0.2-1-0.2-1.5c0-0.5,0-0.9,0.1-1.3
		C123,18.7,123.2,18.5,123.4,18.5z"/>
	<path class="st1" d="M141.8,33.9c1.6,0.2,3.1,0.5,4.7,1c1.6,0.5,2.9,1.2,4.2,2c1.2,0.8,2.2,1.8,3,3c0.8,1.1,1.2,2.4,1.2,3.7
		c0,1-0.2,2-0.7,3.1c-0.5,1.1-1.3,2.2-2.4,3.4c-0.2,0.2-0.5,0.3-0.9,0.3c-0.4,0-0.9-0.1-1.5-0.3c-0.5-0.2-1-0.5-1.5-0.7
		c-0.5-0.3-0.9-0.6-1.2-0.9c-0.3-0.3-0.5-0.6-0.5-0.9c0-0.1,0-0.2,0.1-0.3c0.4-0.4,0.8-0.9,1.1-1.4c0.4-0.5,0.7-1,0.9-1.6
		c0.3-0.6,0.5-1.1,0.6-1.7c0.1-0.6,0.2-1.1,0.2-1.6c0-0.8-0.2-1.5-0.7-2c-0.5-0.5-1.2-0.8-2.3-0.8c-0.8,0-1.9,0.2-3.3,0.7h-0.3
		c-0.6,0-1.2-0.2-1.9-0.5c-0.7-0.3-1.3-0.7-1.8-1.2c-0.5-0.5-1-0.9-1.3-1.4c-0.4-0.5-0.5-0.9-0.5-1.2c0-0.2,0.1-0.3,0.3-0.4
		c0.2-0.1,0.4-0.2,0.6-0.2c0.3,0,0.5-0.1,0.8-0.1c0.3,0,0.5,0,0.8,0c0.4,0,0.8,0,1.2,0C141,33.8,141.4,33.8,141.8,33.9z M153.8,25.7
		c0,1.1-0.2,2.1-0.6,2.9c-0.4,0.8-1,1.5-1.6,2.1c-0.7,0.6-1.4,1-2.3,1.2c-0.9,0.3-1.8,0.4-2.7,0.4c-0.9,0-1.8-0.1-2.8-0.4
		c-0.9-0.3-1.7-0.7-2.4-1.3c-0.7-0.6-1.3-1.3-1.7-2.2c-0.4-0.9-0.6-1.9-0.6-3c0-1.2,0.2-2.3,0.7-3.1c0.5-0.9,1.1-1.6,1.8-2.2
		c0.7-0.6,1.6-1,2.5-1.2c0.9-0.3,1.8-0.4,2.7-0.4c0.4,0,0.8,0,1.2,0.1c0.4,0.1,0.9,0.2,1.3,0.3c0.4,0.1,0.7,0.3,1,0.5
		c0.3,0.2,0.4,0.4,0.4,0.6c0,0.3-0.2,0.5-0.5,0.8c-0.3,0.3-0.6,0.5-0.8,0.5c-1.9,0.2-3.4,0.6-4.3,1.2c-1,0.6-1.5,1.4-1.5,2.4
		c0,0.4,0.1,0.9,0.2,1.4c0.2,0.5,0.4,1.1,0.7,1.6c0.3,0.5,0.6,0.9,1,1.3c0.4,0.4,0.8,0.5,1.2,0.6c0.7,0,1.3-0.4,1.8-1.2
		c0.5-0.8,0.7-1.6,0.7-2.5c0-0.6-0.1-1.3-0.4-1.9c-0.3-0.6-0.8-1.1-1.4-1.5c-0.2-0.1-0.3-0.3-0.3-0.5c0-0.3,0.2-0.5,0.6-0.6
		c0.4-0.1,0.9-0.2,1.5-0.2c0.5,0,1,0.1,1.6,0.2c0.5,0.1,1,0.4,1.5,0.7c0.4,0.3,0.8,0.8,1.1,1.3C153.6,24.1,153.8,24.9,153.8,25.7z"
		/>
	<path class="st1" d="M173.6,29c0.8-0.7,1.7-1.3,2.7-1.8c1-0.5,2.1-0.7,3.1-0.7c1.5,0,2.8,0.4,4,1.3v-5.2h-26.8
		c-0.2,0-0.4-0.2-0.5-0.7c-0.1-0.5-0.2-1-0.2-1.5c0-0.5,0-0.9,0.1-1.3c0.1-0.4,0.2-0.6,0.4-0.6h26.9c0-0.2,0.1-0.4,0.4-0.6
		c0.2-0.2,0.5-0.3,0.9-0.5c0.4-0.1,0.8-0.2,1.2-0.3c0.4-0.1,0.9-0.1,1.3-0.1c0.6,0,1.1,0.1,1.5,0.2c0.4,0.1,0.6,0.4,0.6,0.7v0.5h2.8
		c0.2,0,0.4,0.2,0.5,0.7c0.1,0.4,0.1,0.9,0.1,1.5c0,0.5,0,1-0.1,1.4c-0.1,0.4-0.2,0.6-0.4,0.6h-3v24.1c0,0.5-0.3,1-0.9,1.2
		c-0.6,0.3-1.3,0.4-2,0.4c-0.7,0-1.4-0.1-2.1-0.4c-0.6-0.3-1-0.7-1-1.2V32.8c-0.6-1.1-1.3-1.8-1.9-2.3c-0.6-0.5-1.2-0.7-1.7-0.7
		c-0.4,0-0.9,0.2-1.2,0.5c-0.4,0.3-0.7,0.7-0.9,1.2c-0.3,0.5-0.5,1.1-0.6,1.8c-0.2,0.7-0.2,1.4-0.2,2.1c0,0.3,0,0.6,0,0.7
		c-0.1,0.3-0.4,0.5-0.9,0.6c-0.5,0.1-1,0.2-1.7,0.2c-0.7,0-1.4-0.1-2-0.3c-0.6-0.2-0.9-0.5-1-0.9c0-0.8-0.2-1.4-0.5-2
		c-0.3-0.6-0.8-1.1-1.2-1.5c-0.5-0.4-1-0.7-1.7-0.9s-1.2-0.3-1.7-0.3c-0.7,0-1.4,0.2-1.9,0.5c-0.5,0.3-0.8,0.8-0.8,1.5
		c0,0.7,0.4,1.7,1.2,2.8s2.2,2.4,4.2,3.9c0.1,0.1,0.1,0.2,0.1,0.3c0,0.3-0.2,0.6-0.5,1c-0.3,0.4-0.7,0.7-1.2,1.1s-1,0.6-1.5,0.9
		c-0.5,0.2-1,0.4-1.4,0.4c-0.3,0-0.5-0.1-0.7-0.2c-1.8-1.2-3.1-2.5-3.8-3.7c-0.8-1.3-1.1-2.5-1.1-3.7c0-1.2,0.3-2.3,0.9-3.3
		c0.6-1,1.4-1.9,2.3-2.7c0.9-0.8,2-1.4,3.1-1.8c1.2-0.4,2.3-0.7,3.5-0.7c0.9,0,1.8,0.2,2.7,0.5C172.2,27.8,172.9,28.3,173.6,29z"/>
	<path class="st1" d="M192.2,18.5h2.9v-0.4c0-0.4,0.2-0.7,0.7-0.8c0.4-0.2,1-0.2,1.5-0.2c0.4,0,0.8,0,1.3,0.1
		c0.4,0.1,0.9,0.2,1.2,0.3c0.4,0.1,0.7,0.3,0.9,0.5c0.2,0.2,0.3,0.4,0.3,0.6h2.8c0.3,0,0.4,0.2,0.5,0.6c0.1,0.4,0.1,0.9,0.1,1.5
		c0,0.5,0,1-0.1,1.4c-0.1,0.4-0.2,0.6-0.4,0.6H201v24.1c0,0.5-0.3,1-0.9,1.2c-0.6,0.3-1.3,0.4-2.1,0.4c-0.7,0-1.4-0.1-2-0.4
		c-0.6-0.3-0.9-0.7-0.9-1.2V22.6h-2.8c-0.2,0-0.4-0.2-0.5-0.7c-0.1-0.5-0.2-1-0.2-1.5c0-0.5,0-0.9,0.1-1.3
		C191.8,18.7,192,18.5,192.2,18.5z"/>
	<path class="st1" d="M239.1,22.6v14.8c0,1.4-0.1,2.8-0.3,4.1c-0.2,1.3-0.6,2.5-1.2,3.5c-0.6,1-1.6,1.8-2.9,2.4
		c-1.3,0.6-3,0.9-5.1,0.9c-1.9,0-3.7-0.4-5.4-1.1c-1.7-0.7-3.2-1.6-4.5-2.8c-1.3-1.2-2.3-2.5-3.1-4s-1.2-3-1.2-4.6
		c0-2.4,1.1-4.7,3.2-6.8c2.1-2.1,5.4-3.8,9.9-5.2c0.7-0.2,1.5-0.4,2.3-0.6s1.6-0.4,2.4-0.6h-19.7c-0.2,0-0.4-0.2-0.5-0.7
		c-0.1-0.5-0.2-1-0.2-1.5c0-0.5,0-0.9,0.1-1.3c0.1-0.4,0.2-0.6,0.4-0.6h19.8c0-0.2,0.1-0.4,0.4-0.6c0.2-0.2,0.5-0.3,0.9-0.5
		c0.4-0.1,0.8-0.2,1.2-0.3c0.4-0.1,0.9-0.1,1.3-0.1c0.6,0,1.1,0.1,1.5,0.2c0.4,0.1,0.6,0.4,0.6,0.7v0.5h2.8c0.2,0,0.4,0.2,0.5,0.7
		c0.1,0.5,0.1,1,0.1,1.5c0,0.5,0,1-0.1,1.3c-0.1,0.4-0.2,0.6-0.4,0.6H239.1z M221.6,50.6c0.2-0.3,0.7-0.4,1.3-0.4
		c0.4,0,0.9,0.1,1.5,0.3c0.6,0.2,1.1,0.4,1.6,0.7c0.5,0.3,0.9,0.6,1.2,0.9c0.3,0.3,0.5,0.6,0.5,0.8c0,0.2-0.1,0.4-0.2,0.7
		s-0.4,0.6-0.6,0.8c-0.2,0.3-0.4,0.6-0.6,0.9c-0.2,0.3-0.4,0.6-0.5,0.8c-0.2,0.3-0.6,0.5-1.2,0.5c-0.4,0-0.9-0.1-1.5-0.3
		c-0.5-0.2-1.1-0.4-1.5-0.7c-0.5-0.3-0.9-0.6-1.2-0.9s-0.5-0.6-0.5-0.9c0-0.2,0.1-0.4,0.2-0.7s0.3-0.6,0.5-0.9
		c0.2-0.3,0.4-0.6,0.6-0.8C221.3,50.9,221.5,50.7,221.6,50.6z M233.1,39.5v-14c-2.1,0.6-3.9,1.3-5.3,2.1s-2.6,1.7-3.5,2.6
		c-0.9,0.9-1.5,1.9-1.9,2.9c-0.4,1-0.6,2-0.6,3c0,1.2,0.2,2.4,0.7,3.6s1.1,2.1,1.8,3c0.7,0.9,1.5,1.6,2.4,2.1
		c0.9,0.5,1.7,0.8,2.5,0.8c0.8,0,1.4-0.2,1.9-0.6c0.5-0.4,0.9-1,1.1-1.6c0.3-0.6,0.5-1.3,0.6-2C233,40.7,233.1,40,233.1,39.5z"/>
	<path class="st1" d="M241.8,18.5h2.9v-0.4c0-0.4,0.2-0.7,0.7-0.8c0.4-0.2,1-0.2,1.5-0.2c0.4,0,0.8,0,1.3,0.1
		c0.4,0.1,0.9,0.2,1.2,0.3c0.4,0.1,0.7,0.3,0.9,0.5c0.2,0.2,0.3,0.4,0.3,0.6h2.8c0.3,0,0.4,0.2,0.5,0.6c0.1,0.4,0.1,0.9,0.1,1.5
		c0,0.5,0,1-0.1,1.4c-0.1,0.4-0.2,0.6-0.4,0.6h-2.9v24.1c0,0.5-0.3,1-0.9,1.2c-0.6,0.3-1.3,0.4-2.1,0.4c-0.7,0-1.4-0.1-2-0.4
		c-0.6-0.3-0.9-0.7-0.9-1.2V22.6h-2.8c-0.2,0-0.4-0.2-0.5-0.7c-0.1-0.5-0.2-1-0.2-1.5c0-0.5,0-0.9,0.1-1.3
		C241.5,18.7,241.6,18.5,241.8,18.5z"/>
	<path class="st1" d="M281.9,18.5c0.2,0,0.4,0.2,0.5,0.7c0.1,0.5,0.1,1,0.1,1.5c0,0.5,0,1-0.1,1.3c-0.1,0.4-0.2,0.6-0.4,0.6h-2.9
		v14.8c0,1.4-0.1,2.8-0.3,4.1c-0.2,1.3-0.6,2.5-1.2,3.5c-0.6,1-1.6,1.8-2.9,2.4c-1.3,0.6-3,0.9-5.1,0.9c-1.9,0-3.7-0.4-5.4-1.1
		c-1.7-0.7-3.2-1.6-4.5-2.8c-1.3-1.2-2.3-2.5-3.1-4c-0.8-1.5-1.2-3-1.2-4.6c0-2.4,1.1-4.7,3.2-6.8c2.1-2.1,5.4-3.8,9.9-5.2
		c0.7-0.2,1.5-0.4,2.3-0.6c0.8-0.2,1.6-0.4,2.4-0.6h-19.7c-0.2,0-0.4-0.2-0.5-0.7c-0.1-0.5-0.2-1-0.2-1.5c0-0.5,0-0.9,0.1-1.3
		c0.1-0.4,0.2-0.6,0.4-0.6h19.8c0-0.2,0.1-0.4,0.4-0.6c0.2-0.2,0.5-0.3,0.9-0.5c0.4-0.1,0.8-0.2,1.2-0.3c0.4-0.1,0.9-0.1,1.3-0.1
		c0.6,0,1.1,0.1,1.5,0.2c0.4,0.1,0.6,0.4,0.6,0.7v0.5H281.9z M273.1,39.5v-14c-2.1,0.6-3.9,1.3-5.3,2.1c-1.4,0.8-2.6,1.7-3.5,2.6
		c-0.9,0.9-1.5,1.9-1.9,2.9s-0.6,2-0.6,3c0,1.2,0.2,2.4,0.7,3.6c0.5,1.1,1.1,2.1,1.8,3c0.7,0.9,1.5,1.6,2.4,2.1
		c0.9,0.5,1.7,0.8,2.5,0.8c0.8,0,1.4-0.2,1.9-0.6c0.5-0.4,0.9-1,1.1-1.6c0.3-0.6,0.5-1.3,0.6-2C273,40.7,273.1,40,273.1,39.5z"/>
	<path class="st1" d="M281.8,18.5h2.9v-0.4c0-0.4,0.2-0.7,0.7-0.8c0.4-0.2,1-0.2,1.5-0.2c0.4,0,0.8,0,1.3,0.1
		c0.4,0.1,0.9,0.2,1.2,0.3c0.4,0.1,0.7,0.3,0.9,0.5c0.2,0.2,0.3,0.4,0.3,0.6h2.8c0.3,0,0.4,0.2,0.5,0.6c0.1,0.4,0.1,0.9,0.1,1.5
		c0,0.5,0,1-0.1,1.4c-0.1,0.4-0.2,0.6-0.4,0.6h-2.9v24.1c0,0.5-0.3,1-0.9,1.2c-0.6,0.3-1.3,0.4-2.1,0.4c-0.7,0-1.4-0.1-2-0.4
		c-0.6-0.3-0.9-0.7-0.9-1.2V22.6h-2.8c-0.2,0-0.4-0.2-0.5-0.7c-0.1-0.5-0.2-1-0.2-1.5c0-0.5,0-0.9,0.1-1.3
		C281.5,18.7,281.6,18.5,281.8,18.5z"/>
	<path class="st1" d="M319.1,22.6v14.8c0,1.4-0.1,2.8-0.3,4.1c-0.2,1.3-0.6,2.5-1.2,3.5c-0.6,1-1.6,1.8-2.9,2.4
		c-1.3,0.6-3,0.9-5.1,0.9c-1.9,0-3.7-0.4-5.4-1.1c-1.7-0.7-3.2-1.6-4.5-2.8c-1.3-1.2-2.3-2.5-3.1-4c-0.8-1.5-1.2-3-1.2-4.6
		c0-2.4,1.1-4.7,3.2-6.8c2.1-2.1,5.4-3.8,9.9-5.2c0.7-0.2,1.5-0.4,2.3-0.6c0.8-0.2,1.6-0.4,2.4-0.6h-19.7c-0.2,0-0.4-0.2-0.5-0.7
		c-0.1-0.5-0.2-1-0.2-1.5c0-0.5,0-0.9,0.1-1.3c0.1-0.4,0.2-0.6,0.4-0.6h19.8c0-0.2,0.1-0.4,0.4-0.6c0.2-0.2,0.5-0.3,0.9-0.5
		c0.4-0.1,0.8-0.2,1.2-0.3c0.4-0.1,0.9-0.1,1.3-0.1c0.6,0,1.1,0.1,1.5,0.2s0.6,0.4,0.6,0.7v0.5h2.8c0.2,0,0.4,0.2,0.5,0.7
		c0.1,0.5,0.1,1,0.1,1.5c0,0.5,0,1-0.1,1.3c-0.1,0.4-0.2,0.6-0.4,0.6H319.1z M301.7,50.6c0.2-0.3,0.7-0.4,1.3-0.4
		c0.4,0,0.9,0.1,1.5,0.3c0.6,0.2,1.1,0.4,1.6,0.7c0.5,0.3,0.9,0.6,1.2,0.9c0.3,0.3,0.5,0.6,0.5,0.8c0,0.2-0.1,0.4-0.2,0.7
		s-0.4,0.6-0.6,0.8c-0.2,0.3-0.4,0.6-0.6,0.9c-0.2,0.3-0.4,0.6-0.5,0.8c-0.2,0.3-0.6,0.5-1.2,0.5c-0.4,0-0.9-0.1-1.5-0.3
		s-1.1-0.4-1.5-0.7c-0.5-0.3-0.9-0.6-1.2-0.9s-0.5-0.6-0.5-0.9c0-0.2,0.1-0.4,0.2-0.7c0.1-0.3,0.3-0.6,0.5-0.9
		c0.2-0.3,0.4-0.6,0.6-0.8C301.3,50.9,301.5,50.7,301.7,50.6z M313.2,39.5v-14c-2.1,0.6-3.9,1.3-5.3,2.1c-1.4,0.8-2.6,1.7-3.5,2.6
		c-0.9,0.9-1.5,1.9-1.9,2.9s-0.6,2-0.6,3c0,1.2,0.2,2.4,0.7,3.6c0.5,1.1,1.1,2.1,1.8,3c0.7,0.9,1.5,1.6,2.4,2.1
		c0.9,0.5,1.7,0.8,2.5,0.8c0.8,0,1.4-0.2,1.9-0.6c0.5-0.4,0.9-1,1.1-1.6c0.3-0.6,0.5-1.3,0.6-2C313.1,40.7,313.1,40,313.2,39.5z"/>
	<path class="st1" d="M359,47.4c0,0.4-0.3,0.6-0.9,0.8c-0.6,0.2-1.3,0.3-2,0.3c-0.7,0-1.4-0.1-2.1-0.2c-0.7-0.1-1.1-0.3-1.3-0.6
		c-1.2-1.4-2.4-2.4-3.6-3c-1.1-0.5-2.2-0.8-3.3-0.8c-1.3,0-2.7,0.3-4.1,0.8c-1.4,0.5-2.8,1.1-4.4,1.7c-0.2,0.1-0.4,0.1-0.8,0.1
		s-0.8-0.1-1.2-0.3c-0.4-0.2-0.8-0.4-1.2-0.7c-0.3-0.3-0.6-0.6-0.8-0.9c-0.2-0.4-0.3-0.7-0.3-1.1c0-0.5,0.3-1,0.9-1.5
		c0.6-0.4,1.3-0.8,2.2-1.1s1.9-0.5,3-0.7s2.2-0.3,3.2-0.3c2,0,3.9,0.3,5.8,0.8c1.9,0.5,3.6,1.4,4.9,2.4l0-19.1
		c-0.8-0.8-1.6-1.3-2.3-1.7c-0.7-0.3-1.3-0.5-1.8-0.5s-1,0.2-1.4,0.5c-0.4,0.3-0.8,0.7-1,1.2c-0.3,0.5-0.5,1.1-0.6,1.8
		c-0.1,0.7-0.2,1.4-0.2,2.1c0,1.3,0.2,2.6,0.7,3.9c0,0.5-0.4,1-1.2,1.3c-0.8,0.3-1.7,0.5-2.6,0.5c-0.6,0-1.1-0.1-1.6-0.2
		c-0.5-0.1-0.8-0.4-0.9-0.8c-0.4-1.3-0.6-2.6-0.6-3.7c0-1.7,0.4-3.2,1.2-4.5c0.8-1.3,1.8-2.3,3.1-3.1c1.3-0.8,2.7-1.4,4.3-1.8
		c1.6-0.4,3.3-0.6,5-0.6c0.4,0,0.9,0,1.5,0c0.6,0,1.2,0.1,1.8,0.2c0.6,0.1,1.1,0.2,1.6,0.4c0.5,0.2,0.8,0.4,1,0.7l0.1,0.6V47.4z"/>
	<path class="st1" d="M383.2,29c1.9-0.7,3.9-1.1,6.1-1.1c1.2,0,2.4,0.2,3.6,0.5c1.1,0.3,2.1,0.8,3,1.6c0.9,0.7,1.6,1.7,2.1,2.9
		c0.5,1.2,0.8,2.6,0.8,4.3c0,1.6-0.3,3-1,4.2c-0.7,1.2-1.6,2.2-2.8,3c-1.2,0.8-2.5,1.4-4.1,1.8c-1.6,0.4-3.2,0.6-4.9,0.6
		c-1.6,0-3.4-0.2-5.4-0.6c-1.9-0.4-3.8-1-5.6-1.9c-1.8-0.8-3.4-1.9-4.8-3.2c-1.4-1.3-2.4-2.8-3-4.5c0,0,0-0.1,0-0.1c0,0,0-0.1,0-0.1
		c0-0.4,0.2-0.7,0.7-0.9c0.5-0.2,1-0.2,1.7-0.2c0.5,0,1,0,1.5,0.1c0.5,0.1,1,0.2,1.4,0.4c0.4,0.2,0.8,0.4,1.2,0.6
		c0.3,0.2,0.6,0.5,0.7,0.8c0.3,0.9,0.9,1.8,1.8,2.6c0.8,0.8,1.8,1.6,2.9,2.2c1.1,0.6,2.3,1.2,3.5,1.5s2.4,0.6,3.5,0.6
		c1.2,0,2.3-0.3,3.2-0.8c0.9-0.6,1.6-1.3,2.2-2.1c0.6-0.8,1-1.7,1.3-2.7c0.3-0.9,0.4-1.8,0.4-2.5c0-1.3-0.3-2.4-1-3.3
		c-0.7-0.9-1.7-1.4-3-1.4c-1.3,0-2.8,0.5-4.6,1.5c-0.9,0.5-1.8,0.9-2.5,1.2c-0.7,0.3-1.3,0.4-1.8,0.4c-0.5,0-0.9-0.1-1.2-0.4
		c-0.3-0.2-0.6-0.6-0.8-1.1c-0.4-1-1-1.9-1.5-2.7c-0.6-0.8-1.1-1.6-1.7-2.2s-1.1-1.1-1.7-1.5c-0.6-0.4-1-0.6-1.5-0.6
		c-0.6,0-1,0.3-1.4,0.9c-0.4,0.6-0.5,1.6-0.5,3c0,0.5,0,1.1,0.1,1.6c0.1,0.6,0.1,1.2,0.1,1.9c0,0.3-0.3,0.5-1,0.7
		c-0.7,0.2-1.4,0.3-2.2,0.3c-1.3,0-2.1-0.2-2.5-0.5c-0.4-0.3-0.6-0.9-0.6-1.8c0-1.4,0.2-2.7,0.7-3.7c0.5-1.1,1.1-2,1.9-2.7
		c0.8-0.7,1.8-1.3,2.8-1.7c1.1-0.4,2.2-0.6,3.3-0.6c0.8,0,1.6,0.1,2.4,0.2c0.8,0.2,1.6,0.4,2.4,0.9v-1.8h-15.4
		c-0.3,0-0.4-0.2-0.5-0.6c-0.1-0.4-0.1-0.9-0.1-1.5c0-0.5,0-1,0.1-1.4c0.1-0.4,0.2-0.6,0.4-0.6h15.5c0-0.5,0.2-0.9,0.5-1.1
		c0.3-0.2,0.9-0.3,1.7-0.3c0.4,0,0.8,0,1.3,0.1c0.4,0.1,0.9,0.2,1.2,0.3s0.7,0.3,0.9,0.5c0.2,0.2,0.4,0.4,0.4,0.6h17.9
		c0.2,0,0.3,0.2,0.5,0.7c0.1,0.5,0.2,1,0.2,1.6c0,0.4,0,0.9-0.1,1.2c-0.1,0.4-0.2,0.6-0.4,0.6l-18,0V29z"/>
	<path class="st1" d="M427,42.4c1.2-1,2.4-1.4,3.8-1.4c0.4,0,0.9,0.1,1.4,0.2c0.5,0.1,0.9,0.3,1.3,0.6V31.1c-1.1,0.1-2.1,0.3-3,0.5
		c-0.9,0.3-1.8,0.7-2.6,1.2c-0.8,0.6-1.6,1.3-2.4,2.2c-0.8,0.9-1.5,2-2.2,3.3c-0.4,0.6-0.9,0.9-1.7,0.9c-0.4,0-0.8-0.1-1.2-0.2
		c-0.4-0.2-0.8-0.4-1.1-0.6c-0.3-0.3-0.5-0.6-0.7-0.9c-0.2-0.4-0.3-0.7-0.3-1.1c0.3-0.5,0.5-1,0.6-1.6c0.2-0.6,0.3-1.1,0.3-1.6
		c0-0.6-0.2-1.1-0.5-1.6c-0.3-0.4-0.9-0.7-1.8-0.9c-0.4-0.1-0.8-0.2-1.3-0.5c-0.5-0.3-1-0.6-1.5-1.1c-0.5-0.4-0.9-0.9-1.2-1.4
		c-0.3-0.5-0.5-1-0.5-1.4c0-0.2,0-0.4,0.1-0.6c1.4-2.3,3.2-4.1,5.1-5.4c2-1.3,4-1.9,6.2-1.9c1.8,0,3.5,0.5,5.1,1.4
		c1.6,0.9,3.1,2.5,4.5,4.6v-6c0-0.2,0.1-0.4,0.4-0.6c0.2-0.2,0.5-0.3,0.9-0.5c0.4-0.1,0.8-0.2,1.2-0.3c0.4-0.1,0.9-0.1,1.3-0.1
		c0.6,0,1.1,0.1,1.5,0.2c0.4,0.1,0.6,0.4,0.6,0.7v0.5h2.8c0.2,0,0.4,0.2,0.5,0.7c0.1,0.5,0.1,1,0.1,1.5c0,0.5,0,1-0.1,1.3
		c-0.1,0.4-0.2,0.6-0.4,0.6h-2.9v28.5c0,0.4-0.3,0.8-0.9,1c-0.6,0.2-1.3,0.3-2,0.3c-0.8,0-1.5-0.1-2.1-0.3c-0.6-0.2-1-0.6-1-1.1
		v-4.7c-0.4-0.8-0.8-1.4-1.1-1.7c-0.3-0.3-0.6-0.5-0.9-0.5c-0.3,0-0.6,0.2-0.8,0.5c-0.2,0.3-0.4,0.7-0.6,1.2c-0.1,0.5-0.2,1-0.3,1.5
		c-0.1,0.5-0.1,1-0.1,1.4c0,0.3-0.2,0.6-0.6,0.7c-0.4,0.2-0.9,0.2-1.4,0.2c-0.7,0-1.4-0.1-2-0.4c-0.6-0.3-1-0.7-1-1.2
		c0-0.1,0-0.1,0-0.2c0-0.1,0-0.2,0-0.2c0-0.5-0.1-0.9-0.4-1.3c-0.3-0.4-0.6-0.7-0.9-1c-0.4-0.3-0.8-0.5-1.2-0.6
		c-0.4-0.1-0.9-0.2-1.2-0.2c-0.5,0-0.9,0.1-1.3,0.3c-0.4,0.2-0.5,0.5-0.5,1c0,0.5,0.3,1.2,1,2c0.6,0.8,1.8,1.8,3.5,3
		c0.2,0.3,0.3,0.5,0.3,0.9c0,0.4-0.1,0.7-0.4,1.1c-0.3,0.4-0.6,0.7-1,1s-0.8,0.5-1.2,0.7c-0.4,0.2-0.8,0.3-1.2,0.3
		c-0.4,0-0.7-0.1-1-0.3c-1.4-1-2.5-2.1-3.1-3.1c-0.6-1.1-0.9-2.1-0.9-3.1c0-1,0.2-1.9,0.7-2.8c0.5-0.9,1.1-1.6,1.8-2.3
		c0.8-0.7,1.6-1.2,2.6-1.6s1.9-0.6,2.9-0.6c0.7,0,1.4,0.1,2.1,0.3C425.8,41.5,426.4,41.9,427,42.4z M419.2,27.6
		c0.3,0.1,0.7,0.2,1.1,0.3c0.4,0.2,0.9,0.4,1.3,0.6c0.4,0.3,0.8,0.6,1.2,0.9c0.4,0.3,0.6,0.7,0.8,1.1c0.9-0.7,2-1.2,3.3-1.7
		c1.3-0.5,2.5-0.8,3.6-1c-0.1-1.8-0.5-3.1-1.2-3.8c-0.7-0.7-1.6-1.1-2.5-1.1c-0.6,0-1.3,0.1-1.9,0.4c-0.7,0.2-1.4,0.6-2,1
		c-0.7,0.4-1.3,0.9-1.9,1.5C420.1,26.3,419.6,26.9,419.2,27.6z"/>
	<path class="st1" d="M442.2,18.5h2.9v-0.4c0-0.4,0.2-0.7,0.7-0.8c0.4-0.2,1-0.2,1.5-0.2c0.4,0,0.8,0,1.3,0.1
		c0.4,0.1,0.9,0.2,1.2,0.3s0.7,0.3,0.9,0.5c0.2,0.2,0.3,0.4,0.3,0.6h2.8c0.3,0,0.4,0.2,0.5,0.6c0.1,0.4,0.1,0.9,0.1,1.5
		c0,0.5,0,1-0.1,1.4c-0.1,0.4-0.2,0.6-0.4,0.6H451v24.1c0,0.5-0.3,1-0.9,1.2c-0.6,0.3-1.3,0.4-2.1,0.4c-0.7,0-1.4-0.1-2-0.4
		c-0.6-0.3-0.9-0.7-0.9-1.2V22.6h-2.8c-0.2,0-0.4-0.2-0.5-0.7s-0.2-1-0.2-1.5c0-0.5,0-0.9,0.1-1.3C441.9,18.7,442,18.5,442.2,18.5z"
		/>
	<path class="st1" d="M487.6,13.6c-0.1,0.4-0.5,0.7-1.1,0.9c-0.6,0.2-1.3,0.2-2,0.2c-0.7,0-1.3-0.1-1.9-0.2
		c-0.6-0.2-0.9-0.4-0.9-0.7c0.1-0.5,0.2-1,0.3-1.6c0.1-0.6,0.2-1.2,0.2-1.8c0-0.7-0.1-1.2-0.3-1.7s-0.5-0.8-1-1.1
		c-0.5-0.3-1.1-0.5-1.9-0.6c-0.8-0.1-1.8-0.2-3.1-0.2c-1.7,0-3.5,0.1-5.5,0.3c-2,0.2-3.8,0.6-5.5,1.1c-1.7,0.5-3.1,1.2-4.2,2
		c-1.1,0.8-1.7,1.8-1.7,3c0,0.7,0.2,1.5,0.7,2.3c0.5,0.8,1.3,1.8,2.4,2.8h3.1c0.2,0,0.4,0.2,0.5,0.7c0.1,0.5,0.1,1,0.1,1.5
		c0,0.5,0,1-0.1,1.3c-0.1,0.4-0.2,0.6-0.4,0.6h-2.9v24.1c0,0.5-0.3,1-0.9,1.2c-0.6,0.3-1.3,0.4-2,0.4c-0.8,0-1.5-0.1-2.1-0.4
		c-0.6-0.3-0.9-0.7-0.9-1.2V22.6h-2.8c-0.2,0-0.4-0.2-0.5-0.7s-0.2-1-0.2-1.5c0-0.5,0-0.9,0.1-1.3c0.1-0.4,0.2-0.6,0.4-0.6h2.9
		c-0.8-1.1-1.3-2.2-1.7-3.2c-0.3-1-0.5-1.9-0.5-2.8c0-1.6,0.5-3.1,1.5-4.4c1-1.3,2.3-2.4,4-3.2c1.6-0.9,3.5-1.6,5.6-2
		c2.1-0.5,4.2-0.7,6.3-0.7c2,0,4,0.2,5.8,0.6c1.9,0.4,3.5,1.1,5,2c1.5,0.9,2.6,2,3.5,3.4c0.9,1.4,1.3,3,1.3,4.9V13.6z"/>
	<path class="st1" d="M492.9,18.5c0.2,0,0.4,0.2,0.5,0.6c0.1,0.4,0.1,0.9,0.1,1.4c0,0.5,0,1-0.1,1.4c-0.1,0.4-0.2,0.6-0.4,0.6h-4.8
		c0.9,0.8,1.6,1.7,2,2.6c0.4,0.9,0.6,1.8,0.6,2.8c0,1.4-0.5,2.8-1.6,4.2c-1,1.3-2.5,2.3-4.4,3c-1.1,0.4-2.4,0.8-3.8,1.4
		c-1.4,0.5-2.7,1.2-3.9,1.9c-1.2,0.7-2.3,1.5-3.1,2.4c-0.8,0.9-1.2,1.9-1.2,3c0,1.1,0.5,2.1,1.5,2.9c1,0.8,2.4,1.2,4.1,1.3h0.7
		c0.8,0,1.5-0.1,2.3-0.2c0.8-0.2,1.5-0.4,2.1-0.7s1.1-0.6,1.5-1c0.4-0.4,0.6-0.8,0.6-1.3c0-0.4-0.2-0.9-0.6-1.4
		c-0.4-0.5-1-1.1-1.8-1.6c-0.3-0.3-0.4-0.5-0.4-0.9c0-0.4,0.1-0.8,0.4-1.2c0.3-0.4,0.6-0.9,1-1.2c0.4-0.4,0.8-0.7,1.3-0.9
		c0.5-0.2,0.9-0.4,1.3-0.4c0.2,0,0.5,0,0.7,0.1c1.2,1,2.1,2,2.7,3c0.6,1,0.8,2,0.8,3c0,1-0.3,2-0.9,3c-0.6,1-1.5,1.8-2.6,2.6
		c-1.1,0.8-2.4,1.4-3.9,1.8c-1.5,0.5-3.1,0.7-4.8,0.7c-1.5,0-3-0.2-4.4-0.7c-1.4-0.5-2.6-1.1-3.6-1.9c-1-0.8-1.8-1.7-2.4-2.7
		s-0.9-2-0.9-3.1c0-1.3,0.5-2.6,1.5-3.9s2.7-2.4,5-3.3c-0.9-0.3-1.7-0.7-2.5-1.2s-1.5-1-2.1-1.7c-0.6-0.6-1.1-1.3-1.4-2.1
		c-0.3-0.7-0.5-1.5-0.5-2.4c0-0.9,0.2-1.9,0.7-2.9c0.5-1,1.3-1.9,2.4-2.9h-5.4c-0.2,0-0.4-0.2-0.5-0.7s-0.2-1-0.2-1.5
		c0-0.5,0-0.9,0.1-1.3c0.1-0.4,0.2-0.6,0.4-0.6h21.1c0.3-0.7,0.4-1.3,0.4-1.8c0-0.6-0.2-1-0.6-1.2c-0.4-0.2-0.9-0.4-1.6-0.4
		c-0.6,0-1.4,0.1-2.2,0.2c-0.8,0.1-1.7,0.3-2.6,0.5c-0.9,0.2-1.9,0.3-2.9,0.5c-1,0.1-2,0.2-2.9,0.2s-1.9-0.1-2.7-0.3
		c-0.8-0.2-1.6-0.5-2.3-1.1c-0.7-0.5-1.2-1.2-1.6-2.1c-0.4-0.9-0.7-2-0.8-3.4c0.1-0.6,0.5-1.1,1.2-1.4c0.7-0.3,1.5-0.5,2.2-0.5
		c0.6,0,1.1,0.1,1.5,0.3c0.4,0.2,0.7,0.5,0.7,0.9v0.6c0,1.3,0.2,2.1,0.6,2.6s1,0.7,1.8,0.7c0.7,0,1.4-0.1,2.3-0.4
		c0.8-0.3,1.7-0.6,2.6-0.9s1.8-0.6,2.8-0.9c0.9-0.3,1.8-0.4,2.7-0.4c0.7,0,1.4,0.1,2,0.4c0.6,0.3,1.1,0.7,1.6,1.4
		c0.4,0.7,0.8,1.5,1.1,2.6c0.3,1.1,0.4,2.4,0.5,4.1H492.9z M473.8,25.1c-0.5,0.5-0.9,1.1-1.1,1.6c-0.2,0.5-0.3,1-0.3,1.5
		c0,0.6,0.2,1.2,0.5,1.8s0.8,1.1,1.4,1.5c0.6,0.4,1.3,0.8,2.1,1c0.8,0.3,1.6,0.4,2.5,0.4c0.6,0,1.2-0.1,1.8-0.2
		c0.6-0.1,1.2-0.3,1.8-0.6c-0.8-0.3-1.5-0.7-2.3-1.2c-0.8-0.5-1.6-1.1-2.3-1.8c-0.8-0.7-1.5-1.3-2.1-2
		C474.9,26.4,474.3,25.7,473.8,25.1z M485.5,29.7c0.5-0.7,0.8-1.4,0.8-2.2c0-0.7-0.2-1.3-0.6-1.9c-0.4-0.6-0.9-1.1-1.6-1.5
		c-0.6-0.4-1.4-0.8-2.2-1c-0.8-0.3-1.7-0.4-2.5-0.4c-0.6,0-1.2,0.1-1.9,0.3c1.1,1.4,2.2,2.7,3.6,3.8
		C482.4,27.9,483.9,28.9,485.5,29.7z"/>
	<path class="st1" d="M530.4,18.5c0.2,0,0.3,0.2,0.5,0.7c0.1,0.5,0.2,1,0.2,1.5c0,0.5,0,0.9-0.1,1.3c-0.1,0.4-0.2,0.6-0.4,0.6h-12
		c1.6,0.1,3,0.4,4.2,0.9c1.2,0.5,2.2,1.2,3,2s1.4,1.8,1.8,2.9c0.4,1.1,0.6,2.2,0.6,3.5c0,0.4,0,1-0.1,1.7c-0.1,0.7-0.2,1.4-0.4,2
		s-0.4,1.2-0.8,1.7c-0.3,0.5-0.8,0.7-1.4,0.7c-0.4,0-0.9,0-1.4-0.1c-0.5-0.1-0.9-0.2-1.3-0.4c-0.4-0.1-0.7-0.3-0.9-0.5
		c-0.2-0.2-0.4-0.4-0.4-0.6v-0.1c0.4-0.8,0.6-1.6,0.8-2.6c0.2-0.9,0.3-1.9,0.3-2.8c0-1.3-0.3-2.5-0.9-3.6c-0.6-1.1-1.7-1.7-3.2-2
		v12.3v1.1c0,1.2-0.1,2.5-0.4,3.6c-0.2,1.2-0.7,2.2-1.4,3.1c-0.7,0.9-1.6,1.6-2.9,2.2s-2.9,0.8-4.9,0.8c-1.9,0-3.7-0.4-5.4-1.1
		c-1.7-0.7-3.2-1.6-4.5-2.8c-1.3-1.2-2.3-2.5-3.1-4s-1.2-3-1.2-4.6c0-2.5,1.1-4.8,3.2-6.8c2.1-2,5.4-3.8,9.9-5.2l4.6-1.2h-19.7
		c-0.2,0-0.4-0.2-0.5-0.7c-0.1-0.5-0.2-1-0.2-1.6c0-0.5,0-0.9,0.1-1.3c0.1-0.4,0.2-0.6,0.4-0.6h19.8c0-0.2,0.1-0.4,0.4-0.6
		c0.2-0.2,0.5-0.3,0.9-0.5c0.4-0.1,0.8-0.2,1.2-0.3c0.4-0.1,0.9-0.1,1.3-0.1c0.6,0,1.1,0.1,1.5,0.2c0.4,0.1,0.6,0.4,0.6,0.7v0.5
		H530.4z M511.5,44c0.4-0.6,0.6-1.3,0.7-2.1c0.1-0.8,0.2-1.6,0.3-2.4v-14c-2.1,0.6-3.9,1.3-5.3,2.1s-2.6,1.7-3.4,2.6
		c-0.9,0.9-1.5,1.9-1.9,2.9s-0.6,2-0.6,3c0,1.2,0.2,2.4,0.7,3.6c0.5,1.1,1.1,2.1,1.8,3c0.7,0.9,1.5,1.6,2.4,2.1
		c0.9,0.5,1.7,0.8,2.5,0.8C509.9,45.6,510.8,45.1,511.5,44z"/>
</g>
</svg>
